<?xml version="1.0" encoding="UTF-8" standalone="no"?>
<!DOCTYPE svg PUBLIC "-//W3C//DTD SVG 1.1//EN"
 "http://www.w3.org/Graphics/SVG/1.1/DTD/svg11.dtd">
<!-- Generated by graphviz version 2.42.3 ()
 -->
<!-- Title: perl6&#45;type&#45;graph Pages: 1 -->
<svg width="4016pt" height="116pt"
 viewBox="0.00 0.00 4016.37 116.00" xmlns="http://www.w3.org/2000/svg" xmlns:xlink="http://www.w3.org/1999/xlink">
<g id="graph0" class="graph" transform="scale(1 1) rotate(0) translate(4 112)">
<title>perl6&#45;type&#45;graph</title>
<polygon fill="white" stroke="transparent" points="-4,4 -4,-112 4012.37,-112 4012.37,4 -4,4"/>
<!-- Documentable::DocPage -->
<g id="node1" class="node">
<title>Documentable::DocPage</title>
<g id="a_node1"><a xlink:href="/type/Documentable::DocPage" xlink:title="Documentable::DocPage">
<ellipse fill="none" stroke="#6666ff" cx="2031.28" cy="-90" rx="113.18" ry="18"/>
<text text-anchor="middle" x="2031.28" y="-86.3" font-family="FreeSans" font-size="14.00" fill="#6666ff">Documentable::DocPage</text>
</a>
</g>
</g>
<!-- Documentable::DocPage::Index::Programs -->
<g id="node2" class="node">
<title>Documentable::DocPage::Index::Programs</title>
<g id="a_node2"><a xlink:href="/type/Documentable::DocPage::Index::Programs" xlink:title="Documentable::DocPage::Index::Programs">
<ellipse fill="none" stroke="#000000" cx="196.28" cy="-18" rx="196.07" ry="18"/>
<text text-anchor="middle" x="196.28" y="-14.3" font-family="FreeSans" font-size="14.00" fill="#000000">Documentable::DocPage::Index::Programs</text>
</a>
</g>
</g>
<!-- Documentable::DocPage::Index::Programs&#45;&gt;Documentable::DocPage -->
<g id="edge1" class="edge">
<title>Documentable::DocPage::Index::Programs&#45;&gt;Documentable::DocPage</title>
<path fill="none" stroke="#000000" d="M336.42,-30.62C372.45,-33.61 401.28,-36 401.28,-36 401.28,-36 1535.56,-72.88 1911.71,-85.11"/>
<polygon fill="#000000" stroke="#000000" points="1911.69,-88.61 1921.8,-85.44 1911.92,-81.62 1911.69,-88.61"/>
</g>
<!-- Documentable::DocPage::Index::Type -->
<g id="node3" class="node">
<title>Documentable::DocPage::Index::Type</title>
<g id="a_node3"><a xlink:href="/type/Documentable::DocPage::Index::Type" xlink:title="Documentable::DocPage::Index::Type">
<ellipse fill="none" stroke="#000000" cx="587.28" cy="-18" rx="176.57" ry="18"/>
<text text-anchor="middle" x="587.28" y="-14.3" font-family="FreeSans" font-size="14.00" fill="#000000">Documentable::DocPage::Index::Type</text>
</a>
</g>
</g>
<!-- Documentable::DocPage::Index::Type&#45;&gt;Documentable::DocPage -->
<g id="edge2" class="edge">
<title>Documentable::DocPage::Index::Type&#45;&gt;Documentable::DocPage</title>
<path fill="none" stroke="#000000" d="M713.92,-30.57C746.85,-33.58 773.28,-36 773.28,-36 773.28,-36 1600.73,-70.86 1913.48,-84.04"/>
<polygon fill="#000000" stroke="#000000" points="1913.34,-87.53 1923.48,-84.46 1913.64,-80.54 1913.34,-87.53"/>
</g>
<!-- Documentable::DocPage::Primary::Language -->
<g id="node4" class="node">
<title>Documentable::DocPage::Primary::Language</title>
<g id="a_node4"><a xlink:href="/type/Documentable::DocPage::Primary::Language" xlink:title="Documentable::DocPage::Primary::Language">
<ellipse fill="none" stroke="#000000" cx="988.28" cy="-18" rx="206.06" ry="18"/>
<text text-anchor="middle" x="988.28" y="-14.3" font-family="FreeSans" font-size="14.00" fill="#000000">Documentable::DocPage::Primary::Language</text>
</a>
</g>
</g>
<!-- Documentable::DocPage::Primary::Language&#45;&gt;Documentable::DocPage -->
<g id="edge3" class="edge">
<title>Documentable::DocPage::Primary::Language&#45;&gt;Documentable::DocPage</title>
<path fill="none" stroke="#000000" d="M1135.26,-30.62C1173.05,-33.61 1203.28,-36 1203.28,-36 1203.28,-36 1691.63,-67.26 1918.25,-81.76"/>
<polygon fill="#000000" stroke="#000000" points="1918.3,-85.28 1928.51,-82.42 1918.75,-78.29 1918.3,-85.28"/>
</g>
<!-- Documentable::DocPage::SubIndex::Routine -->
<g id="node5" class="node">
<title>Documentable::DocPage::SubIndex::Routine</title>
<g id="a_node5"><a xlink:href="/type/Documentable::DocPage::SubIndex::Routine" xlink:title="Documentable::DocPage::SubIndex::Routine">
<ellipse fill="none" stroke="#000000" cx="1418.28" cy="-18" rx="206.06" ry="18"/>
<text text-anchor="middle" x="1418.28" y="-14.3" font-family="FreeSans" font-size="14.00" fill="#000000">Documentable::DocPage::SubIndex::Routine</text>
</a>
</g>
</g>
<!-- Documentable::DocPage::SubIndex::Routine&#45;&gt;Documentable::DocPage -->
<g id="edge4" class="edge">
<title>Documentable::DocPage::SubIndex::Routine&#45;&gt;Documentable::DocPage</title>
<path fill="none" stroke="#000000" d="M1537.93,-32.66C1652.86,-45.79 1824.48,-65.38 1932.03,-77.67"/>
<polygon fill="#000000" stroke="#000000" points="1931.91,-81.17 1942.24,-78.83 1932.7,-74.22 1931.91,-81.17"/>
</g>
<!-- Documentable::DocPage::Index::Routine -->
<g id="node6" class="node">
<title>Documentable::DocPage::Index::Routine</title>
<g id="a_node6"><a xlink:href="/type/Documentable::DocPage::Index::Routine" xlink:title="Documentable::DocPage::Index::Routine">
<ellipse fill="none" stroke="#000000" cx="1833.28" cy="-18" rx="191.17" ry="18"/>
<text text-anchor="middle" x="1833.28" y="-14.3" font-family="FreeSans" font-size="14.00" fill="#000000">Documentable::DocPage::Index::Routine</text>
</a>
</g>
</g>
<!-- Documentable::DocPage::Index::Routine&#45;&gt;Documentable::DocPage -->
<g id="edge5" class="edge">
<title>Documentable::DocPage::Index::Routine&#45;&gt;Documentable::DocPage</title>
<path fill="none" stroke="#000000" d="M1879.96,-35.5C1909.15,-45.82 1946.87,-59.16 1977.34,-69.93"/>
<polygon fill="#000000" stroke="#000000" points="1976.37,-73.3 1986.96,-73.33 1978.7,-66.7 1976.37,-73.3"/>
</g>
<!-- Documentable::DocPage::Primary::Type -->
<g id="node7" class="node">
<title>Documentable::DocPage::Primary::Type</title>
<g id="a_node7"><a xlink:href="/type/Documentable::DocPage::Primary::Type" xlink:title="Documentable::DocPage::Primary::Type">
<ellipse fill="none" stroke="#000000" cx="2229.28" cy="-18" rx="186.57" ry="18"/>
<text text-anchor="middle" x="2229.28" y="-14.3" font-family="FreeSans" font-size="14.00" fill="#000000">Documentable::DocPage::Primary::Type</text>
</a>
</g>
</g>
<!-- Documentable::DocPage::Primary::Type&#45;&gt;Documentable::DocPage -->
<g id="edge6" class="edge">
<title>Documentable::DocPage::Primary::Type&#45;&gt;Documentable::DocPage</title>
<path fill="none" stroke="#000000" d="M2182.61,-35.5C2153.41,-45.82 2115.7,-59.16 2085.22,-69.93"/>
<polygon fill="#000000" stroke="#000000" points="2083.86,-66.7 2075.6,-73.33 2086.2,-73.3 2083.86,-66.7"/>
</g>
<!-- Documentable::DocPage::Secondary -->
<g id="node8" class="node">
<title>Documentable::DocPage::Secondary</title>
<g id="a_node8"><a xlink:href="/type/Documentable::DocPage::Secondary" xlink:title="Documentable::DocPage::Secondary">
<ellipse fill="none" stroke="#000000" cx="2601.28" cy="-18" rx="167.07" ry="18"/>
<text text-anchor="middle" x="2601.28" y="-14.3" font-family="FreeSans" font-size="14.00" fill="#000000">Documentable::DocPage::Secondary</text>
</a>
</g>
</g>
<!-- Documentable::DocPage::Secondary&#45;&gt;Documentable::DocPage -->
<g id="edge7" class="edge">
<title>Documentable::DocPage::Secondary&#45;&gt;Documentable::DocPage</title>
<path fill="none" stroke="#000000" d="M2495.74,-31.96C2390.47,-44.89 2230.13,-64.58 2128.06,-77.12"/>
<polygon fill="#000000" stroke="#000000" points="2127.56,-73.65 2118.06,-78.34 2128.41,-80.6 2127.56,-73.65"/>
</g>
<!-- Documentable::DocPage::Index::Language -->
<g id="node9" class="node">
<title>Documentable::DocPage::Index::Language</title>
<g id="a_node9"><a xlink:href="/type/Documentable::DocPage::Index::Language" xlink:title="Documentable::DocPage::Index::Language">
<ellipse fill="none" stroke="#000000" cx="2982.28" cy="-18" rx="196.07" ry="18"/>
<text text-anchor="middle" x="2982.28" y="-14.3" font-family="FreeSans" font-size="14.00" fill="#000000">Documentable::DocPage::Index::Language</text>
</a>
</g>
</g>
<!-- Documentable::DocPage::Index::Language&#45;&gt;Documentable::DocPage -->
<g id="edge8" class="edge">
<title>Documentable::DocPage::Index::Language&#45;&gt;Documentable::DocPage</title>
<path fill="none" stroke="#000000" d="M2842.15,-30.62C2806.11,-33.61 2777.28,-36 2777.28,-36 2777.28,-36 2350.18,-66.34 2142.31,-81.11"/>
<polygon fill="#000000" stroke="#000000" points="2142.01,-77.62 2132.28,-81.82 2142.5,-84.61 2142.01,-77.62"/>
</g>
<!-- Documentable::DocPage::Primary::Programs -->
<g id="node10" class="node">
<title>Documentable::DocPage::Primary::Programs</title>
<g id="a_node10"><a xlink:href="/type/Documentable::DocPage::Primary::Programs" xlink:title="Documentable::DocPage::Primary::Programs">
<ellipse fill="none" stroke="#000000" cx="3402.28" cy="-18" rx="206.06" ry="18"/>
<text text-anchor="middle" x="3402.28" y="-14.3" font-family="FreeSans" font-size="14.00" fill="#000000">Documentable::DocPage::Primary::Programs</text>
</a>
</g>
</g>
<!-- Documentable::DocPage::Primary::Programs&#45;&gt;Documentable::DocPage -->
<g id="edge9" class="edge">
<title>Documentable::DocPage::Primary::Programs&#45;&gt;Documentable::DocPage</title>
<path fill="none" stroke="#000000" d="M3255.31,-30.62C3217.52,-33.61 3187.28,-36 3187.28,-36 3187.28,-36 2442.37,-70.15 2148.48,-83.63"/>
<polygon fill="#000000" stroke="#000000" points="2148.05,-80.14 2138.22,-84.1 2148.37,-87.14 2148.05,-80.14"/>
</g>
<!-- Documentable::DocPage::SubIndex::Type -->
<g id="node11" class="node">
<title>Documentable::DocPage::SubIndex::Type</title>
<g id="a_node11"><a xlink:href="/type/Documentable::DocPage::SubIndex::Type" xlink:title="Documentable::DocPage::SubIndex::Type">
<ellipse fill="none" stroke="#000000" cx="3817.28" cy="-18" rx="191.17" ry="18"/>
<text text-anchor="middle" x="3817.28" y="-14.3" font-family="FreeSans" font-size="14.00" fill="#000000">Documentable::DocPage::SubIndex::Type</text>
</a>
</g>
</g>
<!-- Documentable::DocPage::SubIndex::Type&#45;&gt;Documentable::DocPage -->
<g id="edge10" class="edge">
<title>Documentable::DocPage::SubIndex::Type&#45;&gt;Documentable::DocPage</title>
<path fill="none" stroke="#000000" d="M3680.56,-30.62C3645.41,-33.61 3617.28,-36 3617.28,-36 3617.28,-36 2519.92,-72.67 2150.78,-85.01"/>
<polygon fill="#000000" stroke="#000000" points="2150.48,-81.51 2140.61,-85.35 2150.72,-88.51 2150.48,-81.51"/>
</g>
</g>
</svg>
