<?xml version="1.0" encoding="UTF-8" standalone="no"?>
<!DOCTYPE svg PUBLIC "-//W3C//DTD SVG 1.1//EN"
 "http://www.w3.org/Graphics/SVG/1.1/DTD/svg11.dtd">
<!-- Generated by graphviz version 2.40.1 (0)
 -->
<!-- Title: perl6&#45;type&#45;graph Pages: 1 -->
<svg width="4016pt" height="116pt"
 viewBox="0.00 0.00 4016.06 116.00" xmlns="http://www.w3.org/2000/svg" xmlns:xlink="http://www.w3.org/1999/xlink">
<g id="graph0" class="graph" transform="scale(1 1) rotate(0) translate(4 112)">
<title>perl6&#45;type&#45;graph</title>
<polygon fill="#ffffff" stroke="transparent" points="-4,4 -4,-112 4012.0634,-112 4012.0634,4 -4,4"/>
<!-- Documentable::DocPage -->
<g id="node1" class="node">
<title>Documentable::DocPage</title>
<g id="a_node1"><a xlink:href="/type/Documentable::DocPage" xlink:title="Documentable::DocPage">
<ellipse fill="none" stroke="#6666ff" cx="2054.0317" cy="-90" rx="113.18" ry="18"/>
<text text-anchor="middle" x="2054.0317" y="-86.3" font-family="FreeSans" font-size="14.00" fill="#6666ff">Documentable::DocPage</text>
</a>
</g>
</g>
<!-- Documentable::DocPage::Primary::Programs -->
<g id="node2" class="node">
<title>Documentable::DocPage::Primary::Programs</title>
<g id="a_node2"><a xlink:href="/type/Documentable::DocPage::Primary::Programs" xlink:title="Documentable::DocPage::Primary::Programs">
<ellipse fill="none" stroke="#000000" cx="206.0317" cy="-18" rx="206.0634" ry="18"/>
<text text-anchor="middle" x="206.0317" y="-14.3" font-family="FreeSans" font-size="14.00" fill="#000000">Documentable::DocPage::Primary::Programs</text>
</a>
</g>
</g>
<!-- Documentable::DocPage::Primary::Programs&#45;&gt;Documentable::DocPage -->
<g id="edge1" class="edge">
<title>Documentable::DocPage::Primary::Programs&#45;&gt;Documentable::DocPage</title>
<path fill="none" stroke="#000000" d="M355.0635,-30.4771C391.8896,-33.5602 421.0317,-36 421.0317,-36 421.0317,-36 1554.7647,-73.4903 1932.9213,-85.9951"/>
<polygon fill="#000000" stroke="#000000" points="1932.9626,-89.4983 1943.0728,-86.3308 1933.194,-82.5021 1932.9626,-89.4983"/>
</g>
<!-- Documentable::DocPage::Primary::Language -->
<g id="node3" class="node">
<title>Documentable::DocPage::Primary::Language</title>
<g id="a_node3"><a xlink:href="/type/Documentable::DocPage::Primary::Language" xlink:title="Documentable::DocPage::Primary::Language">
<ellipse fill="none" stroke="#000000" cx="636.0317" cy="-18" rx="206.0634" ry="18"/>
<text text-anchor="middle" x="636.0317" y="-14.3" font-family="FreeSans" font-size="14.00" fill="#000000">Documentable::DocPage::Primary::Language</text>
</a>
</g>
</g>
<!-- Documentable::DocPage::Primary::Language&#45;&gt;Documentable::DocPage -->
<g id="edge2" class="edge">
<title>Documentable::DocPage::Primary::Language&#45;&gt;Documentable::DocPage</title>
<path fill="none" stroke="#000000" d="M785.0635,-30.4771C821.8896,-33.5602 851.0317,-36 851.0317,-36 851.0317,-36 1631.1994,-71.02 1934.9867,-84.6563"/>
<polygon fill="#000000" stroke="#000000" points="1935.0048,-88.1606 1945.1517,-85.1126 1935.3188,-81.1676 1935.0048,-88.1606"/>
</g>
<!-- Documentable::DocPage::SubIndex::Type -->
<g id="node4" class="node">
<title>Documentable::DocPage::SubIndex::Type</title>
<g id="a_node4"><a xlink:href="/type/Documentable::DocPage::SubIndex::Type" xlink:title="Documentable::DocPage::SubIndex::Type">
<ellipse fill="none" stroke="#000000" cx="1051.0317" cy="-18" rx="191.1661" ry="18"/>
<text text-anchor="middle" x="1051.0317" y="-14.3" font-family="FreeSans" font-size="14.00" fill="#000000">Documentable::DocPage::SubIndex::Type</text>
</a>
</g>
</g>
<!-- Documentable::DocPage::SubIndex::Type&#45;&gt;Documentable::DocPage -->
<g id="edge3" class="edge">
<title>Documentable::DocPage::SubIndex::Type&#45;&gt;Documentable::DocPage</title>
<path fill="none" stroke="#000000" d="M1189.3932,-30.4525C1223.7788,-33.5472 1251.0317,-36 1251.0317,-36 1251.0317,-36 1717.5472,-67.3721 1939.4116,-82.292"/>
<polygon fill="#000000" stroke="#000000" points="1939.2531,-85.7892 1949.4654,-82.9681 1939.7228,-78.805 1939.2531,-85.7892"/>
</g>
<!-- Documentable::DocPage::Index::Language -->
<g id="node5" class="node">
<title>Documentable::DocPage::Index::Language</title>
<g id="a_node5"><a xlink:href="/type/Documentable::DocPage::Index::Language" xlink:title="Documentable::DocPage::Index::Language">
<ellipse fill="none" stroke="#000000" cx="1456.0317" cy="-18" rx="196.0654" ry="18"/>
<text text-anchor="middle" x="1456.0317" y="-14.3" font-family="FreeSans" font-size="14.00" fill="#000000">Documentable::DocPage::Index::Language</text>
</a>
</g>
</g>
<!-- Documentable::DocPage::Index::Language&#45;&gt;Documentable::DocPage -->
<g id="edge4" class="edge">
<title>Documentable::DocPage::Index::Language&#45;&gt;Documentable::DocPage</title>
<path fill="none" stroke="#000000" d="M1575.2503,-32.3541C1686.046,-45.694 1849.2269,-65.3412 1953.5634,-77.9035"/>
<polygon fill="#000000" stroke="#000000" points="1953.44,-81.4138 1963.7867,-79.1344 1954.2768,-74.464 1953.44,-81.4138"/>
</g>
<!-- Documentable::DocPage::Index::Routine -->
<g id="node6" class="node">
<title>Documentable::DocPage::Index::Routine</title>
<g id="a_node6"><a xlink:href="/type/Documentable::DocPage::Index::Routine" xlink:title="Documentable::DocPage::Index::Routine">
<ellipse fill="none" stroke="#000000" cx="1861.0317" cy="-18" rx="191.1661" ry="18"/>
<text text-anchor="middle" x="1861.0317" y="-14.3" font-family="FreeSans" font-size="14.00" fill="#000000">Documentable::DocPage::Index::Routine</text>
</a>
</g>
</g>
<!-- Documentable::DocPage::Index::Routine&#45;&gt;Documentable::DocPage -->
<g id="edge5" class="edge">
<title>Documentable::DocPage::Index::Routine&#45;&gt;Documentable::DocPage</title>
<path fill="none" stroke="#000000" d="M1908.2448,-35.6132C1936.0175,-45.974 1971.2354,-59.1122 2000.099,-69.88"/>
<polygon fill="#000000" stroke="#000000" points="1999.0313,-73.2173 2009.624,-73.4334 2001.4781,-66.6588 1999.0313,-73.2173"/>
</g>
<!-- Documentable::DocPage::Index::Type -->
<g id="node7" class="node">
<title>Documentable::DocPage::Index::Type</title>
<g id="a_node7"><a xlink:href="/type/Documentable::DocPage::Index::Type" xlink:title="Documentable::DocPage::Index::Type">
<ellipse fill="none" stroke="#000000" cx="2247.0317" cy="-18" rx="176.5689" ry="18"/>
<text text-anchor="middle" x="2247.0317" y="-14.3" font-family="FreeSans" font-size="14.00" fill="#000000">Documentable::DocPage::Index::Type</text>
</a>
</g>
</g>
<!-- Documentable::DocPage::Index::Type&#45;&gt;Documentable::DocPage -->
<g id="edge6" class="edge">
<title>Documentable::DocPage::Index::Type&#45;&gt;Documentable::DocPage</title>
<path fill="none" stroke="#000000" d="M2200.3118,-35.4292C2172.5481,-45.7866 2137.214,-58.9683 2108.2285,-69.7815"/>
<polygon fill="#000000" stroke="#000000" points="2106.808,-66.5757 2098.6621,-73.3503 2109.2547,-73.1342 2106.808,-66.5757"/>
</g>
<!-- Documentable::DocPage::Secondary -->
<g id="node8" class="node">
<title>Documentable::DocPage::Secondary</title>
<g id="a_node8"><a xlink:href="/type/Documentable::DocPage::Secondary" xlink:title="Documentable::DocPage::Secondary">
<ellipse fill="none" stroke="#000000" cx="2609.0317" cy="-18" rx="167.0704" ry="18"/>
<text text-anchor="middle" x="2609.0317" y="-14.3" font-family="FreeSans" font-size="14.00" fill="#000000">Documentable::DocPage::Secondary</text>
</a>
</g>
</g>
<!-- Documentable::DocPage::Secondary&#45;&gt;Documentable::DocPage -->
<g id="edge7" class="edge">
<title>Documentable::DocPage::Secondary&#45;&gt;Documentable::DocPage</title>
<path fill="none" stroke="#000000" d="M2502.0221,-31.8823C2400.7644,-45.0185 2250.0596,-64.5694 2151.9141,-77.3017"/>
<polygon fill="#000000" stroke="#000000" points="2151.4589,-73.8314 2141.9923,-78.5889 2152.3595,-80.7732 2151.4589,-73.8314"/>
</g>
<!-- Documentable::DocPage::Index::Programs -->
<g id="node9" class="node">
<title>Documentable::DocPage::Index::Programs</title>
<g id="a_node9"><a xlink:href="/type/Documentable::DocPage::Index::Programs" xlink:title="Documentable::DocPage::Index::Programs">
<ellipse fill="none" stroke="#000000" cx="2990.0317" cy="-18" rx="196.0654" ry="18"/>
<text text-anchor="middle" x="2990.0317" y="-14.3" font-family="FreeSans" font-size="14.00" fill="#000000">Documentable::DocPage::Index::Programs</text>
</a>
</g>
</g>
<!-- Documentable::DocPage::Index::Programs&#45;&gt;Documentable::DocPage -->
<g id="edge8" class="edge">
<title>Documentable::DocPage::Index::Programs&#45;&gt;Documentable::DocPage</title>
<path fill="none" stroke="#000000" d="M2848.2112,-30.4525C2812.966,-33.5472 2785.0317,-36 2785.0317,-36 2785.0317,-36 2372.2265,-66.4945 2167.0408,-81.6519"/>
<polygon fill="#000000" stroke="#000000" points="2166.5445,-78.1789 2156.8295,-82.4062 2167.0602,-85.1599 2166.5445,-78.1789"/>
</g>
<!-- Documentable::DocPage::Primary::Type -->
<g id="node10" class="node">
<title>Documentable::DocPage::Primary::Type</title>
<g id="a_node10"><a xlink:href="/type/Documentable::DocPage::Primary::Type" xlink:title="Documentable::DocPage::Primary::Type">
<ellipse fill="none" stroke="#000000" cx="3391.0317" cy="-18" rx="186.5669" ry="18"/>
<text text-anchor="middle" x="3391.0317" y="-14.3" font-family="FreeSans" font-size="14.00" fill="#000000">Documentable::DocPage::Primary::Type</text>
</a>
</g>
</g>
<!-- Documentable::DocPage::Primary::Type&#45;&gt;Documentable::DocPage -->
<g id="edge9" class="edge">
<title>Documentable::DocPage::Primary::Type&#45;&gt;Documentable::DocPage</title>
<path fill="none" stroke="#000000" d="M3255.7051,-30.428C3221.8811,-33.5342 3195.0317,-36 3195.0317,-36 3195.0317,-36 2465.0804,-70.5463 2172.869,-84.3758"/>
<polygon fill="#000000" stroke="#000000" points="2172.484,-80.89 2162.6607,-84.8589 2172.815,-87.8822 2172.484,-80.89"/>
</g>
<!-- Documentable::DocPage::SubIndex::Routine -->
<g id="node11" class="node">
<title>Documentable::DocPage::SubIndex::Routine</title>
<g id="a_node11"><a xlink:href="/type/Documentable::DocPage::SubIndex::Routine" xlink:title="Documentable::DocPage::SubIndex::Routine">
<ellipse fill="none" stroke="#000000" cx="3802.0317" cy="-18" rx="206.0634" ry="18"/>
<text text-anchor="middle" x="3802.0317" y="-14.3" font-family="FreeSans" font-size="14.00" fill="#000000">Documentable::DocPage::SubIndex::Routine</text>
</a>
</g>
</g>
<!-- Documentable::DocPage::SubIndex::Routine&#45;&gt;Documentable::DocPage -->
<g id="edge10" class="edge">
<title>Documentable::DocPage::SubIndex::Routine&#45;&gt;Documentable::DocPage</title>
<path fill="none" stroke="#000000" d="M3652.9999,-30.4771C3616.1738,-33.5602 3587.0317,-36 3587.0317,-36 3587.0317,-36 2536.7007,-72.998 2174.833,-85.7448"/>
<polygon fill="#000000" stroke="#000000" points="2174.46,-82.2556 2164.5895,-86.1056 2174.7065,-89.2513 2174.46,-82.2556"/>
</g>
</g>
</svg>
