<?xml version="1.0" encoding="UTF-8" standalone="no"?>
<!DOCTYPE svg PUBLIC "-//W3C//DTD SVG 1.1//EN"
 "http://www.w3.org/Graphics/SVG/1.1/DTD/svg11.dtd">
<!-- Generated by graphviz version 2.42.3 ()
 -->
<!-- Title: perl6&#45;type&#45;graph Pages: 1 -->
<svg width="722pt" height="188pt"
 viewBox="0.00 0.00 722.18 188.00" xmlns="http://www.w3.org/2000/svg" xmlns:xlink="http://www.w3.org/1999/xlink">
<g id="graph0" class="graph" transform="scale(1 1) rotate(0) translate(4 184)">
<title>perl6&#45;type&#45;graph</title>
<polygon fill="white" stroke="transparent" points="-4,4 -4,-184 718.18,-184 718.18,4 -4,4"/>
<!-- Documentable -->
<g id="node1" class="node">
<title>Documentable</title>
<g id="a_node1"><a xlink:href="/type/Documentable" xlink:title="Documentable">
<ellipse fill="none" stroke="#000000" cx="376.84" cy="-90" rx="69.59" ry="18"/>
<text text-anchor="middle" x="376.84" y="-86.3" font-family="FreeSans" font-size="14.00" fill="#000000">Documentable</text>
</a>
</g>
</g>
<!-- Any -->
<g id="node2" class="node">
<title>Any</title>
<g id="a_node2"><a xlink:href="/type/Any" xlink:title="Any">
<ellipse fill="none" stroke="#000000" cx="376.84" cy="-162" rx="27" ry="18"/>
<text text-anchor="middle" x="376.84" y="-158.3" font-family="FreeSans" font-size="14.00" fill="#000000">Any</text>
</a>
</g>
</g>
<!-- Documentable&#45;&gt;Any -->
<g id="edge1" class="edge">
<title>Documentable&#45;&gt;Any</title>
<path fill="none" stroke="#000000" d="M376.84,-108.3C376.84,-116.02 376.84,-125.29 376.84,-133.89"/>
<polygon fill="#000000" stroke="#000000" points="373.34,-133.9 376.84,-143.9 380.34,-133.9 373.34,-133.9"/>
</g>
<!-- Documentable::Secondary -->
<g id="node3" class="node">
<title>Documentable::Secondary</title>
<g id="a_node3"><a xlink:href="/type/Documentable::Secondary" xlink:title="Documentable::Secondary">
<ellipse fill="none" stroke="#000000" cx="122.84" cy="-18" rx="122.68" ry="18"/>
<text text-anchor="middle" x="122.84" y="-14.3" font-family="FreeSans" font-size="14.00" fill="#000000">Documentable::Secondary</text>
</a>
</g>
</g>
<!-- Documentable::Secondary&#45;&gt;Documentable -->
<g id="edge2" class="edge">
<title>Documentable::Secondary&#45;&gt;Documentable</title>
<path fill="none" stroke="#000000" d="M177.95,-34.19C220.37,-45.88 278.73,-61.96 321.26,-73.68"/>
<polygon fill="#000000" stroke="#000000" points="320.6,-77.13 331.17,-76.41 322.46,-70.38 320.6,-77.13"/>
</g>
<!-- Documentable::Primary -->
<g id="node4" class="node">
<title>Documentable::Primary</title>
<g id="a_node4"><a xlink:href="/type/Documentable::Primary" xlink:title="Documentable::Primary">
<ellipse fill="none" stroke="#000000" cx="376.84" cy="-18" rx="113.18" ry="18"/>
<text text-anchor="middle" x="376.84" y="-14.3" font-family="FreeSans" font-size="14.00" fill="#000000">Documentable::Primary</text>
</a>
</g>
</g>
<!-- Documentable::Primary&#45;&gt;Documentable -->
<g id="edge3" class="edge">
<title>Documentable::Primary&#45;&gt;Documentable</title>
<path fill="none" stroke="#000000" d="M376.84,-36.3C376.84,-44.02 376.84,-53.29 376.84,-61.89"/>
<polygon fill="#000000" stroke="#000000" points="373.34,-61.9 376.84,-71.9 380.34,-61.9 373.34,-61.9"/>
</g>
<!-- Documentable::Index -->
<g id="node5" class="node">
<title>Documentable::Index</title>
<g id="a_node5"><a xlink:href="/type/Documentable::Index" xlink:title="Documentable::Index">
<ellipse fill="none" stroke="#000000" cx="610.84" cy="-18" rx="103.18" ry="18"/>
<text text-anchor="middle" x="610.84" y="-14.3" font-family="FreeSans" font-size="14.00" fill="#000000">Documentable::Index</text>
</a>
</g>
</g>
<!-- Documentable::Index&#45;&gt;Documentable -->
<g id="edge4" class="edge">
<title>Documentable::Index&#45;&gt;Documentable</title>
<path fill="none" stroke="#000000" d="M561.21,-33.85C522.75,-45.35 469.55,-61.27 430.18,-73.04"/>
<polygon fill="#000000" stroke="#000000" points="429.06,-69.72 420.48,-75.94 431.07,-76.43 429.06,-69.72"/>
</g>
</g>
</svg>
