<?xml version="1.0" encoding="UTF-8" standalone="no"?>
<!DOCTYPE svg PUBLIC "-//W3C//DTD SVG 1.1//EN"
 "http://www.w3.org/Graphics/SVG/1.1/DTD/svg11.dtd">
<!-- Generated by graphviz version 2.42.3 ()
 -->
<!-- Title: perl6&#45;type&#45;graph Pages: 1 -->
<svg width="4016pt" height="116pt"
 viewBox="0.00 0.00 4016.07 116.00" xmlns="http://www.w3.org/2000/svg" xmlns:xlink="http://www.w3.org/1999/xlink">
<g id="graph0" class="graph" transform="scale(1 1) rotate(0) translate(4 112)">
<title>perl6&#45;type&#45;graph</title>
<polygon fill="white" stroke="transparent" points="-4,4 -4,-112 4012.07,-112 4012.07,4 -4,4"/>
<!-- Documentable::DocPage -->
<g id="node1" class="node">
<title>Documentable::DocPage</title>
<g id="a_node1"><a xlink:href="/type/Documentable::DocPage" xlink:title="Documentable::DocPage">
<ellipse fill="none" stroke="#6666ff" cx="2020.28" cy="-90" rx="113.18" ry="18"/>
<text text-anchor="middle" x="2020.28" y="-86.3" font-family="FreeSans" font-size="14.00" fill="#6666ff">Documentable::DocPage</text>
</a>
</g>
</g>
<!-- Documentable::DocPage::Index::Programs -->
<g id="node2" class="node">
<title>Documentable::DocPage::Index::Programs</title>
<g id="a_node2"><a xlink:href="/type/Documentable::DocPage::Index::Programs" xlink:title="Documentable::DocPage::Index::Programs">
<ellipse fill="none" stroke="#000000" cx="196.28" cy="-18" rx="196.07" ry="18"/>
<text text-anchor="middle" x="196.28" y="-14.3" font-family="FreeSans" font-size="14.00" fill="#000000">Documentable::DocPage::Index::Programs</text>
</a>
</g>
</g>
<!-- Documentable::DocPage::Index::Programs&#45;&gt;Documentable::DocPage -->
<g id="edge1" class="edge">
<title>Documentable::DocPage::Index::Programs&#45;&gt;Documentable::DocPage</title>
<path fill="none" stroke="#000000" d="M336.42,-30.62C372.45,-33.61 401.28,-36 401.28,-36 401.28,-36 1526.6,-72.84 1900.86,-85.09"/>
<polygon fill="#000000" stroke="#000000" points="1900.8,-88.59 1910.91,-85.42 1901.03,-81.59 1900.8,-88.59"/>
</g>
<!-- Documentable::DocPage::Primary::Programs -->
<g id="node3" class="node">
<title>Documentable::DocPage::Primary::Programs</title>
<g id="a_node3"><a xlink:href="/type/Documentable::DocPage::Primary::Programs" xlink:title="Documentable::DocPage::Primary::Programs">
<ellipse fill="none" stroke="#000000" cx="616.28" cy="-18" rx="206.06" ry="18"/>
<text text-anchor="middle" x="616.28" y="-14.3" font-family="FreeSans" font-size="14.00" fill="#000000">Documentable::DocPage::Primary::Programs</text>
</a>
</g>
</g>
<!-- Documentable::DocPage::Primary::Programs&#45;&gt;Documentable::DocPage -->
<g id="edge2" class="edge">
<title>Documentable::DocPage::Primary::Programs&#45;&gt;Documentable::DocPage</title>
<path fill="none" stroke="#000000" d="M763.26,-30.62C801.05,-33.61 831.28,-36 831.28,-36 831.28,-36 1602.83,-70.39 1902.89,-83.77"/>
<polygon fill="#000000" stroke="#000000" points="1902.79,-87.27 1912.93,-84.21 1903.1,-80.27 1902.79,-87.27"/>
</g>
<!-- Documentable::DocPage::Primary::Language -->
<g id="node4" class="node">
<title>Documentable::DocPage::Primary::Language</title>
<g id="a_node4"><a xlink:href="/type/Documentable::DocPage::Primary::Language" xlink:title="Documentable::DocPage::Primary::Language">
<ellipse fill="none" stroke="#000000" cx="1046.28" cy="-18" rx="206.06" ry="18"/>
<text text-anchor="middle" x="1046.28" y="-14.3" font-family="FreeSans" font-size="14.00" fill="#000000">Documentable::DocPage::Primary::Language</text>
</a>
</g>
</g>
<!-- Documentable::DocPage::Primary::Language&#45;&gt;Documentable::DocPage -->
<g id="edge3" class="edge">
<title>Documentable::DocPage::Primary::Language&#45;&gt;Documentable::DocPage</title>
<path fill="none" stroke="#000000" d="M1193.26,-30.62C1231.05,-33.61 1261.28,-36 1261.28,-36 1261.28,-36 1698.04,-66.5 1908.92,-81.22"/>
<polygon fill="#000000" stroke="#000000" points="1908.88,-84.73 1919.1,-81.93 1909.37,-77.75 1908.88,-84.73"/>
</g>
<!-- Documentable::DocPage::Secondary -->
<g id="node5" class="node">
<title>Documentable::DocPage::Secondary</title>
<g id="a_node5"><a xlink:href="/type/Documentable::DocPage::Secondary" xlink:title="Documentable::DocPage::Secondary">
<ellipse fill="none" stroke="#000000" cx="1437.28" cy="-18" rx="167.07" ry="18"/>
<text text-anchor="middle" x="1437.28" y="-14.3" font-family="FreeSans" font-size="14.00" fill="#000000">Documentable::DocPage::Secondary</text>
</a>
</g>
</g>
<!-- Documentable::DocPage::Secondary&#45;&gt;Documentable::DocPage -->
<g id="edge4" class="edge">
<title>Documentable::DocPage::Secondary&#45;&gt;Documentable::DocPage</title>
<path fill="none" stroke="#000000" d="M1544.21,-31.84C1652.49,-44.84 1818.47,-64.77 1923.11,-77.33"/>
<polygon fill="#000000" stroke="#000000" points="1922.7,-80.81 1933.04,-78.53 1923.53,-73.86 1922.7,-80.81"/>
</g>
<!-- Documentable::DocPage::SubIndex::Type -->
<g id="node6" class="node">
<title>Documentable::DocPage::SubIndex::Type</title>
<g id="a_node6"><a xlink:href="/type/Documentable::DocPage::SubIndex::Type" xlink:title="Documentable::DocPage::SubIndex::Type">
<ellipse fill="none" stroke="#000000" cx="1813.28" cy="-18" rx="191.17" ry="18"/>
<text text-anchor="middle" x="1813.28" y="-14.3" font-family="FreeSans" font-size="14.00" fill="#000000">Documentable::DocPage::SubIndex::Type</text>
</a>
</g>
</g>
<!-- Documentable::DocPage::SubIndex::Type&#45;&gt;Documentable::DocPage -->
<g id="edge5" class="edge">
<title>Documentable::DocPage::SubIndex::Type&#45;&gt;Documentable::DocPage</title>
<path fill="none" stroke="#000000" d="M1861.81,-35.41C1892.68,-45.85 1932.73,-59.39 1964.85,-70.25"/>
<polygon fill="#000000" stroke="#000000" points="1963.94,-73.64 1974.54,-73.53 1966.19,-67.01 1963.94,-73.64"/>
</g>
<!-- Documentable::DocPage::SubIndex::Routine -->
<g id="node7" class="node">
<title>Documentable::DocPage::SubIndex::Routine</title>
<g id="a_node7"><a xlink:href="/type/Documentable::DocPage::SubIndex::Routine" xlink:title="Documentable::DocPage::SubIndex::Routine">
<ellipse fill="none" stroke="#000000" cx="2228.28" cy="-18" rx="206.06" ry="18"/>
<text text-anchor="middle" x="2228.28" y="-14.3" font-family="FreeSans" font-size="14.00" fill="#000000">Documentable::DocPage::SubIndex::Routine</text>
</a>
</g>
</g>
<!-- Documentable::DocPage::SubIndex::Routine&#45;&gt;Documentable::DocPage -->
<g id="edge6" class="edge">
<title>Documentable::DocPage::SubIndex::Routine&#45;&gt;Documentable::DocPage</title>
<path fill="none" stroke="#000000" d="M2179.25,-35.5C2148.34,-45.9 2108.34,-59.37 2076.19,-70.18"/>
<polygon fill="#000000" stroke="#000000" points="2074.85,-66.94 2066.49,-73.45 2077.08,-73.58 2074.85,-66.94"/>
</g>
<!-- Documentable::DocPage::Index::Language -->
<g id="node8" class="node">
<title>Documentable::DocPage::Index::Language</title>
<g id="a_node8"><a xlink:href="/type/Documentable::DocPage::Index::Language" xlink:title="Documentable::DocPage::Index::Language">
<ellipse fill="none" stroke="#000000" cx="2648.28" cy="-18" rx="196.07" ry="18"/>
<text text-anchor="middle" x="2648.28" y="-14.3" font-family="FreeSans" font-size="14.00" fill="#000000">Documentable::DocPage::Index::Language</text>
</a>
</g>
</g>
<!-- Documentable::DocPage::Index::Language&#45;&gt;Documentable::DocPage -->
<g id="edge7" class="edge">
<title>Documentable::DocPage::Index::Language&#45;&gt;Documentable::DocPage</title>
<path fill="none" stroke="#000000" d="M2528.68,-32.33C2410.31,-45.53 2231.18,-65.49 2120.18,-77.86"/>
<polygon fill="#000000" stroke="#000000" points="2119.54,-74.41 2109.99,-79 2120.32,-81.37 2119.54,-74.41"/>
</g>
<!-- Documentable::DocPage::Primary::Type -->
<g id="node9" class="node">
<title>Documentable::DocPage::Primary::Type</title>
<g id="a_node9"><a xlink:href="/type/Documentable::DocPage::Primary::Type" xlink:title="Documentable::DocPage::Primary::Type">
<ellipse fill="none" stroke="#000000" cx="3049.28" cy="-18" rx="186.57" ry="18"/>
<text text-anchor="middle" x="3049.28" y="-14.3" font-family="FreeSans" font-size="14.00" fill="#000000">Documentable::DocPage::Primary::Type</text>
</a>
</g>
</g>
<!-- Documentable::DocPage::Primary::Type&#45;&gt;Documentable::DocPage -->
<g id="edge8" class="edge">
<title>Documentable::DocPage::Primary::Type&#45;&gt;Documentable::DocPage</title>
<path fill="none" stroke="#000000" d="M2915.57,-30.6C2880.99,-33.6 2853.28,-36 2853.28,-36 2853.28,-36 2361.37,-67.3 2133.57,-81.79"/>
<polygon fill="#000000" stroke="#000000" points="2133.02,-78.32 2123.26,-82.45 2133.46,-85.31 2133.02,-78.32"/>
</g>
<!-- Documentable::DocPage::Index::Routine -->
<g id="node10" class="node">
<title>Documentable::DocPage::Index::Routine</title>
<g id="a_node10"><a xlink:href="/type/Documentable::DocPage::Index::Routine" xlink:title="Documentable::DocPage::Index::Routine">
<ellipse fill="none" stroke="#000000" cx="3445.28" cy="-18" rx="191.17" ry="18"/>
<text text-anchor="middle" x="3445.28" y="-14.3" font-family="FreeSans" font-size="14.00" fill="#000000">Documentable::DocPage::Index::Routine</text>
</a>
</g>
</g>
<!-- Documentable::DocPage::Index::Routine&#45;&gt;Documentable::DocPage -->
<g id="edge9" class="edge">
<title>Documentable::DocPage::Index::Routine&#45;&gt;Documentable::DocPage</title>
<path fill="none" stroke="#000000" d="M3308.56,-30.62C3273.41,-33.61 3245.28,-36 3245.28,-36 3245.28,-36 2445.12,-70.62 2138.19,-83.9"/>
<polygon fill="#000000" stroke="#000000" points="2137.76,-80.41 2127.92,-84.34 2138.06,-87.41 2137.76,-80.41"/>
</g>
<!-- Documentable::DocPage::Index::Type -->
<g id="node11" class="node">
<title>Documentable::DocPage::Index::Type</title>
<g id="a_node11"><a xlink:href="/type/Documentable::DocPage::Index::Type" xlink:title="Documentable::DocPage::Index::Type">
<ellipse fill="none" stroke="#000000" cx="3831.28" cy="-18" rx="176.57" ry="18"/>
<text text-anchor="middle" x="3831.28" y="-14.3" font-family="FreeSans" font-size="14.00" fill="#000000">Documentable::DocPage::Index::Type</text>
</a>
</g>
</g>
<!-- Documentable::DocPage::Index::Type&#45;&gt;Documentable::DocPage -->
<g id="edge10" class="edge">
<title>Documentable::DocPage::Index::Type&#45;&gt;Documentable::DocPage</title>
<path fill="none" stroke="#000000" d="M3704.65,-30.57C3671.71,-33.58 3645.28,-36 3645.28,-36 3645.28,-36 2515.14,-72.86 2139.82,-85.1"/>
<polygon fill="#000000" stroke="#000000" points="2139.62,-81.61 2129.74,-85.43 2139.85,-88.6 2139.62,-81.61"/>
</g>
</g>
</svg>
