<?xml version="1.0" encoding="UTF-8" standalone="no"?>
<!DOCTYPE svg PUBLIC "-//W3C//DTD SVG 1.1//EN"
 "http://www.w3.org/Graphics/SVG/1.1/DTD/svg11.dtd">
<!-- Generated by graphviz version 2.40.1 (0)
 -->
<!-- Title: perl6&#45;type&#45;graph Pages: 1 -->
<svg width="4016pt" height="116pt"
 viewBox="0.00 0.00 4016.32 116.00" xmlns="http://www.w3.org/2000/svg" xmlns:xlink="http://www.w3.org/1999/xlink">
<g id="graph0" class="graph" transform="scale(1 1) rotate(0) translate(4 112)">
<title>perl6&#45;type&#45;graph</title>
<polygon fill="#ffffff" stroke="transparent" points="-4,4 -4,-112 4012.3178,-112 4012.3178,4 -4,4"/>
<!-- Documentable::DocPage -->
<g id="node1" class="node">
<title>Documentable::DocPage</title>
<g id="a_node1"><a xlink:href="/type/Documentable::DocPage" xlink:title="Documentable::DocPage">
<ellipse fill="none" stroke="#6666ff" cx="2003.0352" cy="-90" rx="113.18" ry="18"/>
<text text-anchor="middle" x="2003.0352" y="-86.3" font-family="FreeSans" font-size="14.00" fill="#6666ff">Documentable::DocPage</text>
</a>
</g>
</g>
<!-- Documentable::DocPage::Secondary -->
<g id="node2" class="node">
<title>Documentable::DocPage::Secondary</title>
<g id="a_node2"><a xlink:href="/type/Documentable::DocPage::Secondary" xlink:title="Documentable::DocPage::Secondary">
<ellipse fill="none" stroke="#000000" cx="167.0352" cy="-18" rx="167.0704" ry="18"/>
<text text-anchor="middle" x="167.0352" y="-14.3" font-family="FreeSans" font-size="14.00" fill="#000000">Documentable::DocPage::Secondary</text>
</a>
</g>
</g>
<!-- Documentable::DocPage::Secondary&#45;&gt;Documentable::DocPage -->
<g id="edge1" class="edge">
<title>Documentable::DocPage::Secondary&#45;&gt;Documentable::DocPage</title>
<path fill="none" stroke="#000000" d="M288.3124,-30.4034C318.7981,-33.5212 343.0352,-36 343.0352,-36 343.0352,-36 1499.5324,-73.621 1881.9244,-86.0603"/>
<polygon fill="#000000" stroke="#000000" points="1882.0786,-89.567 1892.1871,-86.3941 1882.3063,-82.5707 1882.0786,-89.567"/>
</g>
<!-- Documentable::DocPage::Primary::Programs -->
<g id="node3" class="node">
<title>Documentable::DocPage::Primary::Programs</title>
<g id="a_node3"><a xlink:href="/type/Documentable::DocPage::Primary::Programs" xlink:title="Documentable::DocPage::Primary::Programs">
<ellipse fill="none" stroke="#000000" cx="558.0352" cy="-18" rx="206.0634" ry="18"/>
<text text-anchor="middle" x="558.0352" y="-14.3" font-family="FreeSans" font-size="14.00" fill="#000000">Documentable::DocPage::Primary::Programs</text>
</a>
</g>
</g>
<!-- Documentable::DocPage::Primary::Programs&#45;&gt;Documentable::DocPage -->
<g id="edge2" class="edge">
<title>Documentable::DocPage::Primary::Programs&#45;&gt;Documentable::DocPage</title>
<path fill="none" stroke="#000000" d="M707.067,-30.4771C743.8931,-33.5602 773.0352,-36 773.0352,-36 773.0352,-36 1574.5433,-71.1882 1883.5445,-84.7541"/>
<polygon fill="#000000" stroke="#000000" points="1883.737,-88.2658 1893.8809,-85.2079 1884.0441,-81.2725 1883.737,-88.2658"/>
</g>
<!-- Documentable::DocPage::Primary::Language -->
<g id="node4" class="node">
<title>Documentable::DocPage::Primary::Language</title>
<g id="a_node4"><a xlink:href="/type/Documentable::DocPage::Primary::Language" xlink:title="Documentable::DocPage::Primary::Language">
<ellipse fill="none" stroke="#000000" cx="988.0352" cy="-18" rx="206.0634" ry="18"/>
<text text-anchor="middle" x="988.0352" y="-14.3" font-family="FreeSans" font-size="14.00" fill="#000000">Documentable::DocPage::Primary::Language</text>
</a>
</g>
</g>
<!-- Documentable::DocPage::Primary::Language&#45;&gt;Documentable::DocPage -->
<g id="edge3" class="edge">
<title>Documentable::DocPage::Primary::Language&#45;&gt;Documentable::DocPage</title>
<path fill="none" stroke="#000000" d="M1137.067,-30.4771C1173.8931,-33.5602 1203.0352,-36 1203.0352,-36 1203.0352,-36 1667.8078,-67.3721 1888.8433,-82.292"/>
<polygon fill="#000000" stroke="#000000" points="1888.6465,-85.7866 1898.8595,-82.9681 1889.118,-78.8025 1888.6465,-85.7866"/>
</g>
<!-- Documentable::DocPage::SubIndex::Type -->
<g id="node5" class="node">
<title>Documentable::DocPage::SubIndex::Type</title>
<g id="a_node5"><a xlink:href="/type/Documentable::DocPage::SubIndex::Type" xlink:title="Documentable::DocPage::SubIndex::Type">
<ellipse fill="none" stroke="#000000" cx="1403.0352" cy="-18" rx="191.1661" ry="18"/>
<text text-anchor="middle" x="1403.0352" y="-14.3" font-family="FreeSans" font-size="14.00" fill="#000000">Documentable::DocPage::SubIndex::Type</text>
</a>
</g>
</g>
<!-- Documentable::DocPage::SubIndex::Type&#45;&gt;Documentable::DocPage -->
<g id="edge4" class="edge">
<title>Documentable::DocPage::SubIndex::Type&#45;&gt;Documentable::DocPage</title>
<path fill="none" stroke="#000000" d="M1521.2177,-32.1819C1632.5092,-45.5369 1797.4,-65.3238 1902.5236,-77.9386"/>
<polygon fill="#000000" stroke="#000000" points="1902.1606,-81.4201 1912.5064,-79.1366 1902.9947,-74.4699 1902.1606,-81.4201"/>
</g>
<!-- Documentable::DocPage::Index::Language -->
<g id="node6" class="node">
<title>Documentable::DocPage::Index::Language</title>
<g id="a_node6"><a xlink:href="/type/Documentable::DocPage::Index::Language" xlink:title="Documentable::DocPage::Index::Language">
<ellipse fill="none" stroke="#000000" cx="1808.0352" cy="-18" rx="196.0654" ry="18"/>
<text text-anchor="middle" x="1808.0352" y="-14.3" font-family="FreeSans" font-size="14.00" fill="#000000">Documentable::DocPage::Index::Language</text>
</a>
</g>
</g>
<!-- Documentable::DocPage::Index::Language&#45;&gt;Documentable::DocPage -->
<g id="edge5" class="edge">
<title>Documentable::DocPage::Index::Language&#45;&gt;Documentable::DocPage</title>
<path fill="none" stroke="#000000" d="M1855.7375,-35.6132C1883.798,-45.974 1919.3808,-59.1122 1948.5436,-69.88"/>
<polygon fill="#000000" stroke="#000000" points="1947.574,-73.2529 1958.1673,-73.4334 1949.9986,-66.6862 1947.574,-73.2529"/>
</g>
<!-- Documentable::DocPage::Index::Type -->
<g id="node7" class="node">
<title>Documentable::DocPage::Index::Type</title>
<g id="a_node7"><a xlink:href="/type/Documentable::DocPage::Index::Type" xlink:title="Documentable::DocPage::Index::Type">
<ellipse fill="none" stroke="#000000" cx="2199.0352" cy="-18" rx="176.5689" ry="18"/>
<text text-anchor="middle" x="2199.0352" y="-14.3" font-family="FreeSans" font-size="14.00" fill="#000000">Documentable::DocPage::Index::Type</text>
</a>
</g>
</g>
<!-- Documentable::DocPage::Index::Type&#45;&gt;Documentable::DocPage -->
<g id="edge6" class="edge">
<title>Documentable::DocPage::Index::Type&#45;&gt;Documentable::DocPage</title>
<path fill="none" stroke="#000000" d="M2151.589,-35.4292C2123.292,-45.824 2087.2512,-59.0635 2057.7558,-69.8985"/>
<polygon fill="#000000" stroke="#000000" points="2056.2044,-66.7397 2048.0246,-73.4733 2058.6182,-73.3104 2056.2044,-66.7397"/>
</g>
<!-- Documentable::DocPage::SubIndex::Routine -->
<g id="node8" class="node">
<title>Documentable::DocPage::SubIndex::Routine</title>
<g id="a_node8"><a xlink:href="/type/Documentable::DocPage::SubIndex::Routine" xlink:title="Documentable::DocPage::SubIndex::Routine">
<ellipse fill="none" stroke="#000000" cx="2600.0352" cy="-18" rx="206.0634" ry="18"/>
<text text-anchor="middle" x="2600.0352" y="-14.3" font-family="FreeSans" font-size="14.00" fill="#000000">Documentable::DocPage::SubIndex::Routine</text>
</a>
</g>
</g>
<!-- Documentable::DocPage::SubIndex::Routine&#45;&gt;Documentable::DocPage -->
<g id="edge7" class="edge">
<title>Documentable::DocPage::SubIndex::Routine&#45;&gt;Documentable::DocPage</title>
<path fill="none" stroke="#000000" d="M2478.8637,-32.6136C2368.3684,-45.9397 2207.0204,-65.3988 2103.5244,-77.8807"/>
<polygon fill="#000000" stroke="#000000" points="2102.8907,-74.4317 2093.3817,-79.1039 2103.7289,-81.3813 2102.8907,-74.4317"/>
</g>
<!-- Documentable::DocPage::Index::Routine -->
<g id="node9" class="node">
<title>Documentable::DocPage::Index::Routine</title>
<g id="a_node9"><a xlink:href="/type/Documentable::DocPage::Index::Routine" xlink:title="Documentable::DocPage::Index::Routine">
<ellipse fill="none" stroke="#000000" cx="3015.0352" cy="-18" rx="191.1661" ry="18"/>
<text text-anchor="middle" x="3015.0352" y="-14.3" font-family="FreeSans" font-size="14.00" fill="#000000">Documentable::DocPage::Index::Routine</text>
</a>
</g>
</g>
<!-- Documentable::DocPage::Index::Routine&#45;&gt;Documentable::DocPage -->
<g id="edge8" class="edge">
<title>Documentable::DocPage::Index::Routine&#45;&gt;Documentable::DocPage</title>
<path fill="none" stroke="#000000" d="M2876.6737,-30.4525C2842.2881,-33.5472 2815.0352,-36 2815.0352,-36 2815.0352,-36 2341.5035,-67.491 2117.6687,-82.3766"/>
<polygon fill="#000000" stroke="#000000" points="2117.2733,-78.8951 2107.5277,-83.051 2117.7379,-85.8796 2117.2733,-78.8951"/>
</g>
<!-- Documentable::DocPage::Primary::Type -->
<g id="node10" class="node">
<title>Documentable::DocPage::Primary::Type</title>
<g id="a_node10"><a xlink:href="/type/Documentable::DocPage::Primary::Type" xlink:title="Documentable::DocPage::Primary::Type">
<ellipse fill="none" stroke="#000000" cx="3411.0352" cy="-18" rx="186.5669" ry="18"/>
<text text-anchor="middle" x="3411.0352" y="-14.3" font-family="FreeSans" font-size="14.00" fill="#000000">Documentable::DocPage::Primary::Type</text>
</a>
</g>
</g>
<!-- Documentable::DocPage::Primary::Type&#45;&gt;Documentable::DocPage -->
<g id="edge9" class="edge">
<title>Documentable::DocPage::Primary::Type&#45;&gt;Documentable::DocPage</title>
<path fill="none" stroke="#000000" d="M3275.7085,-30.428C3241.8846,-33.5342 3215.0352,-36 3215.0352,-36 3215.0352,-36 2428.0881,-71.062 2122.4209,-84.6808"/>
<polygon fill="#000000" stroke="#000000" points="2122.0279,-81.1948 2112.1937,-85.1365 2122.3396,-88.1878 2122.0279,-81.1948"/>
</g>
<!-- Documentable::DocPage::Index::Programs -->
<g id="node11" class="node">
<title>Documentable::DocPage::Index::Programs</title>
<g id="a_node11"><a xlink:href="/type/Documentable::DocPage::Index::Programs" xlink:title="Documentable::DocPage::Index::Programs">
<ellipse fill="none" stroke="#000000" cx="3812.0352" cy="-18" rx="196.0654" ry="18"/>
<text text-anchor="middle" x="3812.0352" y="-14.3" font-family="FreeSans" font-size="14.00" fill="#000000">Documentable::DocPage::Index::Programs</text>
</a>
</g>
</g>
<!-- Documentable::DocPage::Index::Programs&#45;&gt;Documentable::DocPage -->
<g id="edge10" class="edge">
<title>Documentable::DocPage::Index::Programs&#45;&gt;Documentable::DocPage</title>
<path fill="none" stroke="#000000" d="M3670.2147,-30.4525C3634.9695,-33.5472 3607.0352,-36 3607.0352,-36 3607.0352,-36 2497.3126,-73.3597 2123.9429,-85.9295"/>
<polygon fill="#000000" stroke="#000000" points="2123.794,-82.4325 2113.9174,-86.2671 2124.0296,-89.4285 2123.794,-82.4325"/>
</g>
</g>
</svg>
