<?xml version="1.0" encoding="UTF-8" standalone="no"?>
<!DOCTYPE svg PUBLIC "-//W3C//DTD SVG 1.1//EN"
 "http://www.w3.org/Graphics/SVG/1.1/DTD/svg11.dtd">
<!-- Generated by graphviz version 2.42.3 ()
 -->
<!-- Title: perl6&#45;type&#45;graph Pages: 1 -->
<svg width="4015pt" height="116pt"
 viewBox="0.00 0.00 4015.12 116.00" xmlns="http://www.w3.org/2000/svg" xmlns:xlink="http://www.w3.org/1999/xlink">
<g id="graph0" class="graph" transform="scale(1 1) rotate(0) translate(4 112)">
<title>perl6&#45;type&#45;graph</title>
<polygon fill="white" stroke="transparent" points="-4,4 -4,-112 4011.12,-112 4011.12,4 -4,4"/>
<!-- Documentable::DocPage -->
<g id="node1" class="node">
<title>Documentable::DocPage</title>
<g id="a_node1"><a xlink:href="/type/Documentable::DocPage" xlink:title="Documentable::DocPage">
<ellipse fill="none" stroke="#6666ff" cx="2061.08" cy="-90" rx="113.18" ry="18"/>
<text text-anchor="middle" x="2061.08" y="-86.3" font-family="FreeSans" font-size="14.00" fill="#6666ff">Documentable::DocPage</text>
</a>
</g>
</g>
<!-- Documentable::DocPage::SubIndex::Type -->
<g id="node2" class="node">
<title>Documentable::DocPage::SubIndex::Type</title>
<g id="a_node2"><a xlink:href="/type/Documentable::DocPage::SubIndex::Type" xlink:title="Documentable::DocPage::SubIndex::Type">
<ellipse fill="none" stroke="#000000" cx="191.08" cy="-18" rx="191.17" ry="18"/>
<text text-anchor="middle" x="191.08" y="-14.3" font-family="FreeSans" font-size="14.00" fill="#000000">Documentable::DocPage::SubIndex::Type</text>
</a>
</g>
</g>
<!-- Documentable::DocPage::SubIndex::Type&#45;&gt;Documentable::DocPage -->
<g id="edge1" class="edge">
<title>Documentable::DocPage::SubIndex::Type&#45;&gt;Documentable::DocPage</title>
<path fill="none" stroke="#000000" d="M327.8,-30.62C362.96,-33.61 391.08,-36 391.08,-36 391.08,-36 1558.6,-73.05 1941.24,-85.2"/>
<polygon fill="#000000" stroke="#000000" points="1941.4,-88.7 1951.51,-85.52 1941.63,-81.71 1941.4,-88.7"/>
</g>
<!-- Documentable::DocPage::Index::Routine -->
<g id="node3" class="node">
<title>Documentable::DocPage::Index::Routine</title>
<g id="a_node3"><a xlink:href="/type/Documentable::DocPage::Index::Routine" xlink:title="Documentable::DocPage::Index::Routine">
<ellipse fill="none" stroke="#000000" cx="591.08" cy="-18" rx="191.17" ry="18"/>
<text text-anchor="middle" x="591.08" y="-14.3" font-family="FreeSans" font-size="14.00" fill="#000000">Documentable::DocPage::Index::Routine</text>
</a>
</g>
</g>
<!-- Documentable::DocPage::Index::Routine&#45;&gt;Documentable::DocPage -->
<g id="edge2" class="edge">
<title>Documentable::DocPage::Index::Routine&#45;&gt;Documentable::DocPage</title>
<path fill="none" stroke="#000000" d="M727.8,-30.62C762.96,-33.61 791.08,-36 791.08,-36 791.08,-36 1628.42,-70.94 1943.28,-84.08"/>
<polygon fill="#000000" stroke="#000000" points="1943.21,-87.58 1953.35,-84.5 1943.51,-80.59 1943.21,-87.58"/>
</g>
<!-- Documentable::DocPage::Index::Programs -->
<g id="node4" class="node">
<title>Documentable::DocPage::Index::Programs</title>
<g id="a_node4"><a xlink:href="/type/Documentable::DocPage::Index::Programs" xlink:title="Documentable::DocPage::Index::Programs">
<ellipse fill="none" stroke="#000000" cx="996.08" cy="-18" rx="196.07" ry="18"/>
<text text-anchor="middle" x="996.08" y="-14.3" font-family="FreeSans" font-size="14.00" fill="#000000">Documentable::DocPage::Index::Programs</text>
</a>
</g>
</g>
<!-- Documentable::DocPage::Index::Programs&#45;&gt;Documentable::DocPage -->
<g id="edge3" class="edge">
<title>Documentable::DocPage::Index::Programs&#45;&gt;Documentable::DocPage</title>
<path fill="none" stroke="#000000" d="M1136.22,-30.62C1172.25,-33.61 1201.08,-36 1201.08,-36 1201.08,-36 1713.91,-67.6 1947.54,-82"/>
<polygon fill="#000000" stroke="#000000" points="1947.58,-85.51 1957.77,-82.63 1948.01,-78.52 1947.58,-85.51"/>
</g>
<!-- Documentable::DocPage::Primary::Programs -->
<g id="node5" class="node">
<title>Documentable::DocPage::Primary::Programs</title>
<g id="a_node5"><a xlink:href="/type/Documentable::DocPage::Primary::Programs" xlink:title="Documentable::DocPage::Primary::Programs">
<ellipse fill="none" stroke="#000000" cx="1416.08" cy="-18" rx="206.06" ry="18"/>
<text text-anchor="middle" x="1416.08" y="-14.3" font-family="FreeSans" font-size="14.00" fill="#000000">Documentable::DocPage::Primary::Programs</text>
</a>
</g>
</g>
<!-- Documentable::DocPage::Primary::Programs&#45;&gt;Documentable::DocPage -->
<g id="edge4" class="edge">
<title>Documentable::DocPage::Primary::Programs&#45;&gt;Documentable::DocPage</title>
<path fill="none" stroke="#000000" d="M1539.68,-32.41C1662.01,-45.69 1846.97,-65.76 1960.56,-78.09"/>
<polygon fill="#000000" stroke="#000000" points="1960.33,-81.59 1970.65,-79.19 1961.08,-74.63 1960.33,-81.59"/>
</g>
<!-- Documentable::DocPage::Primary::Language -->
<g id="node6" class="node">
<title>Documentable::DocPage::Primary::Language</title>
<g id="a_node6"><a xlink:href="/type/Documentable::DocPage::Primary::Language" xlink:title="Documentable::DocPage::Primary::Language">
<ellipse fill="none" stroke="#000000" cx="1846.08" cy="-18" rx="206.06" ry="18"/>
<text text-anchor="middle" x="1846.08" y="-14.3" font-family="FreeSans" font-size="14.00" fill="#000000">Documentable::DocPage::Primary::Language</text>
</a>
</g>
</g>
<!-- Documentable::DocPage::Primary::Language&#45;&gt;Documentable::DocPage -->
<g id="edge5" class="edge">
<title>Documentable::DocPage::Primary::Language&#45;&gt;Documentable::DocPage</title>
<path fill="none" stroke="#000000" d="M1896.76,-35.5C1928.97,-45.99 1970.72,-59.58 2004.07,-70.44"/>
<polygon fill="#000000" stroke="#000000" points="2003.1,-73.8 2013.69,-73.57 2005.26,-67.15 2003.1,-73.8"/>
</g>
<!-- Documentable::DocPage::SubIndex::Routine -->
<g id="node7" class="node">
<title>Documentable::DocPage::SubIndex::Routine</title>
<g id="a_node7"><a xlink:href="/type/Documentable::DocPage::SubIndex::Routine" xlink:title="Documentable::DocPage::SubIndex::Routine">
<ellipse fill="none" stroke="#000000" cx="2276.08" cy="-18" rx="206.06" ry="18"/>
<text text-anchor="middle" x="2276.08" y="-14.3" font-family="FreeSans" font-size="14.00" fill="#000000">Documentable::DocPage::SubIndex::Routine</text>
</a>
</g>
</g>
<!-- Documentable::DocPage::SubIndex::Routine&#45;&gt;Documentable::DocPage -->
<g id="edge6" class="edge">
<title>Documentable::DocPage::SubIndex::Routine&#45;&gt;Documentable::DocPage</title>
<path fill="none" stroke="#000000" d="M2225.4,-35.5C2193.2,-45.99 2151.45,-59.58 2118.09,-70.44"/>
<polygon fill="#000000" stroke="#000000" points="2116.9,-67.15 2108.48,-73.57 2119.07,-73.8 2116.9,-67.15"/>
</g>
<!-- Documentable::DocPage::Index::Type -->
<g id="node8" class="node">
<title>Documentable::DocPage::Index::Type</title>
<g id="a_node8"><a xlink:href="/type/Documentable::DocPage::Index::Type" xlink:title="Documentable::DocPage::Index::Type">
<ellipse fill="none" stroke="#000000" cx="2677.08" cy="-18" rx="176.57" ry="18"/>
<text text-anchor="middle" x="2677.08" y="-14.3" font-family="FreeSans" font-size="14.00" fill="#000000">Documentable::DocPage::Index::Type</text>
</a>
</g>
</g>
<!-- Documentable::DocPage::Index::Type&#45;&gt;Documentable::DocPage -->
<g id="edge7" class="edge">
<title>Documentable::DocPage::Index::Type&#45;&gt;Documentable::DocPage</title>
<path fill="none" stroke="#000000" d="M2563.74,-31.88C2448.16,-45.01 2270.61,-65.19 2160.39,-77.72"/>
<polygon fill="#000000" stroke="#000000" points="2159.81,-74.26 2150.27,-78.87 2160.6,-81.21 2159.81,-74.26"/>
</g>
<!-- Documentable::DocPage::Primary::Type -->
<g id="node9" class="node">
<title>Documentable::DocPage::Primary::Type</title>
<g id="a_node9"><a xlink:href="/type/Documentable::DocPage::Primary::Type" xlink:title="Documentable::DocPage::Primary::Type">
<ellipse fill="none" stroke="#000000" cx="3058.08" cy="-18" rx="186.57" ry="18"/>
<text text-anchor="middle" x="3058.08" y="-14.3" font-family="FreeSans" font-size="14.00" fill="#000000">Documentable::DocPage::Primary::Type</text>
</a>
</g>
</g>
<!-- Documentable::DocPage::Primary::Type&#45;&gt;Documentable::DocPage -->
<g id="edge8" class="edge">
<title>Documentable::DocPage::Primary::Type&#45;&gt;Documentable::DocPage</title>
<path fill="none" stroke="#000000" d="M2924.78,-30.62C2890.5,-33.61 2863.08,-36 2863.08,-36 2863.08,-36 2394.2,-66.99 2173.47,-81.57"/>
<polygon fill="#000000" stroke="#000000" points="2173.22,-78.08 2163.47,-82.23 2173.68,-85.07 2173.22,-78.08"/>
</g>
<!-- Documentable::DocPage::Index::Language -->
<g id="node10" class="node">
<title>Documentable::DocPage::Index::Language</title>
<g id="a_node10"><a xlink:href="/type/Documentable::DocPage::Index::Language" xlink:title="Documentable::DocPage::Index::Language">
<ellipse fill="none" stroke="#000000" cx="3459.08" cy="-18" rx="196.07" ry="18"/>
<text text-anchor="middle" x="3459.08" y="-14.3" font-family="FreeSans" font-size="14.00" fill="#000000">Documentable::DocPage::Index::Language</text>
</a>
</g>
</g>
<!-- Documentable::DocPage::Index::Language&#45;&gt;Documentable::DocPage -->
<g id="edge9" class="edge">
<title>Documentable::DocPage::Index::Language&#45;&gt;Documentable::DocPage</title>
<path fill="none" stroke="#000000" d="M3318.95,-30.62C3282.91,-33.61 3254.08,-36 3254.08,-36 3254.08,-36 2479.01,-70.43 2178.33,-83.79"/>
<polygon fill="#000000" stroke="#000000" points="2178.1,-80.3 2168.27,-84.24 2178.41,-87.29 2178.1,-80.3"/>
</g>
<!-- Documentable::DocPage::Secondary -->
<g id="node11" class="node">
<title>Documentable::DocPage::Secondary</title>
<g id="a_node11"><a xlink:href="/type/Documentable::DocPage::Secondary" xlink:title="Documentable::DocPage::Secondary">
<ellipse fill="none" stroke="#000000" cx="3840.08" cy="-18" rx="167.07" ry="18"/>
<text text-anchor="middle" x="3840.08" y="-14.3" font-family="FreeSans" font-size="14.00" fill="#000000">Documentable::DocPage::Secondary</text>
</a>
</g>
</g>
<!-- Documentable::DocPage::Secondary&#45;&gt;Documentable::DocPage -->
<g id="edge10" class="edge">
<title>Documentable::DocPage::Secondary&#45;&gt;Documentable::DocPage</title>
<path fill="none" stroke="#000000" d="M3720.25,-30.57C3689.09,-33.58 3664.08,-36 3664.08,-36 3664.08,-36 2553.02,-72.74 2180.89,-85.04"/>
<polygon fill="#000000" stroke="#000000" points="2180.51,-81.55 2170.63,-85.38 2180.74,-88.55 2180.51,-81.55"/>
</g>
</g>
</svg>
