<?xml version="1.0" encoding="UTF-8" standalone="no"?>
<!DOCTYPE svg PUBLIC "-//W3C//DTD SVG 1.1//EN"
 "http://www.w3.org/Graphics/SVG/1.1/DTD/svg11.dtd">
<!-- Generated by graphviz version 2.40.1 (0)
 -->
<!-- Title: perl6&#45;type&#45;graph Pages: 1 -->
<svg width="4016pt" height="116pt"
 viewBox="0.00 0.00 4015.82 116.00" xmlns="http://www.w3.org/2000/svg" xmlns:xlink="http://www.w3.org/1999/xlink">
<g id="graph0" class="graph" transform="scale(1 1) rotate(0) translate(4 112)">
<title>perl6&#45;type&#45;graph</title>
<polygon fill="#ffffff" stroke="transparent" points="-4,4 -4,-112 4011.816,-112 4011.816,4 -4,4"/>
<!-- Documentable::DocPage -->
<g id="node1" class="node">
<title>Documentable::DocPage</title>
<g id="a_node1"><a xlink:href="/type/Documentable::DocPage" xlink:title="Documentable::DocPage">
<ellipse fill="none" stroke="#6666ff" cx="1968.7843" cy="-90" rx="113.18" ry="18"/>
<text text-anchor="middle" x="1968.7843" y="-86.3" font-family="FreeSans" font-size="14.00" fill="#6666ff">Documentable::DocPage</text>
</a>
</g>
</g>
<!-- Documentable::DocPage::Index::Type -->
<g id="node2" class="node">
<title>Documentable::DocPage::Index::Type</title>
<g id="a_node2"><a xlink:href="/type/Documentable::DocPage::Index::Type" xlink:title="Documentable::DocPage::Index::Type">
<ellipse fill="none" stroke="#000000" cx="176.7843" cy="-18" rx="176.5689" ry="18"/>
<text text-anchor="middle" x="176.7843" y="-14.3" font-family="FreeSans" font-size="14.00" fill="#000000">Documentable::DocPage::Index::Type</text>
</a>
</g>
</g>
<!-- Documentable::DocPage::Index::Type&#45;&gt;Documentable::DocPage -->
<g id="edge1" class="edge">
<title>Documentable::DocPage::Index::Type&#45;&gt;Documentable::DocPage</title>
<path fill="none" stroke="#000000" d="M304.9523,-30.4034C337.1701,-33.5212 362.7843,-36 362.7843,-36 362.7843,-36 1474.537,-73.3815 1848.0519,-85.9405"/>
<polygon fill="#000000" stroke="#000000" points="1847.9688,-89.4396 1858.0808,-86.2777 1848.2041,-82.4435 1847.9688,-89.4396"/>
</g>
<!-- Documentable::DocPage::SubIndex::Type -->
<g id="node3" class="node">
<title>Documentable::DocPage::SubIndex::Type</title>
<g id="a_node3"><a xlink:href="/type/Documentable::DocPage::SubIndex::Type" xlink:title="Documentable::DocPage::SubIndex::Type">
<ellipse fill="none" stroke="#000000" cx="562.7843" cy="-18" rx="191.1661" ry="18"/>
<text text-anchor="middle" x="562.7843" y="-14.3" font-family="FreeSans" font-size="14.00" fill="#000000">Documentable::DocPage::SubIndex::Type</text>
</a>
</g>
</g>
<!-- Documentable::DocPage::SubIndex::Type&#45;&gt;Documentable::DocPage -->
<g id="edge2" class="edge">
<title>Documentable::DocPage::SubIndex::Type&#45;&gt;Documentable::DocPage</title>
<path fill="none" stroke="#000000" d="M701.1458,-30.4525C735.5314,-33.5472 762.7843,-36 762.7843,-36 762.7843,-36 1545.3665,-71.041 1849.7161,-84.6686"/>
<polygon fill="#000000" stroke="#000000" points="1849.7531,-88.1737 1859.8996,-85.1246 1850.0663,-81.1807 1849.7531,-88.1737"/>
</g>
<!-- Documentable::DocPage::Primary::Programs -->
<g id="node4" class="node">
<title>Documentable::DocPage::Primary::Programs</title>
<g id="a_node4"><a xlink:href="/type/Documentable::DocPage::Primary::Programs" xlink:title="Documentable::DocPage::Primary::Programs">
<ellipse fill="none" stroke="#000000" cx="977.7843" cy="-18" rx="206.0634" ry="18"/>
<text text-anchor="middle" x="977.7843" y="-14.3" font-family="FreeSans" font-size="14.00" fill="#000000">Documentable::DocPage::Primary::Programs</text>
</a>
</g>
</g>
<!-- Documentable::DocPage::Primary::Programs&#45;&gt;Documentable::DocPage -->
<g id="edge3" class="edge">
<title>Documentable::DocPage::Primary::Programs&#45;&gt;Documentable::DocPage</title>
<path fill="none" stroke="#000000" d="M1126.8161,-30.4771C1163.6422,-33.5602 1192.7843,-36 1192.7843,-36 1192.7843,-36 1639.1974,-67.0648 1854.843,-82.0711"/>
<polygon fill="#000000" stroke="#000000" points="1854.7158,-85.5706 1864.9347,-82.7734 1855.2018,-78.5875 1854.7158,-85.5706"/>
</g>
<!-- Documentable::DocPage::Index::Programs -->
<g id="node5" class="node">
<title>Documentable::DocPage::Index::Programs</title>
<g id="a_node5"><a xlink:href="/type/Documentable::DocPage::Index::Programs" xlink:title="Documentable::DocPage::Index::Programs">
<ellipse fill="none" stroke="#000000" cx="1397.7843" cy="-18" rx="196.0654" ry="18"/>
<text text-anchor="middle" x="1397.7843" y="-14.3" font-family="FreeSans" font-size="14.00" fill="#000000">Documentable::DocPage::Index::Programs</text>
</a>
</g>
</g>
<!-- Documentable::DocPage::Index::Programs&#45;&gt;Documentable::DocPage -->
<g id="edge4" class="edge">
<title>Documentable::DocPage::Index::Programs&#45;&gt;Documentable::DocPage</title>
<path fill="none" stroke="#000000" d="M1513.3347,-32.5703C1618.0904,-45.7794 1770.8411,-65.0404 1870.025,-77.547"/>
<polygon fill="#000000" stroke="#000000" points="1869.6909,-81.0325 1880.0503,-78.8111 1870.5667,-74.0875 1869.6909,-81.0325"/>
</g>
<!-- Documentable::DocPage::Secondary -->
<g id="node6" class="node">
<title>Documentable::DocPage::Secondary</title>
<g id="a_node6"><a xlink:href="/type/Documentable::DocPage::Secondary" xlink:title="Documentable::DocPage::Secondary">
<ellipse fill="none" stroke="#000000" cx="1778.7843" cy="-18" rx="167.0704" ry="18"/>
<text text-anchor="middle" x="1778.7843" y="-14.3" font-family="FreeSans" font-size="14.00" fill="#000000">Documentable::DocPage::Secondary</text>
</a>
</g>
</g>
<!-- Documentable::DocPage::Secondary&#45;&gt;Documentable::DocPage -->
<g id="edge5" class="edge">
<title>Documentable::DocPage::Secondary&#45;&gt;Documentable::DocPage</title>
<path fill="none" stroke="#000000" d="M1824.778,-35.4292C1852.1102,-45.7866 1886.895,-58.9683 1915.43,-69.7815"/>
<polygon fill="#000000" stroke="#000000" points="1914.2563,-73.0796 1924.8477,-73.3503 1916.7368,-66.5338 1914.2563,-73.0796"/>
</g>
<!-- Documentable::DocPage::Index::Language -->
<g id="node7" class="node">
<title>Documentable::DocPage::Index::Language</title>
<g id="a_node7"><a xlink:href="/type/Documentable::DocPage::Index::Language" xlink:title="Documentable::DocPage::Index::Language">
<ellipse fill="none" stroke="#000000" cx="2159.7843" cy="-18" rx="196.0654" ry="18"/>
<text text-anchor="middle" x="2159.7843" y="-14.3" font-family="FreeSans" font-size="14.00" fill="#000000">Documentable::DocPage::Index::Language</text>
</a>
</g>
</g>
<!-- Documentable::DocPage::Index::Language&#45;&gt;Documentable::DocPage -->
<g id="edge6" class="edge">
<title>Documentable::DocPage::Index::Language&#45;&gt;Documentable::DocPage</title>
<path fill="none" stroke="#000000" d="M2113.0605,-35.6132C2085.6748,-45.9366 2050.9742,-59.0174 2022.4678,-69.7633"/>
<polygon fill="#000000" stroke="#000000" points="2021.18,-66.5083 2013.0573,-73.3107 2023.6492,-73.0583 2021.18,-66.5083"/>
</g>
<!-- Documentable::DocPage::Primary::Type -->
<g id="node8" class="node">
<title>Documentable::DocPage::Primary::Type</title>
<g id="a_node8"><a xlink:href="/type/Documentable::DocPage::Primary::Type" xlink:title="Documentable::DocPage::Primary::Type">
<ellipse fill="none" stroke="#000000" cx="2560.7843" cy="-18" rx="186.5669" ry="18"/>
<text text-anchor="middle" x="2560.7843" y="-14.3" font-family="FreeSans" font-size="14.00" fill="#000000">Documentable::DocPage::Primary::Type</text>
</a>
</g>
</g>
<!-- Documentable::DocPage::Primary::Type&#45;&gt;Documentable::DocPage -->
<g id="edge7" class="edge">
<title>Documentable::DocPage::Primary::Type&#45;&gt;Documentable::DocPage</title>
<path fill="none" stroke="#000000" d="M2444.5305,-32.139C2335.0351,-45.456 2172.7271,-65.1961 2068.8545,-77.8293"/>
<polygon fill="#000000" stroke="#000000" points="2068.1805,-74.3854 2058.6763,-79.0672 2069.0257,-81.3342 2068.1805,-74.3854"/>
</g>
<!-- Documentable::DocPage::Index::Routine -->
<g id="node9" class="node">
<title>Documentable::DocPage::Index::Routine</title>
<g id="a_node9"><a xlink:href="/type/Documentable::DocPage::Index::Routine" xlink:title="Documentable::DocPage::Index::Routine">
<ellipse fill="none" stroke="#000000" cx="2956.7843" cy="-18" rx="191.1661" ry="18"/>
<text text-anchor="middle" x="2956.7843" y="-14.3" font-family="FreeSans" font-size="14.00" fill="#000000">Documentable::DocPage::Index::Routine</text>
</a>
</g>
</g>
<!-- Documentable::DocPage::Index::Routine&#45;&gt;Documentable::DocPage -->
<g id="edge8" class="edge">
<title>Documentable::DocPage::Index::Routine&#45;&gt;Documentable::DocPage</title>
<path fill="none" stroke="#000000" d="M2818.4228,-30.4525C2784.0373,-33.5472 2756.7843,-36 2756.7843,-36 2756.7843,-36 2301.7426,-67.1831 2083.2412,-82.1565"/>
<polygon fill="#000000" stroke="#000000" points="2082.7552,-78.6815 2073.0179,-82.8571 2083.2339,-85.6651 2082.7552,-78.6815"/>
</g>
<!-- Documentable::DocPage::Primary::Language -->
<g id="node10" class="node">
<title>Documentable::DocPage::Primary::Language</title>
<g id="a_node10"><a xlink:href="/type/Documentable::DocPage::Primary::Language" xlink:title="Documentable::DocPage::Primary::Language">
<ellipse fill="none" stroke="#000000" cx="3371.7843" cy="-18" rx="206.0634" ry="18"/>
<text text-anchor="middle" x="3371.7843" y="-14.3" font-family="FreeSans" font-size="14.00" fill="#000000">Documentable::DocPage::Primary::Language</text>
</a>
</g>
</g>
<!-- Documentable::DocPage::Primary::Language&#45;&gt;Documentable::DocPage -->
<g id="edge9" class="edge">
<title>Documentable::DocPage::Primary::Language&#45;&gt;Documentable::DocPage</title>
<path fill="none" stroke="#000000" d="M3222.7525,-30.4771C3185.9264,-33.5602 3156.7843,-36 3156.7843,-36 3156.7843,-36 2388.6521,-70.9151 2087.6971,-84.5949"/>
<polygon fill="#000000" stroke="#000000" points="2087.4557,-81.1021 2077.6249,-85.0527 2087.7736,-88.0949 2087.4557,-81.1021"/>
</g>
<!-- Documentable::DocPage::SubIndex::Routine -->
<g id="node11" class="node">
<title>Documentable::DocPage::SubIndex::Routine</title>
<g id="a_node11"><a xlink:href="/type/Documentable::DocPage::SubIndex::Routine" xlink:title="Documentable::DocPage::SubIndex::Routine">
<ellipse fill="none" stroke="#000000" cx="3801.7843" cy="-18" rx="206.0634" ry="18"/>
<text text-anchor="middle" x="3801.7843" y="-14.3" font-family="FreeSans" font-size="14.00" fill="#000000">Documentable::DocPage::SubIndex::Routine</text>
</a>
</g>
</g>
<!-- Documentable::DocPage::SubIndex::Routine&#45;&gt;Documentable::DocPage -->
<g id="edge10" class="edge">
<title>Documentable::DocPage::SubIndex::Routine&#45;&gt;Documentable::DocPage</title>
<path fill="none" stroke="#000000" d="M3652.7525,-30.4771C3615.9264,-33.5602 3586.7843,-36 3586.7843,-36 3586.7843,-36 2465.4214,-73.425 2089.7631,-85.9624"/>
<polygon fill="#000000" stroke="#000000" points="2089.5551,-82.4673 2079.6774,-86.299 2089.7886,-89.4634 2089.5551,-82.4673"/>
</g>
</g>
</svg>
