<?xml version="1.0" encoding="UTF-8" standalone="no"?>
<!DOCTYPE svg PUBLIC "-//W3C//DTD SVG 1.1//EN"
 "http://www.w3.org/Graphics/SVG/1.1/DTD/svg11.dtd">
<!-- Generated by graphviz version 2.40.1 (0)
 -->
<!-- Title: perl6&#45;type&#45;graph Pages: 1 -->
<svg width="4015pt" height="116pt"
 viewBox="0.00 0.00 4015.37 116.00" xmlns="http://www.w3.org/2000/svg" xmlns:xlink="http://www.w3.org/1999/xlink">
<g id="graph0" class="graph" transform="scale(1 1) rotate(0) translate(4 112)">
<title>perl6&#45;type&#45;graph</title>
<polygon fill="#ffffff" stroke="transparent" points="-4,4 -4,-112 4011.3656,-112 4011.3656,4 -4,4"/>
<!-- Documentable::DocPage -->
<g id="node1" class="node">
<title>Documentable::DocPage</title>
<g id="a_node1"><a xlink:href="/type/Documentable::DocPage" xlink:title="Documentable::DocPage">
<ellipse fill="none" stroke="#6666ff" cx="1994.2826" cy="-90" rx="113.18" ry="18"/>
<text text-anchor="middle" x="1994.2826" y="-86.3" font-family="FreeSans" font-size="14.00" fill="#6666ff">Documentable::DocPage</text>
</a>
</g>
</g>
<!-- Documentable::DocPage::Index::Programs -->
<g id="node2" class="node">
<title>Documentable::DocPage::Index::Programs</title>
<g id="a_node2"><a xlink:href="/type/Documentable::DocPage::Index::Programs" xlink:title="Documentable::DocPage::Index::Programs">
<ellipse fill="none" stroke="#000000" cx="196.2826" cy="-18" rx="196.0654" ry="18"/>
<text text-anchor="middle" x="196.2826" y="-14.3" font-family="FreeSans" font-size="14.00" fill="#000000">Documentable::DocPage::Index::Programs</text>
</a>
</g>
</g>
<!-- Documentable::DocPage::Index::Programs&#45;&gt;Documentable::DocPage -->
<g id="edge1" class="edge">
<title>Documentable::DocPage::Index::Programs&#45;&gt;Documentable::DocPage</title>
<path fill="none" stroke="#000000" d="M338.1031,-30.4525C373.3483,-33.5472 401.2826,-36 401.2826,-36 401.2826,-36 1501.5706,-73.2979 1873.2815,-85.8983"/>
<polygon fill="#000000" stroke="#000000" points="1873.4178,-89.4048 1883.5307,-86.2457 1873.655,-82.4088 1873.4178,-89.4048"/>
</g>
<!-- Documentable::DocPage::Primary::Type -->
<g id="node3" class="node">
<title>Documentable::DocPage::Primary::Type</title>
<g id="a_node3"><a xlink:href="/type/Documentable::DocPage::Primary::Type" xlink:title="Documentable::DocPage::Primary::Type">
<ellipse fill="none" stroke="#000000" cx="597.2826" cy="-18" rx="186.5669" ry="18"/>
<text text-anchor="middle" x="597.2826" y="-14.3" font-family="FreeSans" font-size="14.00" fill="#000000">Documentable::DocPage::Primary::Type</text>
</a>
</g>
</g>
<!-- Documentable::DocPage::Primary::Type&#45;&gt;Documentable::DocPage -->
<g id="edge2" class="edge">
<title>Documentable::DocPage::Primary::Type&#45;&gt;Documentable::DocPage</title>
<path fill="none" stroke="#000000" d="M732.185,-30.4525C765.7109,-33.5472 792.2826,-36 792.2826,-36 792.2826,-36 1571.3345,-70.999 1875.0634,-84.6441"/>
<polygon fill="#000000" stroke="#000000" points="1875.0799,-88.1482 1885.2269,-85.1007 1875.3941,-81.1553 1875.0799,-88.1482"/>
</g>
<!-- Documentable::DocPage::Index::Type -->
<g id="node4" class="node">
<title>Documentable::DocPage::Index::Type</title>
<g id="a_node4"><a xlink:href="/type/Documentable::DocPage::Index::Type" xlink:title="Documentable::DocPage::Index::Type">
<ellipse fill="none" stroke="#000000" cx="978.2826" cy="-18" rx="176.5689" ry="18"/>
<text text-anchor="middle" x="978.2826" y="-14.3" font-family="FreeSans" font-size="14.00" fill="#000000">Documentable::DocPage::Index::Type</text>
</a>
</g>
</g>
<!-- Documentable::DocPage::Index::Type&#45;&gt;Documentable::DocPage -->
<g id="edge3" class="edge">
<title>Documentable::DocPage::Index::Type&#45;&gt;Documentable::DocPage</title>
<path fill="none" stroke="#000000" d="M1106.4506,-30.4034C1138.6684,-33.5212 1164.2826,-36 1164.2826,-36 1164.2826,-36 1651.8472,-67.7211 1879.6003,-82.5387"/>
<polygon fill="#000000" stroke="#000000" points="1879.3769,-86.0315 1889.5831,-83.1882 1879.8314,-79.0463 1879.3769,-86.0315"/>
</g>
<!-- Documentable::DocPage::SubIndex::Type -->
<g id="node5" class="node">
<title>Documentable::DocPage::SubIndex::Type</title>
<g id="a_node5"><a xlink:href="/type/Documentable::DocPage::SubIndex::Type" xlink:title="Documentable::DocPage::SubIndex::Type">
<ellipse fill="none" stroke="#000000" cx="1364.2826" cy="-18" rx="191.1661" ry="18"/>
<text text-anchor="middle" x="1364.2826" y="-14.3" font-family="FreeSans" font-size="14.00" fill="#000000">Documentable::DocPage::SubIndex::Type</text>
</a>
</g>
</g>
<!-- Documentable::DocPage::SubIndex::Type&#45;&gt;Documentable::DocPage -->
<g id="edge4" class="edge">
<title>Documentable::DocPage::SubIndex::Type&#45;&gt;Documentable::DocPage</title>
<path fill="none" stroke="#000000" d="M1486.1262,-31.925C1604.0605,-45.4032 1780.829,-65.6053 1891.7527,-78.2823"/>
<polygon fill="#000000" stroke="#000000" points="1891.6123,-81.789 1901.945,-79.4471 1892.4072,-74.8342 1891.6123,-81.789"/>
</g>
<!-- Documentable::DocPage::Primary::Programs -->
<g id="node6" class="node">
<title>Documentable::DocPage::Primary::Programs</title>
<g id="a_node6"><a xlink:href="/type/Documentable::DocPage::Primary::Programs" xlink:title="Documentable::DocPage::Primary::Programs">
<ellipse fill="none" stroke="#000000" cx="1779.2826" cy="-18" rx="206.0634" ry="18"/>
<text text-anchor="middle" x="1779.2826" y="-14.3" font-family="FreeSans" font-size="14.00" fill="#000000">Documentable::DocPage::Primary::Programs</text>
</a>
</g>
</g>
<!-- Documentable::DocPage::Primary::Programs&#45;&gt;Documentable::DocPage -->
<g id="edge5" class="edge">
<title>Documentable::DocPage::Primary::Programs&#45;&gt;Documentable::DocPage</title>
<path fill="none" stroke="#000000" d="M1831.3281,-35.4292C1862.8634,-45.9899 1903.1662,-59.4866 1935.8003,-70.4152"/>
<polygon fill="#000000" stroke="#000000" points="1935.0698,-73.8616 1945.6637,-73.7183 1937.2927,-67.2239 1935.0698,-73.8616"/>
</g>
<!-- Documentable::DocPage::Primary::Language -->
<g id="node7" class="node">
<title>Documentable::DocPage::Primary::Language</title>
<g id="a_node7"><a xlink:href="/type/Documentable::DocPage::Primary::Language" xlink:title="Documentable::DocPage::Primary::Language">
<ellipse fill="none" stroke="#000000" cx="2209.2826" cy="-18" rx="206.0634" ry="18"/>
<text text-anchor="middle" x="2209.2826" y="-14.3" font-family="FreeSans" font-size="14.00" fill="#000000">Documentable::DocPage::Primary::Language</text>
</a>
</g>
</g>
<!-- Documentable::DocPage::Primary::Language&#45;&gt;Documentable::DocPage -->
<g id="edge6" class="edge">
<title>Documentable::DocPage::Primary::Language&#45;&gt;Documentable::DocPage</title>
<path fill="none" stroke="#000000" d="M2157.2371,-35.4292C2125.7018,-45.9899 2085.399,-59.4866 2052.7649,-70.4152"/>
<polygon fill="#000000" stroke="#000000" points="2051.2725,-67.2239 2042.9015,-73.7183 2053.4954,-73.8616 2051.2725,-67.2239"/>
</g>
<!-- Documentable::DocPage::Index::Language -->
<g id="node8" class="node">
<title>Documentable::DocPage::Index::Language</title>
<g id="a_node8"><a xlink:href="/type/Documentable::DocPage::Index::Language" xlink:title="Documentable::DocPage::Index::Language">
<ellipse fill="none" stroke="#000000" cx="2629.2826" cy="-18" rx="196.0654" ry="18"/>
<text text-anchor="middle" x="2629.2826" y="-14.3" font-family="FreeSans" font-size="14.00" fill="#000000">Documentable::DocPage::Index::Language</text>
</a>
</g>
</g>
<!-- Documentable::DocPage::Index::Language&#45;&gt;Documentable::DocPage -->
<g id="edge7" class="edge">
<title>Documentable::DocPage::Index::Language&#45;&gt;Documentable::DocPage</title>
<path fill="none" stroke="#000000" d="M2505.7182,-32.0104C2386.5851,-45.5185 2208.4033,-65.7217 2096.8824,-78.3666"/>
<polygon fill="#000000" stroke="#000000" points="2096.1786,-74.9239 2086.6366,-79.5284 2096.9673,-81.8794 2096.1786,-74.9239"/>
</g>
<!-- Documentable::DocPage::Secondary -->
<g id="node9" class="node">
<title>Documentable::DocPage::Secondary</title>
<g id="a_node9"><a xlink:href="/type/Documentable::DocPage::Secondary" xlink:title="Documentable::DocPage::Secondary">
<ellipse fill="none" stroke="#000000" cx="3010.2826" cy="-18" rx="167.0704" ry="18"/>
<text text-anchor="middle" x="3010.2826" y="-14.3" font-family="FreeSans" font-size="14.00" fill="#000000">Documentable::DocPage::Secondary</text>
</a>
</g>
</g>
<!-- Documentable::DocPage::Secondary&#45;&gt;Documentable::DocPage -->
<g id="edge8" class="edge">
<title>Documentable::DocPage::Secondary&#45;&gt;Documentable::DocPage</title>
<path fill="none" stroke="#000000" d="M2889.0053,-30.4034C2858.5196,-33.5212 2834.2826,-36 2834.2826,-36 2834.2826,-36 2339.6039,-67.8008 2109.4797,-82.5945"/>
<polygon fill="#000000" stroke="#000000" points="2109.1492,-79.1084 2099.3943,-83.2428 2109.5983,-86.094 2109.1492,-79.1084"/>
</g>
<!-- Documentable::DocPage::SubIndex::Routine -->
<g id="node10" class="node">
<title>Documentable::DocPage::SubIndex::Routine</title>
<g id="a_node10"><a xlink:href="/type/Documentable::DocPage::SubIndex::Routine" xlink:title="Documentable::DocPage::SubIndex::Routine">
<ellipse fill="none" stroke="#000000" cx="3401.2826" cy="-18" rx="206.0634" ry="18"/>
<text text-anchor="middle" x="3401.2826" y="-14.3" font-family="FreeSans" font-size="14.00" fill="#000000">Documentable::DocPage::SubIndex::Routine</text>
</a>
</g>
</g>
<!-- Documentable::DocPage::SubIndex::Routine&#45;&gt;Documentable::DocPage -->
<g id="edge9" class="edge">
<title>Documentable::DocPage::SubIndex::Routine&#45;&gt;Documentable::DocPage</title>
<path fill="none" stroke="#000000" d="M3252.2508,-30.4771C3215.4247,-33.5602 3186.2826,-36 3186.2826,-36 3186.2826,-36 2415.1013,-70.9361 2113.3239,-84.6072"/>
<polygon fill="#000000" stroke="#000000" points="2113.0559,-81.1156 2103.2246,-85.0647 2113.3728,-88.1085 2113.0559,-81.1156"/>
</g>
<!-- Documentable::DocPage::Index::Routine -->
<g id="node11" class="node">
<title>Documentable::DocPage::Index::Routine</title>
<g id="a_node11"><a xlink:href="/type/Documentable::DocPage::Index::Routine" xlink:title="Documentable::DocPage::Index::Routine">
<ellipse fill="none" stroke="#000000" cx="3816.2826" cy="-18" rx="191.1661" ry="18"/>
<text text-anchor="middle" x="3816.2826" y="-14.3" font-family="FreeSans" font-size="14.00" fill="#000000">Documentable::DocPage::Index::Routine</text>
</a>
</g>
</g>
<!-- Documentable::DocPage::Index::Routine&#45;&gt;Documentable::DocPage -->
<g id="edge10" class="edge">
<title>Documentable::DocPage::Index::Routine&#45;&gt;Documentable::DocPage</title>
<path fill="none" stroke="#000000" d="M3677.9211,-30.4525C3643.5355,-33.5472 3616.2826,-36 3616.2826,-36 3616.2826,-36 2491.494,-73.4467 2115.2323,-85.9733"/>
<polygon fill="#000000" stroke="#000000" points="2115.0088,-82.4787 2105.1308,-86.3096 2115.2418,-89.4748 2115.0088,-82.4787"/>
</g>
</g>
</svg>
