<?xml version="1.0" encoding="UTF-8" standalone="no"?>
<!DOCTYPE svg PUBLIC "-//W3C//DTD SVG 1.1//EN"
 "http://www.w3.org/Graphics/SVG/1.1/DTD/svg11.dtd">
<!-- Generated by graphviz version 2.40.1 (0)
 -->
<!-- Title: perl6&#45;type&#45;graph Pages: 1 -->
<svg width="4017pt" height="116pt"
 viewBox="0.00 0.00 4016.87 116.00" xmlns="http://www.w3.org/2000/svg" xmlns:xlink="http://www.w3.org/1999/xlink">
<g id="graph0" class="graph" transform="scale(1 1) rotate(0) translate(4 112)">
<title>perl6&#45;type&#45;graph</title>
<polygon fill="#ffffff" stroke="transparent" points="-4,4 -4,-112 4012.8674,-112 4012.8674,4 -4,4"/>
<!-- Documentable::DocPage -->
<g id="node1" class="node">
<title>Documentable::DocPage</title>
<g id="a_node1"><a xlink:href="/type/Documentable::DocPage" xlink:title="Documentable::DocPage">
<ellipse fill="none" stroke="#6666ff" cx="2031.083" cy="-90" rx="113.18" ry="18"/>
<text text-anchor="middle" x="2031.083" y="-86.3" font-family="FreeSans" font-size="14.00" fill="#6666ff">Documentable::DocPage</text>
</a>
</g>
</g>
<!-- Documentable::DocPage::Index::Routine -->
<g id="node2" class="node">
<title>Documentable::DocPage::Index::Routine</title>
<g id="a_node2"><a xlink:href="/type/Documentable::DocPage::Index::Routine" xlink:title="Documentable::DocPage::Index::Routine">
<ellipse fill="none" stroke="#000000" cx="191.083" cy="-18" rx="191.1661" ry="18"/>
<text text-anchor="middle" x="191.083" y="-14.3" font-family="FreeSans" font-size="14.00" fill="#000000">Documentable::DocPage::Index::Routine</text>
</a>
</g>
</g>
<!-- Documentable::DocPage::Index::Routine&#45;&gt;Documentable::DocPage -->
<g id="edge1" class="edge">
<title>Documentable::DocPage::Index::Routine&#45;&gt;Documentable::DocPage</title>
<path fill="none" stroke="#000000" d="M329.4445,-30.4525C363.8301,-33.5472 391.083,-36 391.083,-36 391.083,-36 1530.9987,-73.5338 1910.1144,-86.0169"/>
<polygon fill="#000000" stroke="#000000" points="1910.181,-89.5209 1920.2908,-86.352 1910.4114,-82.5247 1910.181,-89.5209"/>
</g>
<!-- Documentable::DocPage::Primary::Type -->
<g id="node3" class="node">
<title>Documentable::DocPage::Primary::Type</title>
<g id="a_node3"><a xlink:href="/type/Documentable::DocPage::Primary::Type" xlink:title="Documentable::DocPage::Primary::Type">
<ellipse fill="none" stroke="#000000" cx="587.083" cy="-18" rx="186.5669" ry="18"/>
<text text-anchor="middle" x="587.083" y="-14.3" font-family="FreeSans" font-size="14.00" fill="#000000">Documentable::DocPage::Primary::Type</text>
</a>
</g>
</g>
<!-- Documentable::DocPage::Primary::Type&#45;&gt;Documentable::DocPage -->
<g id="edge2" class="edge">
<title>Documentable::DocPage::Primary::Type&#45;&gt;Documentable::DocPage</title>
<path fill="none" stroke="#000000" d="M722.4097,-30.428C756.2336,-33.5342 783.083,-36 783.083,-36 783.083,-36 1598.7543,-71.2935 1911.2467,-84.8148"/>
<polygon fill="#000000" stroke="#000000" points="1911.5559,-88.3313 1921.6979,-85.267 1911.8586,-81.3379 1911.5559,-88.3313"/>
</g>
<!-- Documentable::DocPage::SubIndex::Routine -->
<g id="node4" class="node">
<title>Documentable::DocPage::SubIndex::Routine</title>
<g id="a_node4"><a xlink:href="/type/Documentable::DocPage::SubIndex::Routine" xlink:title="Documentable::DocPage::SubIndex::Routine">
<ellipse fill="none" stroke="#000000" cx="998.083" cy="-18" rx="206.0634" ry="18"/>
<text text-anchor="middle" x="998.083" y="-14.3" font-family="FreeSans" font-size="14.00" fill="#000000">Documentable::DocPage::SubIndex::Routine</text>
</a>
</g>
</g>
<!-- Documentable::DocPage::SubIndex::Routine&#45;&gt;Documentable::DocPage -->
<g id="edge3" class="edge">
<title>Documentable::DocPage::SubIndex::Routine&#45;&gt;Documentable::DocPage</title>
<path fill="none" stroke="#000000" d="M1147.1148,-30.4771C1183.9409,-33.5602 1213.083,-36 1213.083,-36 1213.083,-36 1690.7147,-67.5307 1916.0282,-82.4047"/>
<polygon fill="#000000" stroke="#000000" points="1916.0266,-85.9121 1926.2355,-83.0785 1916.4878,-78.9273 1916.0266,-85.9121"/>
</g>
<!-- Documentable::DocPage::Index::Programs -->
<g id="node5" class="node">
<title>Documentable::DocPage::Index::Programs</title>
<g id="a_node5"><a xlink:href="/type/Documentable::DocPage::Index::Programs" xlink:title="Documentable::DocPage::Index::Programs">
<ellipse fill="none" stroke="#000000" cx="1418.083" cy="-18" rx="196.0654" ry="18"/>
<text text-anchor="middle" x="1418.083" y="-14.3" font-family="FreeSans" font-size="14.00" fill="#000000">Documentable::DocPage::Index::Programs</text>
</a>
</g>
</g>
<!-- Documentable::DocPage::Index::Programs&#45;&gt;Documentable::DocPage -->
<g id="edge4" class="edge">
<title>Documentable::DocPage::Index::Programs&#45;&gt;Documentable::DocPage</title>
<path fill="none" stroke="#000000" d="M1539.1921,-32.2249C1653.2725,-45.6242 1822.2396,-65.4703 1929.474,-78.0655"/>
<polygon fill="#000000" stroke="#000000" points="1929.3148,-81.5708 1939.6549,-79.2613 1930.1315,-74.6186 1929.3148,-81.5708"/>
</g>
<!-- Documentable::DocPage::Index::Language -->
<g id="node6" class="node">
<title>Documentable::DocPage::Index::Language</title>
<g id="a_node6"><a xlink:href="/type/Documentable::DocPage::Index::Language" xlink:title="Documentable::DocPage::Index::Language">
<ellipse fill="none" stroke="#000000" cx="1829.083" cy="-18" rx="196.0654" ry="18"/>
<text text-anchor="middle" x="1829.083" y="-14.3" font-family="FreeSans" font-size="14.00" fill="#000000">Documentable::DocPage::Index::Language</text>
</a>
</g>
</g>
<!-- Documentable::DocPage::Index::Language&#45;&gt;Documentable::DocPage -->
<g id="edge5" class="edge">
<title>Documentable::DocPage::Index::Language&#45;&gt;Documentable::DocPage</title>
<path fill="none" stroke="#000000" d="M1878.2395,-35.5211C1907.5345,-45.9629 1944.8131,-59.2503 1975.2201,-70.0884"/>
<polygon fill="#000000" stroke="#000000" points="1974.2375,-73.4539 1984.8322,-73.5145 1976.5878,-66.8602 1974.2375,-73.4539"/>
</g>
<!-- Documentable::DocPage::SubIndex::Type -->
<g id="node7" class="node">
<title>Documentable::DocPage::SubIndex::Type</title>
<g id="a_node7"><a xlink:href="/type/Documentable::DocPage::SubIndex::Type" xlink:title="Documentable::DocPage::SubIndex::Type">
<ellipse fill="none" stroke="#000000" cx="2234.083" cy="-18" rx="191.1661" ry="18"/>
<text text-anchor="middle" x="2234.083" y="-14.3" font-family="FreeSans" font-size="14.00" fill="#000000">Documentable::DocPage::SubIndex::Type</text>
</a>
</g>
</g>
<!-- Documentable::DocPage::SubIndex::Type&#45;&gt;Documentable::DocPage -->
<g id="edge6" class="edge">
<title>Documentable::DocPage::SubIndex::Type&#45;&gt;Documentable::DocPage</title>
<path fill="none" stroke="#000000" d="M2184.9424,-35.4292C2155.5073,-45.8692 2117.9821,-59.1787 2087.3599,-70.0397"/>
<polygon fill="#000000" stroke="#000000" points="2085.934,-66.8318 2077.6792,-73.4733 2088.274,-73.4291 2085.934,-66.8318"/>
</g>
<!-- Documentable::DocPage::Primary::Language -->
<g id="node8" class="node">
<title>Documentable::DocPage::Primary::Language</title>
<g id="a_node8"><a xlink:href="/type/Documentable::DocPage::Primary::Language" xlink:title="Documentable::DocPage::Primary::Language">
<ellipse fill="none" stroke="#000000" cx="2649.083" cy="-18" rx="206.0634" ry="18"/>
<text text-anchor="middle" x="2649.083" y="-14.3" font-family="FreeSans" font-size="14.00" fill="#000000">Documentable::DocPage::Primary::Language</text>
</a>
</g>
</g>
<!-- Documentable::DocPage::Primary::Language&#45;&gt;Documentable::DocPage -->
<g id="edge7" class="edge">
<title>Documentable::DocPage::Primary::Language&#45;&gt;Documentable::DocPage</title>
<path fill="none" stroke="#000000" d="M2525.1361,-32.4404C2409.9314,-45.8623 2240.3943,-65.6142 2132.8947,-78.1384"/>
<polygon fill="#000000" stroke="#000000" points="2132.2168,-74.6937 2122.6891,-79.3275 2133.0269,-81.6466 2132.2168,-74.6937"/>
</g>
<!-- Documentable::DocPage::Secondary -->
<g id="node9" class="node">
<title>Documentable::DocPage::Secondary</title>
<g id="a_node9"><a xlink:href="/type/Documentable::DocPage::Secondary" xlink:title="Documentable::DocPage::Secondary">
<ellipse fill="none" stroke="#000000" cx="3040.083" cy="-18" rx="167.0704" ry="18"/>
<text text-anchor="middle" x="3040.083" y="-14.3" font-family="FreeSans" font-size="14.00" fill="#000000">Documentable::DocPage::Secondary</text>
</a>
</g>
</g>
<!-- Documentable::DocPage::Secondary&#45;&gt;Documentable::DocPage -->
<g id="edge8" class="edge">
<title>Documentable::DocPage::Secondary&#45;&gt;Documentable::DocPage</title>
<path fill="none" stroke="#000000" d="M2918.8058,-30.4034C2888.3201,-33.5212 2864.083,-36 2864.083,-36 2864.083,-36 2374.7562,-67.7211 2146.1799,-82.5387"/>
<polygon fill="#000000" stroke="#000000" points="2145.9136,-79.0486 2136.161,-83.1882 2146.3665,-86.0339 2145.9136,-79.0486"/>
</g>
<!-- Documentable::DocPage::Primary::Programs -->
<g id="node10" class="node">
<title>Documentable::DocPage::Primary::Programs</title>
<g id="a_node10"><a xlink:href="/type/Documentable::DocPage::Primary::Programs" xlink:title="Documentable::DocPage::Primary::Programs">
<ellipse fill="none" stroke="#000000" cx="3431.083" cy="-18" rx="206.0634" ry="18"/>
<text text-anchor="middle" x="3431.083" y="-14.3" font-family="FreeSans" font-size="14.00" fill="#000000">Documentable::DocPage::Primary::Programs</text>
</a>
</g>
</g>
<!-- Documentable::DocPage::Primary::Programs&#45;&gt;Documentable::DocPage -->
<g id="edge9" class="edge">
<title>Documentable::DocPage::Primary::Programs&#45;&gt;Documentable::DocPage</title>
<path fill="none" stroke="#000000" d="M3282.0513,-30.4771C3245.2252,-33.5602 3216.083,-36 3216.083,-36 3216.083,-36 2450.3506,-70.8941 2149.966,-84.5825"/>
<polygon fill="#000000" stroke="#000000" points="2149.7429,-81.089 2139.9126,-85.0407 2150.0616,-88.0817 2149.7429,-81.089"/>
</g>
<!-- Documentable::DocPage::Index::Type -->
<g id="node11" class="node">
<title>Documentable::DocPage::Index::Type</title>
<g id="a_node11"><a xlink:href="/type/Documentable::DocPage::Index::Type" xlink:title="Documentable::DocPage::Index::Type">
<ellipse fill="none" stroke="#000000" cx="3832.083" cy="-18" rx="176.5689" ry="18"/>
<text text-anchor="middle" x="3832.083" y="-14.3" font-family="FreeSans" font-size="14.00" fill="#000000">Documentable::DocPage::Index::Type</text>
</a>
</g>
</g>
<!-- Documentable::DocPage::Index::Type&#45;&gt;Documentable::DocPage -->
<g id="edge10" class="edge">
<title>Documentable::DocPage::Index::Type&#45;&gt;Documentable::DocPage</title>
<path fill="none" stroke="#000000" d="M3703.915,-30.4034C3671.6972,-33.5212 3646.083,-36 3646.083,-36 3646.083,-36 2526.7993,-73.425 2151.8375,-85.9624"/>
<polygon fill="#000000" stroke="#000000" points="2151.6479,-82.4667 2141.7705,-86.299 2151.8819,-89.4628 2151.6479,-82.4667"/>
</g>
</g>
</svg>
