<?xml version="1.0" encoding="UTF-8" standalone="no"?>
<!DOCTYPE svg PUBLIC "-//W3C//DTD SVG 1.1//EN"
 "http://www.w3.org/Graphics/SVG/1.1/DTD/svg11.dtd">
<!-- Generated by graphviz version 2.40.1 (0)
 -->
<!-- Title: perl6&#45;type&#45;graph Pages: 1 -->
<svg width="4016pt" height="116pt"
 viewBox="0.00 0.00 4016.11 116.00" xmlns="http://www.w3.org/2000/svg" xmlns:xlink="http://www.w3.org/1999/xlink">
<g id="graph0" class="graph" transform="scale(1 1) rotate(0) translate(4 112)">
<title>perl6&#45;type&#45;graph</title>
<polygon fill="#ffffff" stroke="transparent" points="-4,4 -4,-112 4012.1148,-112 4012.1148,4 -4,4"/>
<!-- Documentable::DocPage -->
<g id="node1" class="node">
<title>Documentable::DocPage</title>
<g id="a_node1"><a xlink:href="/type/Documentable::DocPage" xlink:title="Documentable::DocPage">
<ellipse fill="none" stroke="#6666ff" cx="1990.083" cy="-90" rx="113.18" ry="18"/>
<text text-anchor="middle" x="1990.083" y="-86.3" font-family="FreeSans" font-size="14.00" fill="#6666ff">Documentable::DocPage</text>
</a>
</g>
</g>
<!-- Documentable::DocPage::SubIndex::Type -->
<g id="node2" class="node">
<title>Documentable::DocPage::SubIndex::Type</title>
<g id="a_node2"><a xlink:href="/type/Documentable::DocPage::SubIndex::Type" xlink:title="Documentable::DocPage::SubIndex::Type">
<ellipse fill="none" stroke="#000000" cx="191.083" cy="-18" rx="191.1661" ry="18"/>
<text text-anchor="middle" x="191.083" y="-14.3" font-family="FreeSans" font-size="14.00" fill="#000000">Documentable::DocPage::SubIndex::Type</text>
</a>
</g>
</g>
<!-- Documentable::DocPage::SubIndex::Type&#45;&gt;Documentable::DocPage -->
<g id="edge1" class="edge">
<title>Documentable::DocPage::SubIndex::Type&#45;&gt;Documentable::DocPage</title>
<path fill="none" stroke="#000000" d="M329.4445,-30.4525C363.8301,-33.5472 391.083,-36 391.083,-36 391.083,-36 1496.7029,-73.338 1869.2272,-85.9186"/>
<polygon fill="#000000" stroke="#000000" points="1869.1179,-89.4168 1879.2304,-86.2564 1869.3543,-82.4208 1869.1179,-89.4168"/>
</g>
<!-- Documentable::DocPage::Primary::Type -->
<g id="node3" class="node">
<title>Documentable::DocPage::Primary::Type</title>
<g id="a_node3"><a xlink:href="/type/Documentable::DocPage::Primary::Type" xlink:title="Documentable::DocPage::Primary::Type">
<ellipse fill="none" stroke="#000000" cx="587.083" cy="-18" rx="186.5669" ry="18"/>
<text text-anchor="middle" x="587.083" y="-14.3" font-family="FreeSans" font-size="14.00" fill="#000000">Documentable::DocPage::Primary::Type</text>
</a>
</g>
</g>
<!-- Documentable::DocPage::Primary::Type&#45;&gt;Documentable::DocPage -->
<g id="edge2" class="edge">
<title>Documentable::DocPage::Primary::Type&#45;&gt;Documentable::DocPage</title>
<path fill="none" stroke="#000000" d="M722.4097,-30.428C756.2336,-33.5342 783.083,-36 783.083,-36 783.083,-36 1566.3142,-71.041 1870.9161,-84.6686"/>
<polygon fill="#000000" stroke="#000000" points="1870.9616,-88.174 1881.1081,-85.1246 1871.2746,-81.181 1870.9616,-88.174"/>
</g>
<!-- Documentable::DocPage::SubIndex::Routine -->
<g id="node4" class="node">
<title>Documentable::DocPage::SubIndex::Routine</title>
<g id="a_node4"><a xlink:href="/type/Documentable::DocPage::SubIndex::Routine" xlink:title="Documentable::DocPage::SubIndex::Routine">
<ellipse fill="none" stroke="#000000" cx="998.083" cy="-18" rx="206.0634" ry="18"/>
<text text-anchor="middle" x="998.083" y="-14.3" font-family="FreeSans" font-size="14.00" fill="#000000">Documentable::DocPage::SubIndex::Routine</text>
</a>
</g>
</g>
<!-- Documentable::DocPage::SubIndex::Routine&#45;&gt;Documentable::DocPage -->
<g id="edge3" class="edge">
<title>Documentable::DocPage::SubIndex::Routine&#45;&gt;Documentable::DocPage</title>
<path fill="none" stroke="#000000" d="M1147.1148,-30.4771C1183.9409,-33.5602 1213.083,-36 1213.083,-36 1213.083,-36 1660.0715,-67.0648 1875.9949,-82.0711"/>
<polygon fill="#000000" stroke="#000000" points="1875.881,-85.5715 1886.0996,-82.7734 1876.3664,-78.5884 1875.881,-85.5715"/>
</g>
<!-- Documentable::DocPage::Secondary -->
<g id="node5" class="node">
<title>Documentable::DocPage::Secondary</title>
<g id="a_node5"><a xlink:href="/type/Documentable::DocPage::Secondary" xlink:title="Documentable::DocPage::Secondary">
<ellipse fill="none" stroke="#000000" cx="1389.083" cy="-18" rx="167.0704" ry="18"/>
<text text-anchor="middle" x="1389.083" y="-14.3" font-family="FreeSans" font-size="14.00" fill="#000000">Documentable::DocPage::Secondary</text>
</a>
</g>
</g>
<!-- Documentable::DocPage::Secondary&#45;&gt;Documentable::DocPage -->
<g id="edge4" class="edge">
<title>Documentable::DocPage::Secondary&#45;&gt;Documentable::DocPage</title>
<path fill="none" stroke="#000000" d="M1501.0696,-31.416C1612.4338,-44.7575 1781.7423,-65.0407 1889.0896,-77.9009"/>
<polygon fill="#000000" stroke="#000000" points="1888.9352,-81.4074 1899.2805,-79.1218 1889.7679,-74.4571 1888.9352,-81.4074"/>
</g>
<!-- Documentable::DocPage::Primary::Language -->
<g id="node6" class="node">
<title>Documentable::DocPage::Primary::Language</title>
<g id="a_node6"><a xlink:href="/type/Documentable::DocPage::Primary::Language" xlink:title="Documentable::DocPage::Primary::Language">
<ellipse fill="none" stroke="#000000" cx="1780.083" cy="-18" rx="206.0634" ry="18"/>
<text text-anchor="middle" x="1780.083" y="-14.3" font-family="FreeSans" font-size="14.00" fill="#000000">Documentable::DocPage::Primary::Language</text>
</a>
</g>
</g>
<!-- Documentable::DocPage::Primary::Language&#45;&gt;Documentable::DocPage -->
<g id="edge5" class="edge">
<title>Documentable::DocPage::Primary::Language&#45;&gt;Documentable::DocPage</title>
<path fill="none" stroke="#000000" d="M1831.1863,-35.5211C1861.8834,-46.0458 1901.0125,-59.4615 1932.7595,-70.3462"/>
<polygon fill="#000000" stroke="#000000" points="1931.7628,-73.7044 1942.3575,-73.6369 1934.0331,-67.0828 1931.7628,-73.7044"/>
</g>
<!-- Documentable::DocPage::Index::Programs -->
<g id="node7" class="node">
<title>Documentable::DocPage::Index::Programs</title>
<g id="a_node7"><a xlink:href="/type/Documentable::DocPage::Index::Programs" xlink:title="Documentable::DocPage::Index::Programs">
<ellipse fill="none" stroke="#000000" cx="2200.083" cy="-18" rx="196.0654" ry="18"/>
<text text-anchor="middle" x="2200.083" y="-14.3" font-family="FreeSans" font-size="14.00" fill="#000000">Documentable::DocPage::Index::Programs</text>
</a>
</g>
</g>
<!-- Documentable::DocPage::Index::Programs&#45;&gt;Documentable::DocPage -->
<g id="edge6" class="edge">
<title>Documentable::DocPage::Index::Programs&#45;&gt;Documentable::DocPage</title>
<path fill="none" stroke="#000000" d="M2149.2479,-35.4292C2118.556,-45.9521 2079.3615,-59.3902 2047.5471,-70.298"/>
<polygon fill="#000000" stroke="#000000" points="2046.2525,-67.0418 2037.9282,-73.5959 2048.5228,-73.6634 2046.2525,-67.0418"/>
</g>
<!-- Documentable::DocPage::Index::Type -->
<g id="node8" class="node">
<title>Documentable::DocPage::Index::Type</title>
<g id="a_node8"><a xlink:href="/type/Documentable::DocPage::Index::Type" xlink:title="Documentable::DocPage::Index::Type">
<ellipse fill="none" stroke="#000000" cx="2591.083" cy="-18" rx="176.5689" ry="18"/>
<text text-anchor="middle" x="2591.083" y="-14.3" font-family="FreeSans" font-size="14.00" fill="#000000">Documentable::DocPage::Index::Type</text>
</a>
</g>
</g>
<!-- Documentable::DocPage::Index::Type&#45;&gt;Documentable::DocPage -->
<g id="edge7" class="edge">
<title>Documentable::DocPage::Index::Type&#45;&gt;Documentable::DocPage</title>
<path fill="none" stroke="#000000" d="M2476.2703,-31.7546C2364.7095,-45.1196 2196.9932,-65.2121 2090.5749,-77.961"/>
<polygon fill="#000000" stroke="#000000" points="2089.9843,-74.5067 2080.4717,-79.1714 2090.817,-81.457 2089.9843,-74.5067"/>
</g>
<!-- Documentable::DocPage::Index::Language -->
<g id="node9" class="node">
<title>Documentable::DocPage::Index::Language</title>
<g id="a_node9"><a xlink:href="/type/Documentable::DocPage::Index::Language" xlink:title="Documentable::DocPage::Index::Language">
<ellipse fill="none" stroke="#000000" cx="2982.083" cy="-18" rx="196.0654" ry="18"/>
<text text-anchor="middle" x="2982.083" y="-14.3" font-family="FreeSans" font-size="14.00" fill="#000000">Documentable::DocPage::Index::Language</text>
</a>
</g>
</g>
<!-- Documentable::DocPage::Index::Language&#45;&gt;Documentable::DocPage -->
<g id="edge8" class="edge">
<title>Documentable::DocPage::Index::Language&#45;&gt;Documentable::DocPage</title>
<path fill="none" stroke="#000000" d="M2840.2625,-30.4525C2805.0173,-33.5472 2777.083,-36 2777.083,-36 2777.083,-36 2322.6188,-67.1831 2104.3947,-82.1565"/>
<polygon fill="#000000" stroke="#000000" points="2103.9213,-78.6807 2094.1844,-82.8571 2104.4006,-85.6642 2103.9213,-78.6807"/>
</g>
<!-- Documentable::DocPage::Index::Routine -->
<g id="node10" class="node">
<title>Documentable::DocPage::Index::Routine</title>
<g id="a_node10"><a xlink:href="/type/Documentable::DocPage::Index::Routine" xlink:title="Documentable::DocPage::Index::Routine">
<ellipse fill="none" stroke="#000000" cx="3387.083" cy="-18" rx="191.1661" ry="18"/>
<text text-anchor="middle" x="3387.083" y="-14.3" font-family="FreeSans" font-size="14.00" fill="#000000">Documentable::DocPage::Index::Routine</text>
</a>
</g>
</g>
<!-- Documentable::DocPage::Index::Routine&#45;&gt;Documentable::DocPage -->
<g id="edge9" class="edge">
<title>Documentable::DocPage::Index::Routine&#45;&gt;Documentable::DocPage</title>
<path fill="none" stroke="#000000" d="M3248.7216,-30.4525C3214.336,-33.5472 3187.083,-36 3187.083,-36 3187.083,-36 2411.737,-70.978 2109.0785,-84.6318"/>
<polygon fill="#000000" stroke="#000000" points="2108.7825,-81.1415 2098.9505,-85.0887 2109.0981,-88.1344 2108.7825,-81.1415"/>
</g>
<!-- Documentable::DocPage::Primary::Programs -->
<g id="node11" class="node">
<title>Documentable::DocPage::Primary::Programs</title>
<g id="a_node11"><a xlink:href="/type/Documentable::DocPage::Primary::Programs" xlink:title="Documentable::DocPage::Primary::Programs">
<ellipse fill="none" stroke="#000000" cx="3802.083" cy="-18" rx="206.0634" ry="18"/>
<text text-anchor="middle" x="3802.083" y="-14.3" font-family="FreeSans" font-size="14.00" fill="#000000">Documentable::DocPage::Primary::Programs</text>
</a>
</g>
</g>
<!-- Documentable::DocPage::Primary::Programs&#45;&gt;Documentable::DocPage -->
<g id="edge10" class="edge">
<title>Documentable::DocPage::Primary::Programs&#45;&gt;Documentable::DocPage</title>
<path fill="none" stroke="#000000" d="M3653.0513,-30.4771C3616.2252,-33.5602 3587.083,-36 3587.083,-36 3587.083,-36 2483.3901,-73.3196 2111.0628,-85.9093"/>
<polygon fill="#000000" stroke="#000000" points="2110.673,-82.4203 2100.797,-86.2564 2110.9096,-89.4163 2110.673,-82.4203"/>
</g>
</g>
</svg>
