<?xml version="1.0" encoding="UTF-8" standalone="no"?>
<!DOCTYPE svg PUBLIC "-//W3C//DTD SVG 1.1//EN"
 "http://www.w3.org/Graphics/SVG/1.1/DTD/svg11.dtd">
<!-- Generated by graphviz version 2.42.3 ()
 -->
<!-- Title: perl6&#45;type&#45;graph Pages: 1 -->
<svg width="4015pt" height="116pt"
 viewBox="0.00 0.00 4014.62 116.00" xmlns="http://www.w3.org/2000/svg" xmlns:xlink="http://www.w3.org/1999/xlink">
<g id="graph0" class="graph" transform="scale(1 1) rotate(0) translate(4 112)">
<title>perl6&#45;type&#45;graph</title>
<polygon fill="white" stroke="transparent" points="-4,4 -4,-112 4010.62,-112 4010.62,4 -4,4"/>
<!-- Documentable::DocPage -->
<g id="node1" class="node">
<title>Documentable::DocPage</title>
<g id="a_node1"><a xlink:href="/type/Documentable::DocPage" xlink:title="Documentable::DocPage">
<ellipse fill="none" stroke="#6666ff" cx="2008.53" cy="-90" rx="113.18" ry="18"/>
<text text-anchor="middle" x="2008.53" y="-86.3" font-family="FreeSans" font-size="14.00" fill="#6666ff">Documentable::DocPage</text>
</a>
</g>
</g>
<!-- Documentable::DocPage::Primary::Type -->
<g id="node2" class="node">
<title>Documentable::DocPage::Primary::Type</title>
<g id="a_node2"><a xlink:href="/type/Documentable::DocPage::Primary::Type" xlink:title="Documentable::DocPage::Primary::Type">
<ellipse fill="none" stroke="#000000" cx="186.53" cy="-18" rx="186.57" ry="18"/>
<text text-anchor="middle" x="186.53" y="-14.3" font-family="FreeSans" font-size="14.00" fill="#000000">Documentable::DocPage::Primary::Type</text>
</a>
</g>
</g>
<!-- Documentable::DocPage::Primary::Type&#45;&gt;Documentable::DocPage -->
<g id="edge1" class="edge">
<title>Documentable::DocPage::Primary::Type&#45;&gt;Documentable::DocPage</title>
<path fill="none" stroke="#000000" d="M319.83,-30.62C354.11,-33.61 381.53,-36 381.53,-36 381.53,-36 1513.07,-72.86 1888.85,-85.1"/>
<polygon fill="#000000" stroke="#000000" points="1888.83,-88.6 1898.94,-85.43 1889.06,-81.61 1888.83,-88.6"/>
</g>
<!-- Documentable::DocPage::Index::Type -->
<g id="node3" class="node">
<title>Documentable::DocPage::Index::Type</title>
<g id="a_node3"><a xlink:href="/type/Documentable::DocPage::Index::Type" xlink:title="Documentable::DocPage::Index::Type">
<ellipse fill="none" stroke="#000000" cx="567.53" cy="-18" rx="176.57" ry="18"/>
<text text-anchor="middle" x="567.53" y="-14.3" font-family="FreeSans" font-size="14.00" fill="#000000">Documentable::DocPage::Index::Type</text>
</a>
</g>
</g>
<!-- Documentable::DocPage::Index::Type&#45;&gt;Documentable::DocPage -->
<g id="edge2" class="edge">
<title>Documentable::DocPage::Index::Type&#45;&gt;Documentable::DocPage</title>
<path fill="none" stroke="#000000" d="M694.17,-30.57C727.1,-33.58 753.53,-36 753.53,-36 753.53,-36 1577.7,-70.81 1890.27,-84.01"/>
<polygon fill="#000000" stroke="#000000" points="1890.58,-87.52 1900.72,-84.45 1890.88,-80.53 1890.58,-87.52"/>
</g>
<!-- Documentable::DocPage::Primary::Language -->
<g id="node4" class="node">
<title>Documentable::DocPage::Primary::Language</title>
<g id="a_node4"><a xlink:href="/type/Documentable::DocPage::Primary::Language" xlink:title="Documentable::DocPage::Primary::Language">
<ellipse fill="none" stroke="#000000" cx="968.53" cy="-18" rx="206.06" ry="18"/>
<text text-anchor="middle" x="968.53" y="-14.3" font-family="FreeSans" font-size="14.00" fill="#000000">Documentable::DocPage::Primary::Language</text>
</a>
</g>
</g>
<!-- Documentable::DocPage::Primary::Language&#45;&gt;Documentable::DocPage -->
<g id="edge3" class="edge">
<title>Documentable::DocPage::Primary::Language&#45;&gt;Documentable::DocPage</title>
<path fill="none" stroke="#000000" d="M1115.51,-30.62C1153.3,-33.61 1183.53,-36 1183.53,-36 1183.53,-36 1669.51,-67.22 1895.48,-81.74"/>
<polygon fill="#000000" stroke="#000000" points="1895.51,-85.25 1905.71,-82.39 1895.96,-78.26 1895.51,-85.25"/>
</g>
<!-- Documentable::DocPage::Primary::Programs -->
<g id="node5" class="node">
<title>Documentable::DocPage::Primary::Programs</title>
<g id="a_node5"><a xlink:href="/type/Documentable::DocPage::Primary::Programs" xlink:title="Documentable::DocPage::Primary::Programs">
<ellipse fill="none" stroke="#000000" cx="1398.53" cy="-18" rx="206.06" ry="18"/>
<text text-anchor="middle" x="1398.53" y="-14.3" font-family="FreeSans" font-size="14.00" fill="#000000">Documentable::DocPage::Primary::Programs</text>
</a>
</g>
</g>
<!-- Documentable::DocPage::Primary::Programs&#45;&gt;Documentable::DocPage -->
<g id="edge4" class="edge">
<title>Documentable::DocPage::Primary::Programs&#45;&gt;Documentable::DocPage</title>
<path fill="none" stroke="#000000" d="M1517.96,-32.7C1632.2,-45.81 1802.48,-65.35 1909.42,-77.63"/>
<polygon fill="#000000" stroke="#000000" points="1909.23,-81.13 1919.57,-78.79 1910.03,-74.17 1909.23,-81.13"/>
</g>
<!-- Documentable::DocPage::Index::Programs -->
<g id="node6" class="node">
<title>Documentable::DocPage::Index::Programs</title>
<g id="a_node6"><a xlink:href="/type/Documentable::DocPage::Index::Programs" xlink:title="Documentable::DocPage::Index::Programs">
<ellipse fill="none" stroke="#000000" cx="1818.53" cy="-18" rx="196.07" ry="18"/>
<text text-anchor="middle" x="1818.53" y="-14.3" font-family="FreeSans" font-size="14.00" fill="#000000">Documentable::DocPage::Index::Programs</text>
</a>
</g>
</g>
<!-- Documentable::DocPage::Index::Programs&#45;&gt;Documentable::DocPage -->
<g id="edge5" class="edge">
<title>Documentable::DocPage::Index::Programs&#45;&gt;Documentable::DocPage</title>
<path fill="none" stroke="#000000" d="M1863.56,-35.59C1891.36,-45.83 1927.15,-59.02 1956.21,-69.72"/>
<polygon fill="#000000" stroke="#000000" points="1955.19,-73.08 1965.79,-73.25 1957.61,-66.51 1955.19,-73.08"/>
</g>
<!-- Documentable::DocPage::Secondary -->
<g id="node7" class="node">
<title>Documentable::DocPage::Secondary</title>
<g id="a_node7"><a xlink:href="/type/Documentable::DocPage::Secondary" xlink:title="Documentable::DocPage::Secondary">
<ellipse fill="none" stroke="#000000" cx="2199.53" cy="-18" rx="167.07" ry="18"/>
<text text-anchor="middle" x="2199.53" y="-14.3" font-family="FreeSans" font-size="14.00" fill="#000000">Documentable::DocPage::Secondary</text>
</a>
</g>
</g>
<!-- Documentable::DocPage::Secondary&#45;&gt;Documentable::DocPage -->
<g id="edge6" class="edge">
<title>Documentable::DocPage::Secondary&#45;&gt;Documentable::DocPage</title>
<path fill="none" stroke="#000000" d="M2154.75,-35.41C2126.72,-45.69 2090.47,-58.97 2061.08,-69.74"/>
<polygon fill="#000000" stroke="#000000" points="2059.58,-66.56 2051.39,-73.29 2061.99,-73.14 2059.58,-66.56"/>
</g>
<!-- Documentable::DocPage::Index::Language -->
<g id="node8" class="node">
<title>Documentable::DocPage::Index::Language</title>
<g id="a_node8"><a xlink:href="/type/Documentable::DocPage::Index::Language" xlink:title="Documentable::DocPage::Index::Language">
<ellipse fill="none" stroke="#000000" cx="2580.53" cy="-18" rx="196.07" ry="18"/>
<text text-anchor="middle" x="2580.53" y="-14.3" font-family="FreeSans" font-size="14.00" fill="#000000">Documentable::DocPage::Index::Language</text>
</a>
</g>
</g>
<!-- Documentable::DocPage::Index::Language&#45;&gt;Documentable::DocPage -->
<g id="edge7" class="edge">
<title>Documentable::DocPage::Index::Language&#45;&gt;Documentable::DocPage</title>
<path fill="none" stroke="#000000" d="M2467.87,-32.79C2362.14,-45.73 2205.67,-64.87 2105.41,-77.14"/>
<polygon fill="#000000" stroke="#000000" points="2104.78,-73.7 2095.28,-78.38 2105.63,-80.64 2104.78,-73.7"/>
</g>
<!-- Documentable::DocPage::SubIndex::Routine -->
<g id="node9" class="node">
<title>Documentable::DocPage::SubIndex::Routine</title>
<g id="a_node9"><a xlink:href="/type/Documentable::DocPage::SubIndex::Routine" xlink:title="Documentable::DocPage::SubIndex::Routine">
<ellipse fill="none" stroke="#000000" cx="3000.53" cy="-18" rx="206.06" ry="18"/>
<text text-anchor="middle" x="3000.53" y="-14.3" font-family="FreeSans" font-size="14.00" fill="#000000">Documentable::DocPage::SubIndex::Routine</text>
</a>
</g>
</g>
<!-- Documentable::DocPage::SubIndex::Routine&#45;&gt;Documentable::DocPage -->
<g id="edge8" class="edge">
<title>Documentable::DocPage::SubIndex::Routine&#45;&gt;Documentable::DocPage</title>
<path fill="none" stroke="#000000" d="M2853.56,-30.62C2815.77,-33.61 2785.53,-36 2785.53,-36 2785.53,-36 2335.14,-66.72 2120.17,-81.39"/>
<polygon fill="#000000" stroke="#000000" points="2119.85,-77.9 2110.11,-82.07 2120.33,-84.88 2119.85,-77.9"/>
</g>
<!-- Documentable::DocPage::SubIndex::Type -->
<g id="node10" class="node">
<title>Documentable::DocPage::SubIndex::Type</title>
<g id="a_node10"><a xlink:href="/type/Documentable::DocPage::SubIndex::Type" xlink:title="Documentable::DocPage::SubIndex::Type">
<ellipse fill="none" stroke="#000000" cx="3415.53" cy="-18" rx="191.17" ry="18"/>
<text text-anchor="middle" x="3415.53" y="-14.3" font-family="FreeSans" font-size="14.00" fill="#000000">Documentable::DocPage::SubIndex::Type</text>
</a>
</g>
</g>
<!-- Documentable::DocPage::SubIndex::Type&#45;&gt;Documentable::DocPage -->
<g id="edge9" class="edge">
<title>Documentable::DocPage::SubIndex::Type&#45;&gt;Documentable::DocPage</title>
<path fill="none" stroke="#000000" d="M3278.81,-30.62C3243.66,-33.61 3215.53,-36 3215.53,-36 3215.53,-36 2429.48,-70.52 2126.06,-83.84"/>
<polygon fill="#000000" stroke="#000000" points="2125.75,-80.35 2115.91,-84.28 2126.06,-87.34 2125.75,-80.35"/>
</g>
<!-- Documentable::DocPage::Index::Routine -->
<g id="node11" class="node">
<title>Documentable::DocPage::Index::Routine</title>
<g id="a_node11"><a xlink:href="/type/Documentable::DocPage::Index::Routine" xlink:title="Documentable::DocPage::Index::Routine">
<ellipse fill="none" stroke="#000000" cx="3815.53" cy="-18" rx="191.17" ry="18"/>
<text text-anchor="middle" x="3815.53" y="-14.3" font-family="FreeSans" font-size="14.00" fill="#000000">Documentable::DocPage::Index::Routine</text>
</a>
</g>
</g>
<!-- Documentable::DocPage::Index::Routine&#45;&gt;Documentable::DocPage -->
<g id="edge10" class="edge">
<title>Documentable::DocPage::Index::Routine&#45;&gt;Documentable::DocPage</title>
<path fill="none" stroke="#000000" d="M3678.81,-30.62C3643.66,-33.61 3615.53,-36 3615.53,-36 3615.53,-36 2500.5,-72.77 2128.04,-85.06"/>
<polygon fill="#000000" stroke="#000000" points="2127.92,-81.56 2118.04,-85.39 2128.15,-88.56 2127.92,-81.56"/>
</g>
</g>
</svg>
