<?xml version="1.0" encoding="UTF-8" standalone="no"?>
<!DOCTYPE svg PUBLIC "-//W3C//DTD SVG 1.1//EN"
 "http://www.w3.org/Graphics/SVG/1.1/DTD/svg11.dtd">
<!-- Generated by graphviz version 2.40.1 (0)
 -->
<!-- Title: perl6&#45;type&#45;graph Pages: 1 -->
<svg width="4016pt" height="116pt"
 viewBox="0.00 0.00 4016.31 116.00" xmlns="http://www.w3.org/2000/svg" xmlns:xlink="http://www.w3.org/1999/xlink">
<g id="graph0" class="graph" transform="scale(1 1) rotate(0) translate(4 112)">
<title>perl6&#45;type&#45;graph</title>
<polygon fill="#ffffff" stroke="transparent" points="-4,4 -4,-112 4012.3143,-112 4012.3143,4 -4,4"/>
<!-- Documentable::DocPage -->
<g id="node1" class="node">
<title>Documentable::DocPage</title>
<g id="a_node1"><a xlink:href="/type/Documentable::DocPage" xlink:title="Documentable::DocPage">
<ellipse fill="none" stroke="#6666ff" cx="1954.0317" cy="-90" rx="113.18" ry="18"/>
<text text-anchor="middle" x="1954.0317" y="-86.3" font-family="FreeSans" font-size="14.00" fill="#6666ff">Documentable::DocPage</text>
</a>
</g>
</g>
<!-- Documentable::DocPage::Primary::Programs -->
<g id="node2" class="node">
<title>Documentable::DocPage::Primary::Programs</title>
<g id="a_node2"><a xlink:href="/type/Documentable::DocPage::Primary::Programs" xlink:title="Documentable::DocPage::Primary::Programs">
<ellipse fill="none" stroke="#000000" cx="206.0317" cy="-18" rx="206.0634" ry="18"/>
<text text-anchor="middle" x="206.0317" y="-14.3" font-family="FreeSans" font-size="14.00" fill="#000000">Documentable::DocPage::Primary::Programs</text>
</a>
</g>
</g>
<!-- Documentable::DocPage::Primary::Programs&#45;&gt;Documentable::DocPage -->
<g id="edge1" class="edge">
<title>Documentable::DocPage::Primary::Programs&#45;&gt;Documentable::DocPage</title>
<path fill="none" stroke="#000000" d="M355.0635,-30.4771C391.8896,-33.5602 421.0317,-36 421.0317,-36 421.0317,-36 1471.3627,-72.998 1833.2305,-85.7448"/>
<polygon fill="#000000" stroke="#000000" points="1833.3569,-89.2513 1843.474,-86.1056 1833.6034,-82.2556 1833.3569,-89.2513"/>
</g>
<!-- Documentable::DocPage::SubIndex::Type -->
<g id="node3" class="node">
<title>Documentable::DocPage::SubIndex::Type</title>
<g id="a_node3"><a xlink:href="/type/Documentable::DocPage::SubIndex::Type" xlink:title="Documentable::DocPage::SubIndex::Type">
<ellipse fill="none" stroke="#000000" cx="621.0317" cy="-18" rx="191.1661" ry="18"/>
<text text-anchor="middle" x="621.0317" y="-14.3" font-family="FreeSans" font-size="14.00" fill="#000000">Documentable::DocPage::SubIndex::Type</text>
</a>
</g>
</g>
<!-- Documentable::DocPage::SubIndex::Type&#45;&gt;Documentable::DocPage -->
<g id="edge2" class="edge">
<title>Documentable::DocPage::SubIndex::Type&#45;&gt;Documentable::DocPage</title>
<path fill="none" stroke="#000000" d="M759.3932,-30.4525C793.7788,-33.5472 821.0317,-36 821.0317,-36 821.0317,-36 1544.9908,-70.5047 1835.502,-84.3507"/>
<polygon fill="#000000" stroke="#000000" points="1835.4963,-87.8544 1845.6517,-84.8345 1835.8297,-80.8623 1835.4963,-87.8544"/>
</g>
<!-- Documentable::DocPage::Index::Routine -->
<g id="node4" class="node">
<title>Documentable::DocPage::Index::Routine</title>
<g id="a_node4"><a xlink:href="/type/Documentable::DocPage::Index::Routine" xlink:title="Documentable::DocPage::Index::Routine">
<ellipse fill="none" stroke="#000000" cx="1021.0317" cy="-18" rx="191.1661" ry="18"/>
<text text-anchor="middle" x="1021.0317" y="-14.3" font-family="FreeSans" font-size="14.00" fill="#000000">Documentable::DocPage::Index::Routine</text>
</a>
</g>
</g>
<!-- Documentable::DocPage::Index::Routine&#45;&gt;Documentable::DocPage -->
<g id="edge3" class="edge">
<title>Documentable::DocPage::Index::Routine&#45;&gt;Documentable::DocPage</title>
<path fill="none" stroke="#000000" d="M1159.3932,-30.4525C1193.7788,-33.5472 1221.0317,-36 1221.0317,-36 1221.0317,-36 1635.4955,-66.5335 1841.1076,-81.6809"/>
<polygon fill="#000000" stroke="#000000" points="1841.1092,-85.1904 1851.3394,-82.4347 1841.6236,-78.2093 1841.1092,-85.1904"/>
</g>
<!-- Documentable::DocPage::Secondary -->
<g id="node5" class="node">
<title>Documentable::DocPage::Secondary</title>
<g id="a_node5"><a xlink:href="/type/Documentable::DocPage::Secondary" xlink:title="Documentable::DocPage::Secondary">
<ellipse fill="none" stroke="#000000" cx="1397.0317" cy="-18" rx="167.0704" ry="18"/>
<text text-anchor="middle" x="1397.0317" y="-14.3" font-family="FreeSans" font-size="14.00" fill="#000000">Documentable::DocPage::Secondary</text>
</a>
</g>
</g>
<!-- Documentable::DocPage::Secondary&#45;&gt;Documentable::DocPage -->
<g id="edge4" class="edge">
<title>Documentable::DocPage::Secondary&#45;&gt;Documentable::DocPage</title>
<path fill="none" stroke="#000000" d="M1504.0972,-31.8397C1605.834,-44.9906 1757.5244,-64.5987 1856.1221,-77.3438"/>
<polygon fill="#000000" stroke="#000000" points="1855.7224,-80.8212 1866.0886,-78.6321 1856.6198,-73.8789 1855.7224,-80.8212"/>
</g>
<!-- Documentable::DocPage::Index::Type -->
<g id="node6" class="node">
<title>Documentable::DocPage::Index::Type</title>
<g id="a_node6"><a xlink:href="/type/Documentable::DocPage::Index::Type" xlink:title="Documentable::DocPage::Index::Type">
<ellipse fill="none" stroke="#000000" cx="1759.0317" cy="-18" rx="176.5689" ry="18"/>
<text text-anchor="middle" x="1759.0317" y="-14.3" font-family="FreeSans" font-size="14.00" fill="#000000">Documentable::DocPage::Index::Type</text>
</a>
</g>
</g>
<!-- Documentable::DocPage::Index::Type&#45;&gt;Documentable::DocPage -->
<g id="edge5" class="edge">
<title>Documentable::DocPage::Index::Type&#45;&gt;Documentable::DocPage</title>
<path fill="none" stroke="#000000" d="M1806.2358,-35.4292C1834.2872,-45.7866 1869.9875,-58.9683 1899.2733,-69.7815"/>
<polygon fill="#000000" stroke="#000000" points="1898.3455,-73.1699 1908.9388,-73.3503 1900.7702,-66.6032 1898.3455,-73.1699"/>
</g>
<!-- Documentable::DocPage::Index::Language -->
<g id="node7" class="node">
<title>Documentable::DocPage::Index::Language</title>
<g id="a_node7"><a xlink:href="/type/Documentable::DocPage::Index::Language" xlink:title="Documentable::DocPage::Index::Language">
<ellipse fill="none" stroke="#000000" cx="2150.0317" cy="-18" rx="196.0654" ry="18"/>
<text text-anchor="middle" x="2150.0317" y="-14.3" font-family="FreeSans" font-size="14.00" fill="#000000">Documentable::DocPage::Index::Language</text>
</a>
</g>
</g>
<!-- Documentable::DocPage::Index::Language&#45;&gt;Documentable::DocPage -->
<g id="edge6" class="edge">
<title>Documentable::DocPage::Index::Language&#45;&gt;Documentable::DocPage</title>
<path fill="none" stroke="#000000" d="M2102.3354,-35.5211C2074.1353,-45.8803 2038.311,-59.0403 2008.9368,-69.8308"/>
<polygon fill="#000000" stroke="#000000" points="2007.4226,-66.6583 1999.2427,-73.3919 2009.8363,-73.229 2007.4226,-66.6583"/>
</g>
<!-- Documentable::DocPage::Primary::Language -->
<g id="node8" class="node">
<title>Documentable::DocPage::Primary::Language</title>
<g id="a_node8"><a xlink:href="/type/Documentable::DocPage::Primary::Language" xlink:title="Documentable::DocPage::Primary::Language">
<ellipse fill="none" stroke="#000000" cx="2570.0317" cy="-18" rx="206.0634" ry="18"/>
<text text-anchor="middle" x="2570.0317" y="-14.3" font-family="FreeSans" font-size="14.00" fill="#000000">Documentable::DocPage::Primary::Language</text>
</a>
</g>
</g>
<!-- Documentable::DocPage::Primary::Language&#45;&gt;Documentable::DocPage -->
<g id="edge7" class="edge">
<title>Documentable::DocPage::Primary::Language&#45;&gt;Documentable::DocPage</title>
<path fill="none" stroke="#000000" d="M2446.4859,-32.4404C2331.654,-45.8623 2162.6656,-65.6142 2055.5139,-78.1384"/>
<polygon fill="#000000" stroke="#000000" points="2054.8673,-74.6901 2045.3413,-79.3275 2055.68,-81.6428 2054.8673,-74.6901"/>
</g>
<!-- Documentable::DocPage::SubIndex::Routine -->
<g id="node9" class="node">
<title>Documentable::DocPage::SubIndex::Routine</title>
<g id="a_node9"><a xlink:href="/type/Documentable::DocPage::SubIndex::Routine" xlink:title="Documentable::DocPage::SubIndex::Routine">
<ellipse fill="none" stroke="#000000" cx="3000.0317" cy="-18" rx="206.0634" ry="18"/>
<text text-anchor="middle" x="3000.0317" y="-14.3" font-family="FreeSans" font-size="14.00" fill="#000000">Documentable::DocPage::SubIndex::Routine</text>
</a>
</g>
</g>
<!-- Documentable::DocPage::SubIndex::Routine&#45;&gt;Documentable::DocPage -->
<g id="edge8" class="edge">
<title>Documentable::DocPage::SubIndex::Routine&#45;&gt;Documentable::DocPage</title>
<path fill="none" stroke="#000000" d="M2850.9999,-30.4771C2814.1738,-33.5602 2785.0317,-36 2785.0317,-36 2785.0317,-36 2296.8797,-67.7211 2068.8522,-82.5387"/>
<polygon fill="#000000" stroke="#000000" points="2068.6094,-79.047 2058.8574,-83.1882 2069.0633,-86.0323 2068.6094,-79.047"/>
</g>
<!-- Documentable::DocPage::Primary::Type -->
<g id="node10" class="node">
<title>Documentable::DocPage::Primary::Type</title>
<g id="a_node10"><a xlink:href="/type/Documentable::DocPage::Primary::Type" xlink:title="Documentable::DocPage::Primary::Type">
<ellipse fill="none" stroke="#000000" cx="3411.0317" cy="-18" rx="186.5669" ry="18"/>
<text text-anchor="middle" x="3411.0317" y="-14.3" font-family="FreeSans" font-size="14.00" fill="#000000">Documentable::DocPage::Primary::Type</text>
</a>
</g>
</g>
<!-- Documentable::DocPage::Primary::Type&#45;&gt;Documentable::DocPage -->
<g id="edge9" class="edge">
<title>Documentable::DocPage::Primary::Type&#45;&gt;Documentable::DocPage</title>
<path fill="none" stroke="#000000" d="M3275.7051,-30.428C3241.8811,-33.5342 3215.0317,-36 3215.0317,-36 3215.0317,-36 2388.0779,-71.4128 2073.521,-84.8831"/>
<polygon fill="#000000" stroke="#000000" points="2073.2979,-81.3893 2063.4568,-85.3141 2073.5975,-88.3829 2073.2979,-81.3893"/>
</g>
<!-- Documentable::DocPage::Index::Programs -->
<g id="node11" class="node">
<title>Documentable::DocPage::Index::Programs</title>
<g id="a_node11"><a xlink:href="/type/Documentable::DocPage::Index::Programs" xlink:title="Documentable::DocPage::Index::Programs">
<ellipse fill="none" stroke="#000000" cx="3812.0317" cy="-18" rx="196.0654" ry="18"/>
<text text-anchor="middle" x="3812.0317" y="-14.3" font-family="FreeSans" font-size="14.00" fill="#000000">Documentable::DocPage::Index::Programs</text>
</a>
</g>
</g>
<!-- Documentable::DocPage::Index::Programs&#45;&gt;Documentable::DocPage -->
<g id="edge10" class="edge">
<title>Documentable::DocPage::Index::Programs&#45;&gt;Documentable::DocPage</title>
<path fill="none" stroke="#000000" d="M3670.2112,-30.4525C3634.966,-33.5472 3607.0317,-36 3607.0317,-36 3607.0317,-36 2456.7461,-73.5774 2075.2948,-86.0386"/>
<polygon fill="#000000" stroke="#000000" points="2074.9368,-82.5483 2065.0565,-86.3731 2075.1654,-89.5446 2074.9368,-82.5483"/>
</g>
</g>
</svg>
