<?xml version="1.0" encoding="UTF-8" standalone="no"?>
<!DOCTYPE svg PUBLIC "-//W3C//DTD SVG 1.1//EN"
 "http://www.w3.org/Graphics/SVG/1.1/DTD/svg11.dtd">
<!-- Generated by graphviz version 2.40.1 (0)
 -->
<!-- Title: perl6&#45;type&#45;graph Pages: 1 -->
<svg width="4015pt" height="116pt"
 viewBox="0.00 0.00 4015.11 116.00" xmlns="http://www.w3.org/2000/svg" xmlns:xlink="http://www.w3.org/1999/xlink">
<g id="graph0" class="graph" transform="scale(1 1) rotate(0) translate(4 112)">
<title>perl6&#45;type&#45;graph</title>
<polygon fill="#ffffff" stroke="transparent" points="-4,4 -4,-112 4011.1148,-112 4011.1148,4 -4,4"/>
<!-- Documentable::DocPage -->
<g id="node1" class="node">
<title>Documentable::DocPage</title>
<g id="a_node1"><a xlink:href="/type/Documentable::DocPage" xlink:title="Documentable::DocPage">
<ellipse fill="none" stroke="#6666ff" cx="2098.0317" cy="-90" rx="113.18" ry="18"/>
<text text-anchor="middle" x="2098.0317" y="-86.3" font-family="FreeSans" font-size="14.00" fill="#6666ff">Documentable::DocPage</text>
</a>
</g>
</g>
<!-- Documentable::DocPage::SubIndex::Routine -->
<g id="node2" class="node">
<title>Documentable::DocPage::SubIndex::Routine</title>
<g id="a_node2"><a xlink:href="/type/Documentable::DocPage::SubIndex::Routine" xlink:title="Documentable::DocPage::SubIndex::Routine">
<ellipse fill="none" stroke="#000000" cx="206.0317" cy="-18" rx="206.0634" ry="18"/>
<text text-anchor="middle" x="206.0317" y="-14.3" font-family="FreeSans" font-size="14.00" fill="#000000">Documentable::DocPage::SubIndex::Routine</text>
</a>
</g>
</g>
<!-- Documentable::DocPage::SubIndex::Routine&#45;&gt;Documentable::DocPage -->
<g id="edge1" class="edge">
<title>Documentable::DocPage::SubIndex::Routine&#45;&gt;Documentable::DocPage</title>
<path fill="none" stroke="#000000" d="M355.0635,-30.4771C391.8896,-33.5602 421.0317,-36 421.0317,-36 421.0317,-36 1591.9821,-73.705 1976.9713,-86.1018"/>
<polygon fill="#000000" stroke="#000000" points="1976.9181,-89.6018 1987.0256,-86.4256 1977.1435,-82.6054 1976.9181,-89.6018"/>
</g>
<!-- Documentable::DocPage::Primary::Language -->
<g id="node3" class="node">
<title>Documentable::DocPage::Primary::Language</title>
<g id="a_node3"><a xlink:href="/type/Documentable::DocPage::Primary::Language" xlink:title="Documentable::DocPage::Primary::Language">
<ellipse fill="none" stroke="#000000" cx="636.0317" cy="-18" rx="206.0634" ry="18"/>
<text text-anchor="middle" x="636.0317" y="-14.3" font-family="FreeSans" font-size="14.00" fill="#000000">Documentable::DocPage::Primary::Language</text>
</a>
</g>
</g>
<!-- Documentable::DocPage::Primary::Language&#45;&gt;Documentable::DocPage -->
<g id="edge2" class="edge">
<title>Documentable::DocPage::Primary::Language&#45;&gt;Documentable::DocPage</title>
<path fill="none" stroke="#000000" d="M785.0635,-30.4771C821.8896,-33.5602 851.0317,-36 851.0317,-36 851.0317,-36 1666.0493,-71.2935 1978.2914,-84.8148"/>
<polygon fill="#000000" stroke="#000000" points="1978.5921,-88.331 1988.7342,-85.267 1978.895,-81.3375 1978.5921,-88.331"/>
</g>
<!-- Documentable::DocPage::Index::Language -->
<g id="node4" class="node">
<title>Documentable::DocPage::Index::Language</title>
<g id="a_node4"><a xlink:href="/type/Documentable::DocPage::Index::Language" xlink:title="Documentable::DocPage::Index::Language">
<ellipse fill="none" stroke="#000000" cx="1056.0317" cy="-18" rx="196.0654" ry="18"/>
<text text-anchor="middle" x="1056.0317" y="-14.3" font-family="FreeSans" font-size="14.00" fill="#000000">Documentable::DocPage::Index::Language</text>
</a>
</g>
</g>
<!-- Documentable::DocPage::Index::Language&#45;&gt;Documentable::DocPage -->
<g id="edge3" class="edge">
<title>Documentable::DocPage::Index::Language&#45;&gt;Documentable::DocPage</title>
<path fill="none" stroke="#000000" d="M1197.8522,-30.4525C1233.0974,-33.5472 1261.0317,-36 1261.0317,-36 1261.0317,-36 1753.3258,-67.7609 1982.8144,-82.5666"/>
<polygon fill="#000000" stroke="#000000" points="1982.668,-86.0644 1992.8726,-83.2155 1983.1187,-79.0789 1982.668,-86.0644"/>
</g>
<!-- Documentable::DocPage::Primary::Programs -->
<g id="node5" class="node">
<title>Documentable::DocPage::Primary::Programs</title>
<g id="a_node5"><a xlink:href="/type/Documentable::DocPage::Primary::Programs" xlink:title="Documentable::DocPage::Primary::Programs">
<ellipse fill="none" stroke="#000000" cx="1476.0317" cy="-18" rx="206.0634" ry="18"/>
<text text-anchor="middle" x="1476.0317" y="-14.3" font-family="FreeSans" font-size="14.00" fill="#000000">Documentable::DocPage::Primary::Programs</text>
</a>
</g>
</g>
<!-- Documentable::DocPage::Primary::Programs&#45;&gt;Documentable::DocPage -->
<g id="edge4" class="edge">
<title>Documentable::DocPage::Primary::Programs&#45;&gt;Documentable::DocPage</title>
<path fill="none" stroke="#000000" d="M1600.4078,-32.3972C1716.6087,-45.8481 1887.9684,-65.684 1996.2435,-78.2174"/>
<polygon fill="#000000" stroke="#000000" points="1995.8598,-81.6963 2006.196,-79.3695 1996.6648,-74.7427 1995.8598,-81.6963"/>
</g>
<!-- Documentable::DocPage::Index::Programs -->
<g id="node6" class="node">
<title>Documentable::DocPage::Index::Programs</title>
<g id="a_node6"><a xlink:href="/type/Documentable::DocPage::Index::Programs" xlink:title="Documentable::DocPage::Index::Programs">
<ellipse fill="none" stroke="#000000" cx="1896.0317" cy="-18" rx="196.0654" ry="18"/>
<text text-anchor="middle" x="1896.0317" y="-14.3" font-family="FreeSans" font-size="14.00" fill="#000000">Documentable::DocPage::Index::Programs</text>
</a>
</g>
</g>
<!-- Documentable::DocPage::Index::Programs&#45;&gt;Documentable::DocPage -->
<g id="edge5" class="edge">
<title>Documentable::DocPage::Index::Programs&#45;&gt;Documentable::DocPage</title>
<path fill="none" stroke="#000000" d="M1945.1882,-35.5211C1974.4832,-45.9629 2011.7618,-59.2503 2042.1688,-70.0884"/>
<polygon fill="#000000" stroke="#000000" points="2041.1862,-73.4539 2051.7809,-73.5145 2043.5365,-66.8602 2041.1862,-73.4539"/>
</g>
<!-- Documentable::DocPage::SubIndex::Type -->
<g id="node7" class="node">
<title>Documentable::DocPage::SubIndex::Type</title>
<g id="a_node7"><a xlink:href="/type/Documentable::DocPage::SubIndex::Type" xlink:title="Documentable::DocPage::SubIndex::Type">
<ellipse fill="none" stroke="#000000" cx="2301.0317" cy="-18" rx="191.1661" ry="18"/>
<text text-anchor="middle" x="2301.0317" y="-14.3" font-family="FreeSans" font-size="14.00" fill="#000000">Documentable::DocPage::SubIndex::Type</text>
</a>
</g>
</g>
<!-- Documentable::DocPage::SubIndex::Type&#45;&gt;Documentable::DocPage -->
<g id="edge6" class="edge">
<title>Documentable::DocPage::SubIndex::Type&#45;&gt;Documentable::DocPage</title>
<path fill="none" stroke="#000000" d="M2251.8911,-35.4292C2222.456,-45.8692 2184.9308,-59.1787 2154.3086,-70.0397"/>
<polygon fill="#000000" stroke="#000000" points="2152.8827,-66.8318 2144.6279,-73.4733 2155.2226,-73.4291 2152.8827,-66.8318"/>
</g>
<!-- Documentable::DocPage::Primary::Type -->
<g id="node8" class="node">
<title>Documentable::DocPage::Primary::Type</title>
<g id="a_node8"><a xlink:href="/type/Documentable::DocPage::Primary::Type" xlink:title="Documentable::DocPage::Primary::Type">
<ellipse fill="none" stroke="#000000" cx="2697.0317" cy="-18" rx="186.5669" ry="18"/>
<text text-anchor="middle" x="2697.0317" y="-14.3" font-family="FreeSans" font-size="14.00" fill="#000000">Documentable::DocPage::Primary::Type</text>
</a>
</g>
</g>
<!-- Documentable::DocPage::Primary::Type&#45;&gt;Documentable::DocPage -->
<g id="edge7" class="edge">
<title>Documentable::DocPage::Primary::Type&#45;&gt;Documentable::DocPage</title>
<path fill="none" stroke="#000000" d="M2580.1165,-32.0532C2469.1291,-45.394 2304.0468,-65.2369 2198.744,-77.8944"/>
<polygon fill="#000000" stroke="#000000" points="2198.2546,-74.4279 2188.7438,-79.0964 2199.0901,-81.3779 2198.2546,-74.4279"/>
</g>
<!-- Documentable::DocPage::Index::Type -->
<g id="node9" class="node">
<title>Documentable::DocPage::Index::Type</title>
<g id="a_node9"><a xlink:href="/type/Documentable::DocPage::Index::Type" xlink:title="Documentable::DocPage::Index::Type">
<ellipse fill="none" stroke="#000000" cx="3078.0317" cy="-18" rx="176.5689" ry="18"/>
<text text-anchor="middle" x="3078.0317" y="-14.3" font-family="FreeSans" font-size="14.00" fill="#000000">Documentable::DocPage::Index::Type</text>
</a>
</g>
</g>
<!-- Documentable::DocPage::Index::Type&#45;&gt;Documentable::DocPage -->
<g id="edge8" class="edge">
<title>Documentable::DocPage::Index::Type&#45;&gt;Documentable::DocPage</title>
<path fill="none" stroke="#000000" d="M2950.0474,-30.4525C2918.2407,-33.5472 2893.0317,-36 2893.0317,-36 2893.0317,-36 2432.7855,-67.262 2212.6699,-82.2133"/>
<polygon fill="#000000" stroke="#000000" points="2212.1123,-78.743 2202.3725,-82.9127 2212.5868,-85.7269 2212.1123,-78.743"/>
</g>
<!-- Documentable::DocPage::Secondary -->
<g id="node10" class="node">
<title>Documentable::DocPage::Secondary</title>
<g id="a_node10"><a xlink:href="/type/Documentable::DocPage::Secondary" xlink:title="Documentable::DocPage::Secondary">
<ellipse fill="none" stroke="#000000" cx="3440.0317" cy="-18" rx="167.0704" ry="18"/>
<text text-anchor="middle" x="3440.0317" y="-14.3" font-family="FreeSans" font-size="14.00" fill="#000000">Documentable::DocPage::Secondary</text>
</a>
</g>
</g>
<!-- Documentable::DocPage::Secondary&#45;&gt;Documentable::DocPage -->
<g id="edge9" class="edge">
<title>Documentable::DocPage::Secondary&#45;&gt;Documentable::DocPage</title>
<path fill="none" stroke="#000000" d="M3318.7545,-30.4034C3288.2688,-33.5212 3264.0317,-36 3264.0317,-36 3264.0317,-36 2514.0308,-70.7342 2217.0505,-84.488"/>
<polygon fill="#000000" stroke="#000000" points="2216.5065,-81.0093 2206.6791,-84.9683 2216.8304,-88.0018 2216.5065,-81.0093"/>
</g>
<!-- Documentable::DocPage::Index::Routine -->
<g id="node11" class="node">
<title>Documentable::DocPage::Index::Routine</title>
<g id="a_node11"><a xlink:href="/type/Documentable::DocPage::Index::Routine" xlink:title="Documentable::DocPage::Index::Routine">
<ellipse fill="none" stroke="#000000" cx="3816.0317" cy="-18" rx="191.1661" ry="18"/>
<text text-anchor="middle" x="3816.0317" y="-14.3" font-family="FreeSans" font-size="14.00" fill="#000000">Documentable::DocPage::Index::Routine</text>
</a>
</g>
</g>
<!-- Documentable::DocPage::Index::Routine&#45;&gt;Documentable::DocPage -->
<g id="edge10" class="edge">
<title>Documentable::DocPage::Index::Routine&#45;&gt;Documentable::DocPage</title>
<path fill="none" stroke="#000000" d="M3677.6702,-30.4525C3643.2847,-33.5472 3616.0317,-36 3616.0317,-36 3616.0317,-36 2577.8002,-72.9331 2218.5947,-85.7112"/>
<polygon fill="#000000" stroke="#000000" points="2218.2945,-82.2196 2208.4253,-86.073 2218.5434,-89.2151 2218.2945,-82.2196"/>
</g>
</g>
</svg>
