<?xml version="1.0" encoding="UTF-8" standalone="no"?>
<!DOCTYPE svg PUBLIC "-//W3C//DTD SVG 1.1//EN"
 "http://www.w3.org/Graphics/SVG/1.1/DTD/svg11.dtd">
<!-- Generated by graphviz version 2.40.1 (0)
 -->
<!-- Title: perl6&#45;type&#45;graph Pages: 1 -->
<svg width="4016pt" height="116pt"
 viewBox="0.00 0.00 4016.31 116.00" xmlns="http://www.w3.org/2000/svg" xmlns:xlink="http://www.w3.org/1999/xlink">
<g id="graph0" class="graph" transform="scale(1 1) rotate(0) translate(4 112)">
<title>perl6&#45;type&#45;graph</title>
<polygon fill="#ffffff" stroke="transparent" points="-4,4 -4,-112 4012.3143,-112 4012.3143,4 -4,4"/>
<!-- Documentable::DocPage -->
<g id="node1" class="node">
<title>Documentable::DocPage</title>
<g id="a_node1"><a xlink:href="/type/Documentable::DocPage" xlink:title="Documentable::DocPage">
<ellipse fill="none" stroke="#6666ff" cx="1990.0317" cy="-90" rx="113.18" ry="18"/>
<text text-anchor="middle" x="1990.0317" y="-86.3" font-family="FreeSans" font-size="14.00" fill="#6666ff">Documentable::DocPage</text>
</a>
</g>
</g>
<!-- Documentable::DocPage::Primary::Language -->
<g id="node2" class="node">
<title>Documentable::DocPage::Primary::Language</title>
<g id="a_node2"><a xlink:href="/type/Documentable::DocPage::Primary::Language" xlink:title="Documentable::DocPage::Primary::Language">
<ellipse fill="none" stroke="#000000" cx="206.0317" cy="-18" rx="206.0634" ry="18"/>
<text text-anchor="middle" x="206.0317" y="-14.3" font-family="FreeSans" font-size="14.00" fill="#000000">Documentable::DocPage::Primary::Language</text>
</a>
</g>
</g>
<!-- Documentable::DocPage::Primary::Language&#45;&gt;Documentable::DocPage -->
<g id="edge1" class="edge">
<title>Documentable::DocPage::Primary::Language&#45;&gt;Documentable::DocPage</title>
<path fill="none" stroke="#000000" d="M355.0635,-30.4771C391.8896,-33.5602 421.0317,-36 421.0317,-36 421.0317,-36 1501.5912,-73.1894 1869.2508,-85.8431"/>
<polygon fill="#000000" stroke="#000000" points="1869.2758,-89.3459 1879.3903,-86.1921 1869.5167,-82.3501 1869.2758,-89.3459"/>
</g>
<!-- Documentable::DocPage::Primary::Type -->
<g id="node3" class="node">
<title>Documentable::DocPage::Primary::Type</title>
<g id="a_node3"><a xlink:href="/type/Documentable::DocPage::Primary::Type" xlink:title="Documentable::DocPage::Primary::Type">
<ellipse fill="none" stroke="#000000" cx="617.0317" cy="-18" rx="186.5669" ry="18"/>
<text text-anchor="middle" x="617.0317" y="-14.3" font-family="FreeSans" font-size="14.00" fill="#000000">Documentable::DocPage::Primary::Type</text>
</a>
</g>
</g>
<!-- Documentable::DocPage::Primary::Type&#45;&gt;Documentable::DocPage -->
<g id="edge2" class="edge">
<title>Documentable::DocPage::Primary::Type&#45;&gt;Documentable::DocPage</title>
<path fill="none" stroke="#000000" d="M752.3584,-30.428C786.1823,-33.5342 813.0317,-36 813.0317,-36 813.0317,-36 1572.2249,-70.8313 1871.1438,-84.5455"/>
<polygon fill="#000000" stroke="#000000" points="1870.9994,-88.0425 1881.1493,-85.0045 1871.3202,-81.0498 1870.9994,-88.0425"/>
</g>
<!-- Documentable::DocPage::Index::Routine -->
<g id="node4" class="node">
<title>Documentable::DocPage::Index::Routine</title>
<g id="a_node4"><a xlink:href="/type/Documentable::DocPage::Index::Routine" xlink:title="Documentable::DocPage::Index::Routine">
<ellipse fill="none" stroke="#000000" cx="1013.0317" cy="-18" rx="191.1661" ry="18"/>
<text text-anchor="middle" x="1013.0317" y="-14.3" font-family="FreeSans" font-size="14.00" fill="#000000">Documentable::DocPage::Index::Routine</text>
</a>
</g>
</g>
<!-- Documentable::DocPage::Index::Routine&#45;&gt;Documentable::DocPage -->
<g id="edge3" class="edge">
<title>Documentable::DocPage::Index::Routine&#45;&gt;Documentable::DocPage</title>
<path fill="none" stroke="#000000" d="M1151.3932,-30.4525C1185.7788,-33.5472 1213.0317,-36 1213.0317,-36 1213.0317,-36 1660.0201,-67.0648 1875.9436,-82.0711"/>
<polygon fill="#000000" stroke="#000000" points="1875.8297,-85.5715 1886.0483,-82.7734 1876.315,-78.5884 1875.8297,-85.5715"/>
</g>
<!-- Documentable::DocPage::Secondary -->
<g id="node5" class="node">
<title>Documentable::DocPage::Secondary</title>
<g id="a_node5"><a xlink:href="/type/Documentable::DocPage::Secondary" xlink:title="Documentable::DocPage::Secondary">
<ellipse fill="none" stroke="#000000" cx="1389.0317" cy="-18" rx="167.0704" ry="18"/>
<text text-anchor="middle" x="1389.0317" y="-14.3" font-family="FreeSans" font-size="14.00" fill="#000000">Documentable::DocPage::Secondary</text>
</a>
</g>
</g>
<!-- Documentable::DocPage::Secondary&#45;&gt;Documentable::DocPage -->
<g id="edge4" class="edge">
<title>Documentable::DocPage::Secondary&#45;&gt;Documentable::DocPage</title>
<path fill="none" stroke="#000000" d="M1501.0183,-31.416C1612.3825,-44.7575 1781.691,-65.0407 1889.0382,-77.9009"/>
<polygon fill="#000000" stroke="#000000" points="1888.8839,-81.4074 1899.2292,-79.1218 1889.7166,-74.4571 1888.8839,-81.4074"/>
</g>
<!-- Documentable::DocPage::SubIndex::Routine -->
<g id="node6" class="node">
<title>Documentable::DocPage::SubIndex::Routine</title>
<g id="a_node6"><a xlink:href="/type/Documentable::DocPage::SubIndex::Routine" xlink:title="Documentable::DocPage::SubIndex::Routine">
<ellipse fill="none" stroke="#000000" cx="1780.0317" cy="-18" rx="206.0634" ry="18"/>
<text text-anchor="middle" x="1780.0317" y="-14.3" font-family="FreeSans" font-size="14.00" fill="#000000">Documentable::DocPage::SubIndex::Routine</text>
</a>
</g>
</g>
<!-- Documentable::DocPage::SubIndex::Routine&#45;&gt;Documentable::DocPage -->
<g id="edge5" class="edge">
<title>Documentable::DocPage::SubIndex::Routine&#45;&gt;Documentable::DocPage</title>
<path fill="none" stroke="#000000" d="M1831.135,-35.5211C1861.8321,-46.0458 1900.9612,-59.4615 1932.7081,-70.3462"/>
<polygon fill="#000000" stroke="#000000" points="1931.7115,-73.7044 1942.3061,-73.6369 1933.9818,-67.0828 1931.7115,-73.7044"/>
</g>
<!-- Documentable::DocPage::Index::Programs -->
<g id="node7" class="node">
<title>Documentable::DocPage::Index::Programs</title>
<g id="a_node7"><a xlink:href="/type/Documentable::DocPage::Index::Programs" xlink:title="Documentable::DocPage::Index::Programs">
<ellipse fill="none" stroke="#000000" cx="2200.0317" cy="-18" rx="196.0654" ry="18"/>
<text text-anchor="middle" x="2200.0317" y="-14.3" font-family="FreeSans" font-size="14.00" fill="#000000">Documentable::DocPage::Index::Programs</text>
</a>
</g>
</g>
<!-- Documentable::DocPage::Index::Programs&#45;&gt;Documentable::DocPage -->
<g id="edge6" class="edge">
<title>Documentable::DocPage::Index::Programs&#45;&gt;Documentable::DocPage</title>
<path fill="none" stroke="#000000" d="M2149.1966,-35.4292C2118.5047,-45.9521 2079.3102,-59.3902 2047.4958,-70.298"/>
<polygon fill="#000000" stroke="#000000" points="2046.2012,-67.0418 2037.8769,-73.5959 2048.4715,-73.6634 2046.2012,-67.0418"/>
</g>
<!-- Documentable::DocPage::SubIndex::Type -->
<g id="node8" class="node">
<title>Documentable::DocPage::SubIndex::Type</title>
<g id="a_node8"><a xlink:href="/type/Documentable::DocPage::SubIndex::Type" xlink:title="Documentable::DocPage::SubIndex::Type">
<ellipse fill="none" stroke="#000000" cx="2605.0317" cy="-18" rx="191.1661" ry="18"/>
<text text-anchor="middle" x="2605.0317" y="-14.3" font-family="FreeSans" font-size="14.00" fill="#000000">Documentable::DocPage::SubIndex::Type</text>
</a>
</g>
</g>
<!-- Documentable::DocPage::SubIndex::Type&#45;&gt;Documentable::DocPage -->
<g id="edge7" class="edge">
<title>Documentable::DocPage::SubIndex::Type&#45;&gt;Documentable::DocPage</title>
<path fill="none" stroke="#000000" d="M2484.9936,-32.0532C2370.3642,-45.4733 2199.533,-65.473 2091.5129,-78.1193"/>
<polygon fill="#000000" stroke="#000000" points="2090.7845,-74.6806 2081.2594,-79.3197 2091.5986,-81.6331 2090.7845,-74.6806"/>
</g>
<!-- Documentable::DocPage::Primary::Programs -->
<g id="node9" class="node">
<title>Documentable::DocPage::Primary::Programs</title>
<g id="a_node9"><a xlink:href="/type/Documentable::DocPage::Primary::Programs" xlink:title="Documentable::DocPage::Primary::Programs">
<ellipse fill="none" stroke="#000000" cx="3020.0317" cy="-18" rx="206.0634" ry="18"/>
<text text-anchor="middle" x="3020.0317" y="-14.3" font-family="FreeSans" font-size="14.00" fill="#000000">Documentable::DocPage::Primary::Programs</text>
</a>
</g>
</g>
<!-- Documentable::DocPage::Primary::Programs&#45;&gt;Documentable::DocPage -->
<g id="edge8" class="edge">
<title>Documentable::DocPage::Primary::Programs&#45;&gt;Documentable::DocPage</title>
<path fill="none" stroke="#000000" d="M2870.9999,-30.4771C2834.1738,-33.5602 2805.0317,-36 2805.0317,-36 2805.0317,-36 2329.1518,-67.5307 2104.6646,-82.4047"/>
<polygon fill="#000000" stroke="#000000" points="2104.2414,-78.925 2094.4947,-83.0785 2104.7043,-85.9096 2104.2414,-78.925"/>
</g>
<!-- Documentable::DocPage::Index::Type -->
<g id="node10" class="node">
<title>Documentable::DocPage::Index::Type</title>
<g id="a_node10"><a xlink:href="/type/Documentable::DocPage::Index::Type" xlink:title="Documentable::DocPage::Index::Type">
<ellipse fill="none" stroke="#000000" cx="3421.0317" cy="-18" rx="176.5689" ry="18"/>
<text text-anchor="middle" x="3421.0317" y="-14.3" font-family="FreeSans" font-size="14.00" fill="#000000">Documentable::DocPage::Index::Type</text>
</a>
</g>
</g>
<!-- Documentable::DocPage::Index::Type&#45;&gt;Documentable::DocPage -->
<g id="edge9" class="edge">
<title>Documentable::DocPage::Index::Type&#45;&gt;Documentable::DocPage</title>
<path fill="none" stroke="#000000" d="M3292.8637,-30.4034C3260.6459,-33.5212 3235.0317,-36 3235.0317,-36 3235.0317,-36 2421.3213,-71.2935 2109.58,-84.8148"/>
<polygon fill="#000000" stroke="#000000" points="2108.9928,-81.3369 2099.1539,-85.267 2109.2962,-88.3303 2108.9928,-81.3369"/>
</g>
<!-- Documentable::DocPage::Index::Language -->
<g id="node11" class="node">
<title>Documentable::DocPage::Index::Language</title>
<g id="a_node11"><a xlink:href="/type/Documentable::DocPage::Index::Language" xlink:title="Documentable::DocPage::Index::Language">
<ellipse fill="none" stroke="#000000" cx="3812.0317" cy="-18" rx="196.0654" ry="18"/>
<text text-anchor="middle" x="3812.0317" y="-14.3" font-family="FreeSans" font-size="14.00" fill="#000000">Documentable::DocPage::Index::Language</text>
</a>
</g>
</g>
<!-- Documentable::DocPage::Index::Language&#45;&gt;Documentable::DocPage -->
<g id="edge10" class="edge">
<title>Documentable::DocPage::Index::Language&#45;&gt;Documentable::DocPage</title>
<path fill="none" stroke="#000000" d="M3670.2112,-30.4525C3634.966,-33.5472 3607.0317,-36 3607.0317,-36 3607.0317,-36 2486.3619,-73.425 2110.9357,-85.9624"/>
<polygon fill="#000000" stroke="#000000" points="2110.7339,-82.4671 2100.8563,-86.299 2110.9676,-89.4632 2110.7339,-82.4671"/>
</g>
</g>
</svg>
