<?xml version="1.0" encoding="UTF-8" standalone="no"?>
<!DOCTYPE svg PUBLIC "-//W3C//DTD SVG 1.1//EN"
 "http://www.w3.org/Graphics/SVG/1.1/DTD/svg11.dtd">
<!-- Generated by graphviz version 2.42.3 ()
 -->
<!-- Title: perl6&#45;type&#45;graph Pages: 1 -->
<svg width="4015pt" height="116pt"
 viewBox="0.00 0.00 4015.37 116.00" xmlns="http://www.w3.org/2000/svg" xmlns:xlink="http://www.w3.org/1999/xlink">
<g id="graph0" class="graph" transform="scale(1 1) rotate(0) translate(4 112)">
<title>perl6&#45;type&#45;graph</title>
<polygon fill="white" stroke="transparent" points="-4,4 -4,-112 4011.37,-112 4011.37,4 -4,4"/>
<!-- Documentable::DocPage -->
<g id="node1" class="node">
<title>Documentable::DocPage</title>
<g id="a_node1"><a xlink:href="/type/Documentable::DocPage" xlink:title="Documentable::DocPage">
<ellipse fill="none" stroke="#6666ff" cx="2013.28" cy="-90" rx="113.18" ry="18"/>
<text text-anchor="middle" x="2013.28" y="-86.3" font-family="FreeSans" font-size="14.00" fill="#6666ff">Documentable::DocPage</text>
</a>
</g>
</g>
<!-- Documentable::DocPage::Index::Programs -->
<g id="node2" class="node">
<title>Documentable::DocPage::Index::Programs</title>
<g id="a_node2"><a xlink:href="/type/Documentable::DocPage::Index::Programs" xlink:title="Documentable::DocPage::Index::Programs">
<ellipse fill="none" stroke="#000000" cx="196.28" cy="-18" rx="196.07" ry="18"/>
<text text-anchor="middle" x="196.28" y="-14.3" font-family="FreeSans" font-size="14.00" fill="#000000">Documentable::DocPage::Index::Programs</text>
</a>
</g>
</g>
<!-- Documentable::DocPage::Index::Programs&#45;&gt;Documentable::DocPage -->
<g id="edge1" class="edge">
<title>Documentable::DocPage::Index::Programs&#45;&gt;Documentable::DocPage</title>
<path fill="none" stroke="#000000" d="M336.42,-30.62C372.45,-33.61 401.28,-36 401.28,-36 401.28,-36 1520.44,-72.8 1893.73,-85.07"/>
<polygon fill="#000000" stroke="#000000" points="1893.64,-88.57 1903.75,-85.4 1893.87,-81.57 1893.64,-88.57"/>
</g>
<!-- Documentable::DocPage::Primary::Language -->
<g id="node3" class="node">
<title>Documentable::DocPage::Primary::Language</title>
<g id="a_node3"><a xlink:href="/type/Documentable::DocPage::Primary::Language" xlink:title="Documentable::DocPage::Primary::Language">
<ellipse fill="none" stroke="#000000" cx="616.28" cy="-18" rx="206.06" ry="18"/>
<text text-anchor="middle" x="616.28" y="-14.3" font-family="FreeSans" font-size="14.00" fill="#000000">Documentable::DocPage::Primary::Language</text>
</a>
</g>
</g>
<!-- Documentable::DocPage::Primary::Language&#45;&gt;Documentable::DocPage -->
<g id="edge2" class="edge">
<title>Documentable::DocPage::Primary::Language&#45;&gt;Documentable::DocPage</title>
<path fill="none" stroke="#000000" d="M763.26,-30.62C801.05,-33.61 831.28,-36 831.28,-36 831.28,-36 1597.37,-70.35 1896.05,-83.74"/>
<polygon fill="#000000" stroke="#000000" points="1895.89,-87.24 1906.04,-84.19 1896.21,-80.25 1895.89,-87.24"/>
</g>
<!-- Documentable::DocPage::Index::Language -->
<g id="node4" class="node">
<title>Documentable::DocPage::Index::Language</title>
<g id="a_node4"><a xlink:href="/type/Documentable::DocPage::Index::Language" xlink:title="Documentable::DocPage::Index::Language">
<ellipse fill="none" stroke="#000000" cx="1036.28" cy="-18" rx="196.07" ry="18"/>
<text text-anchor="middle" x="1036.28" y="-14.3" font-family="FreeSans" font-size="14.00" fill="#000000">Documentable::DocPage::Index::Language</text>
</a>
</g>
</g>
<!-- Documentable::DocPage::Index::Language&#45;&gt;Documentable::DocPage -->
<g id="edge3" class="edge">
<title>Documentable::DocPage::Index::Language&#45;&gt;Documentable::DocPage</title>
<path fill="none" stroke="#000000" d="M1176.42,-30.62C1212.45,-33.61 1241.28,-36 1241.28,-36 1241.28,-36 1687.65,-66.64 1901.56,-81.33"/>
<polygon fill="#000000" stroke="#000000" points="1901.35,-84.82 1911.56,-82.02 1901.83,-77.84 1901.35,-84.82"/>
</g>
<!-- Documentable::DocPage::Index::Type -->
<g id="node5" class="node">
<title>Documentable::DocPage::Index::Type</title>
<g id="a_node5"><a xlink:href="/type/Documentable::DocPage::Index::Type" xlink:title="Documentable::DocPage::Index::Type">
<ellipse fill="none" stroke="#000000" cx="1427.28" cy="-18" rx="176.57" ry="18"/>
<text text-anchor="middle" x="1427.28" y="-14.3" font-family="FreeSans" font-size="14.00" fill="#000000">Documentable::DocPage::Index::Type</text>
</a>
</g>
</g>
<!-- Documentable::DocPage::Index::Type&#45;&gt;Documentable::DocPage -->
<g id="edge4" class="edge">
<title>Documentable::DocPage::Index::Type&#45;&gt;Documentable::DocPage</title>
<path fill="none" stroke="#000000" d="M1537.16,-32.13C1646.05,-45.13 1811.25,-64.87 1915.66,-77.34"/>
<polygon fill="#000000" stroke="#000000" points="1915.53,-80.85 1925.88,-78.56 1916.36,-73.9 1915.53,-80.85"/>
</g>
<!-- Documentable::DocPage::Primary::Type -->
<g id="node6" class="node">
<title>Documentable::DocPage::Primary::Type</title>
<g id="a_node6"><a xlink:href="/type/Documentable::DocPage::Primary::Type" xlink:title="Documentable::DocPage::Primary::Type">
<ellipse fill="none" stroke="#000000" cx="1808.28" cy="-18" rx="186.57" ry="18"/>
<text text-anchor="middle" x="1808.28" y="-14.3" font-family="FreeSans" font-size="14.00" fill="#000000">Documentable::DocPage::Primary::Type</text>
</a>
</g>
</g>
<!-- Documentable::DocPage::Primary::Type&#45;&gt;Documentable::DocPage -->
<g id="edge5" class="edge">
<title>Documentable::DocPage::Primary::Type&#45;&gt;Documentable::DocPage</title>
<path fill="none" stroke="#000000" d="M1856.35,-35.41C1886.8,-45.81 1926.3,-59.3 1958.05,-70.14"/>
<polygon fill="#000000" stroke="#000000" points="1957.04,-73.49 1967.63,-73.41 1959.3,-66.87 1957.04,-73.49"/>
</g>
<!-- Documentable::DocPage::SubIndex::Routine -->
<g id="node7" class="node">
<title>Documentable::DocPage::SubIndex::Routine</title>
<g id="a_node7"><a xlink:href="/type/Documentable::DocPage::SubIndex::Routine" xlink:title="Documentable::DocPage::SubIndex::Routine">
<ellipse fill="none" stroke="#000000" cx="2219.28" cy="-18" rx="206.06" ry="18"/>
<text text-anchor="middle" x="2219.28" y="-14.3" font-family="FreeSans" font-size="14.00" fill="#000000">Documentable::DocPage::SubIndex::Routine</text>
</a>
</g>
</g>
<!-- Documentable::DocPage::SubIndex::Routine&#45;&gt;Documentable::DocPage -->
<g id="edge6" class="edge">
<title>Documentable::DocPage::SubIndex::Routine&#45;&gt;Documentable::DocPage</title>
<path fill="none" stroke="#000000" d="M2170.72,-35.5C2140.11,-45.9 2100.49,-59.37 2068.65,-70.18"/>
<polygon fill="#000000" stroke="#000000" points="2067.38,-66.92 2059.04,-73.45 2069.64,-73.55 2067.38,-66.92"/>
</g>
<!-- Documentable::DocPage::Primary::Programs -->
<g id="node8" class="node">
<title>Documentable::DocPage::Primary::Programs</title>
<g id="a_node8"><a xlink:href="/type/Documentable::DocPage::Primary::Programs" xlink:title="Documentable::DocPage::Primary::Programs">
<ellipse fill="none" stroke="#000000" cx="2649.28" cy="-18" rx="206.06" ry="18"/>
<text text-anchor="middle" x="2649.28" y="-14.3" font-family="FreeSans" font-size="14.00" fill="#000000">Documentable::DocPage::Primary::Programs</text>
</a>
</g>
</g>
<!-- Documentable::DocPage::Primary::Programs&#45;&gt;Documentable::DocPage -->
<g id="edge7" class="edge">
<title>Documentable::DocPage::Primary::Programs&#45;&gt;Documentable::DocPage</title>
<path fill="none" stroke="#000000" d="M2526.66,-32.5C2406.59,-45.71 2225.86,-65.6 2113.96,-77.92"/>
<polygon fill="#000000" stroke="#000000" points="2113.25,-74.48 2103.69,-79.05 2114.01,-81.43 2113.25,-74.48"/>
</g>
<!-- Documentable::DocPage::Secondary -->
<g id="node9" class="node">
<title>Documentable::DocPage::Secondary</title>
<g id="a_node9"><a xlink:href="/type/Documentable::DocPage::Secondary" xlink:title="Documentable::DocPage::Secondary">
<ellipse fill="none" stroke="#000000" cx="3040.28" cy="-18" rx="167.07" ry="18"/>
<text text-anchor="middle" x="3040.28" y="-14.3" font-family="FreeSans" font-size="14.00" fill="#000000">Documentable::DocPage::Secondary</text>
</a>
</g>
</g>
<!-- Documentable::DocPage::Secondary&#45;&gt;Documentable::DocPage -->
<g id="edge8" class="edge">
<title>Documentable::DocPage::Secondary&#45;&gt;Documentable::DocPage</title>
<path fill="none" stroke="#000000" d="M2920.45,-30.57C2889.29,-33.58 2864.28,-36 2864.28,-36 2864.28,-36 2358.09,-67.53 2126.5,-81.95"/>
<polygon fill="#000000" stroke="#000000" points="2126.12,-78.47 2116.36,-82.58 2126.55,-85.45 2126.12,-78.47"/>
</g>
<!-- Documentable::DocPage::Index::Routine -->
<g id="node10" class="node">
<title>Documentable::DocPage::Index::Routine</title>
<g id="a_node10"><a xlink:href="/type/Documentable::DocPage::Index::Routine" xlink:title="Documentable::DocPage::Index::Routine">
<ellipse fill="none" stroke="#000000" cx="3416.28" cy="-18" rx="191.17" ry="18"/>
<text text-anchor="middle" x="3416.28" y="-14.3" font-family="FreeSans" font-size="14.00" fill="#000000">Documentable::DocPage::Index::Routine</text>
</a>
</g>
</g>
<!-- Documentable::DocPage::Index::Routine&#45;&gt;Documentable::DocPage -->
<g id="edge9" class="edge">
<title>Documentable::DocPage::Index::Routine&#45;&gt;Documentable::DocPage</title>
<path fill="none" stroke="#000000" d="M3279.56,-30.62C3244.41,-33.61 3216.28,-36 3216.28,-36 3216.28,-36 2433.31,-70.5 2130.69,-83.83"/>
<polygon fill="#000000" stroke="#000000" points="2130.41,-80.34 2120.57,-84.27 2130.71,-87.33 2130.41,-80.34"/>
</g>
<!-- Documentable::DocPage::SubIndex::Type -->
<g id="node11" class="node">
<title>Documentable::DocPage::SubIndex::Type</title>
<g id="a_node11"><a xlink:href="/type/Documentable::DocPage::SubIndex::Type" xlink:title="Documentable::DocPage::SubIndex::Type">
<ellipse fill="none" stroke="#000000" cx="3816.28" cy="-18" rx="191.17" ry="18"/>
<text text-anchor="middle" x="3816.28" y="-14.3" font-family="FreeSans" font-size="14.00" fill="#000000">Documentable::DocPage::SubIndex::Type</text>
</a>
</g>
</g>
<!-- Documentable::DocPage::SubIndex::Type&#45;&gt;Documentable::DocPage -->
<g id="edge10" class="edge">
<title>Documentable::DocPage::SubIndex::Type&#45;&gt;Documentable::DocPage</title>
<path fill="none" stroke="#000000" d="M3679.56,-30.62C3644.41,-33.61 3616.28,-36 3616.28,-36 3616.28,-36 2505.22,-72.74 2133.09,-85.04"/>
<polygon fill="#000000" stroke="#000000" points="2132.71,-81.55 2122.83,-85.38 2132.94,-88.55 2132.71,-81.55"/>
</g>
</g>
</svg>
