<?xml version="1.0" encoding="UTF-8" standalone="no"?>
<!DOCTYPE svg PUBLIC "-//W3C//DTD SVG 1.1//EN"
 "http://www.w3.org/Graphics/SVG/1.1/DTD/svg11.dtd">
<!-- Generated by graphviz version 2.40.1 (0)
 -->
<!-- Title: perl6&#45;type&#45;graph Pages: 1 -->
<svg width="4017pt" height="116pt"
 viewBox="0.00 0.00 4017.12 116.00" xmlns="http://www.w3.org/2000/svg" xmlns:xlink="http://www.w3.org/1999/xlink">
<g id="graph0" class="graph" transform="scale(1 1) rotate(0) translate(4 112)">
<title>perl6&#45;type&#45;graph</title>
<polygon fill="#ffffff" stroke="transparent" points="-4,4 -4,-112 4013.1182,-112 4013.1182,4 -4,4"/>
<!-- Documentable::DocPage -->
<g id="node1" class="node">
<title>Documentable::DocPage</title>
<g id="a_node1"><a xlink:href="/type/Documentable::DocPage" xlink:title="Documentable::DocPage">
<ellipse fill="none" stroke="#6666ff" cx="1995.0352" cy="-90" rx="113.18" ry="18"/>
<text text-anchor="middle" x="1995.0352" y="-86.3" font-family="FreeSans" font-size="14.00" fill="#6666ff">Documentable::DocPage</text>
</a>
</g>
</g>
<!-- Documentable::DocPage::Secondary -->
<g id="node2" class="node">
<title>Documentable::DocPage::Secondary</title>
<g id="a_node2"><a xlink:href="/type/Documentable::DocPage::Secondary" xlink:title="Documentable::DocPage::Secondary">
<ellipse fill="none" stroke="#000000" cx="167.0352" cy="-18" rx="167.0704" ry="18"/>
<text text-anchor="middle" x="167.0352" y="-14.3" font-family="FreeSans" font-size="14.00" fill="#000000">Documentable::DocPage::Secondary</text>
</a>
</g>
</g>
<!-- Documentable::DocPage::Secondary&#45;&gt;Documentable::DocPage -->
<g id="edge1" class="edge">
<title>Documentable::DocPage::Secondary&#45;&gt;Documentable::DocPage</title>
<path fill="none" stroke="#000000" d="M288.3124,-30.4034C318.7981,-33.5212 343.0352,-36 343.0352,-36 343.0352,-36 1492.6249,-73.5774 1873.8455,-86.0386"/>
<polygon fill="#000000" stroke="#000000" points="1873.9686,-89.5444 1884.0776,-86.3731 1874.1973,-82.5481 1873.9686,-89.5444"/>
</g>
<!-- Documentable::DocPage::Primary::Programs -->
<g id="node3" class="node">
<title>Documentable::DocPage::Primary::Programs</title>
<g id="a_node3"><a xlink:href="/type/Documentable::DocPage::Primary::Programs" xlink:title="Documentable::DocPage::Primary::Programs">
<ellipse fill="none" stroke="#000000" cx="558.0352" cy="-18" rx="206.0634" ry="18"/>
<text text-anchor="middle" x="558.0352" y="-14.3" font-family="FreeSans" font-size="14.00" fill="#000000">Documentable::DocPage::Primary::Programs</text>
</a>
</g>
</g>
<!-- Documentable::DocPage::Primary::Programs&#45;&gt;Documentable::DocPage -->
<g id="edge2" class="edge">
<title>Documentable::DocPage::Primary::Programs&#45;&gt;Documentable::DocPage</title>
<path fill="none" stroke="#000000" d="M707.067,-30.4771C743.8931,-33.5602 773.0352,-36 773.0352,-36 773.0352,-36 1568.378,-71.1461 1875.7703,-84.7297"/>
<polygon fill="#000000" stroke="#000000" points="1875.9089,-88.2392 1886.0537,-85.1841 1876.218,-81.246 1875.9089,-88.2392"/>
</g>
<!-- Documentable::DocPage::Index::Type -->
<g id="node4" class="node">
<title>Documentable::DocPage::Index::Type</title>
<g id="a_node4"><a xlink:href="/type/Documentable::DocPage::Index::Type" xlink:title="Documentable::DocPage::Index::Type">
<ellipse fill="none" stroke="#000000" cx="959.0352" cy="-18" rx="176.5689" ry="18"/>
<text text-anchor="middle" x="959.0352" y="-14.3" font-family="FreeSans" font-size="14.00" fill="#000000">Documentable::DocPage::Index::Type</text>
</a>
</g>
</g>
<!-- Documentable::DocPage::Index::Type&#45;&gt;Documentable::DocPage -->
<g id="edge3" class="edge">
<title>Documentable::DocPage::Index::Type&#45;&gt;Documentable::DocPage</title>
<path fill="none" stroke="#000000" d="M1087.2032,-30.4034C1119.421,-33.5212 1145.0352,-36 1145.0352,-36 1145.0352,-36 1647.4877,-67.9205 1879.7778,-82.6778"/>
<polygon fill="#000000" stroke="#000000" points="1879.7542,-86.1832 1889.956,-83.3244 1880.198,-79.1973 1879.7542,-86.1832"/>
</g>
<!-- Documentable::DocPage::Primary::Language -->
<g id="node5" class="node">
<title>Documentable::DocPage::Primary::Language</title>
<g id="a_node5"><a xlink:href="/type/Documentable::DocPage::Primary::Language" xlink:title="Documentable::DocPage::Primary::Language">
<ellipse fill="none" stroke="#000000" cx="1360.0352" cy="-18" rx="206.0634" ry="18"/>
<text text-anchor="middle" x="1360.0352" y="-14.3" font-family="FreeSans" font-size="14.00" fill="#000000">Documentable::DocPage::Primary::Language</text>
</a>
</g>
</g>
<!-- Documentable::DocPage::Primary::Language&#45;&gt;Documentable::DocPage -->
<g id="edge4" class="edge">
<title>Documentable::DocPage::Primary::Language&#45;&gt;Documentable::DocPage</title>
<path fill="none" stroke="#000000" d="M1485.8702,-32.2679C1605.0812,-45.7848 1781.9004,-65.8335 1892.6983,-78.3965"/>
<polygon fill="#000000" stroke="#000000" points="1892.5477,-81.9017 1902.8784,-79.5507 1893.3364,-74.9463 1892.5477,-81.9017"/>
</g>
<!-- Documentable::DocPage::SubIndex::Routine -->
<g id="node6" class="node">
<title>Documentable::DocPage::SubIndex::Routine</title>
<g id="a_node6"><a xlink:href="/type/Documentable::DocPage::SubIndex::Routine" xlink:title="Documentable::DocPage::SubIndex::Routine">
<ellipse fill="none" stroke="#000000" cx="1790.0352" cy="-18" rx="206.0634" ry="18"/>
<text text-anchor="middle" x="1790.0352" y="-14.3" font-family="FreeSans" font-size="14.00" fill="#000000">Documentable::DocPage::SubIndex::Routine</text>
</a>
</g>
</g>
<!-- Documentable::DocPage::SubIndex::Routine&#45;&gt;Documentable::DocPage -->
<g id="edge5" class="edge">
<title>Documentable::DocPage::SubIndex::Routine&#45;&gt;Documentable::DocPage</title>
<path fill="none" stroke="#000000" d="M1839.9217,-35.5211C1869.6518,-45.9629 1907.484,-59.2503 1938.3426,-70.0884"/>
<polygon fill="#000000" stroke="#000000" points="1937.5026,-73.503 1948.0974,-73.5145 1939.8223,-66.8985 1937.5026,-73.503"/>
</g>
<!-- Documentable::DocPage::Primary::Type -->
<g id="node7" class="node">
<title>Documentable::DocPage::Primary::Type</title>
<g id="a_node7"><a xlink:href="/type/Documentable::DocPage::Primary::Type" xlink:title="Documentable::DocPage::Primary::Type">
<ellipse fill="none" stroke="#000000" cx="2201.0352" cy="-18" rx="186.5669" ry="18"/>
<text text-anchor="middle" x="2201.0352" y="-14.3" font-family="FreeSans" font-size="14.00" fill="#000000">Documentable::DocPage::Primary::Type</text>
</a>
</g>
</g>
<!-- Documentable::DocPage::Primary::Type&#45;&gt;Documentable::DocPage -->
<g id="edge6" class="edge">
<title>Documentable::DocPage::Primary::Type&#45;&gt;Documentable::DocPage</title>
<path fill="none" stroke="#000000" d="M2151.1683,-35.4292C2121.1908,-45.9068 2082.9444,-59.2745 2051.8087,-70.1568"/>
<polygon fill="#000000" stroke="#000000" points="2050.2542,-66.9924 2041.969,-73.5959 2052.5639,-73.6005 2050.2542,-66.9924"/>
</g>
<!-- Documentable::DocPage::Index::Routine -->
<g id="node8" class="node">
<title>Documentable::DocPage::Index::Routine</title>
<g id="a_node8"><a xlink:href="/type/Documentable::DocPage::Index::Routine" xlink:title="Documentable::DocPage::Index::Routine">
<ellipse fill="none" stroke="#000000" cx="2597.0352" cy="-18" rx="191.1661" ry="18"/>
<text text-anchor="middle" x="2597.0352" y="-14.3" font-family="FreeSans" font-size="14.00" fill="#000000">Documentable::DocPage::Index::Routine</text>
</a>
</g>
</g>
<!-- Documentable::DocPage::Index::Routine&#45;&gt;Documentable::DocPage -->
<g id="edge7" class="edge">
<title>Documentable::DocPage::Index::Routine&#45;&gt;Documentable::DocPage</title>
<path fill="none" stroke="#000000" d="M2478.4587,-32.1819C2366.7962,-45.5369 2201.3558,-65.3238 2095.8818,-77.9386"/>
<polygon fill="#000000" stroke="#000000" points="2095.3793,-74.4737 2085.8657,-79.1366 2096.2106,-81.4241 2095.3793,-74.4737"/>
</g>
<!-- Documentable::DocPage::Index::Programs -->
<g id="node9" class="node">
<title>Documentable::DocPage::Index::Programs</title>
<g id="a_node9"><a xlink:href="/type/Documentable::DocPage::Index::Programs" xlink:title="Documentable::DocPage::Index::Programs">
<ellipse fill="none" stroke="#000000" cx="3002.0352" cy="-18" rx="196.0654" ry="18"/>
<text text-anchor="middle" x="3002.0352" y="-14.3" font-family="FreeSans" font-size="14.00" fill="#000000">Documentable::DocPage::Index::Programs</text>
</a>
</g>
</g>
<!-- Documentable::DocPage::Index::Programs&#45;&gt;Documentable::DocPage -->
<g id="edge8" class="edge">
<title>Documentable::DocPage::Index::Programs&#45;&gt;Documentable::DocPage</title>
<path fill="none" stroke="#000000" d="M2860.2147,-30.4525C2824.9695,-33.5472 2797.0352,-36 2797.0352,-36 2797.0352,-36 2331.1007,-67.3721 2109.5125,-82.292"/>
<polygon fill="#000000" stroke="#000000" points="2109.2135,-78.8042 2099.4713,-82.9681 2109.6838,-85.7883 2109.2135,-78.8042"/>
</g>
<!-- Documentable::DocPage::Index::Language -->
<g id="node10" class="node">
<title>Documentable::DocPage::Index::Language</title>
<g id="a_node10"><a xlink:href="/type/Documentable::DocPage::Index::Language" xlink:title="Documentable::DocPage::Index::Language">
<ellipse fill="none" stroke="#000000" cx="3413.0352" cy="-18" rx="196.0654" ry="18"/>
<text text-anchor="middle" x="3413.0352" y="-14.3" font-family="FreeSans" font-size="14.00" fill="#000000">Documentable::DocPage::Index::Language</text>
</a>
</g>
</g>
<!-- Documentable::DocPage::Index::Language&#45;&gt;Documentable::DocPage -->
<g id="edge9" class="edge">
<title>Documentable::DocPage::Index::Language&#45;&gt;Documentable::DocPage</title>
<path fill="none" stroke="#000000" d="M3270.8041,-30.428C3235.2544,-33.5342 3207.0352,-36 3207.0352,-36 3207.0352,-36 2420.0881,-71.062 2114.4209,-84.6808"/>
<polygon fill="#000000" stroke="#000000" points="2114.0279,-81.1948 2104.1937,-85.1365 2114.3396,-88.1878 2114.0279,-81.1948"/>
</g>
<!-- Documentable::DocPage::SubIndex::Type -->
<g id="node11" class="node">
<title>Documentable::DocPage::SubIndex::Type</title>
<g id="a_node11"><a xlink:href="/type/Documentable::DocPage::SubIndex::Type" xlink:title="Documentable::DocPage::SubIndex::Type">
<ellipse fill="none" stroke="#000000" cx="3818.0352" cy="-18" rx="191.1661" ry="18"/>
<text text-anchor="middle" x="3818.0352" y="-14.3" font-family="FreeSans" font-size="14.00" fill="#000000">Documentable::DocPage::SubIndex::Type</text>
</a>
</g>
</g>
<!-- Documentable::DocPage::SubIndex::Type&#45;&gt;Documentable::DocPage -->
<g id="edge10" class="edge">
<title>Documentable::DocPage::SubIndex::Type&#45;&gt;Documentable::DocPage</title>
<path fill="none" stroke="#000000" d="M3679.6737,-30.4525C3645.2881,-33.5472 3618.0352,-36 3618.0352,-36 3618.0352,-36 2492.5532,-73.4467 2116.0595,-85.9733"/>
<polygon fill="#000000" stroke="#000000" points="2115.8298,-82.4789 2105.9518,-86.3096 2116.0627,-89.475 2115.8298,-82.4789"/>
</g>
</g>
</svg>
