<?xml version="1.0" encoding="UTF-8" standalone="no"?>
<!DOCTYPE svg PUBLIC "-//W3C//DTD SVG 1.1//EN"
 "http://www.w3.org/Graphics/SVG/1.1/DTD/svg11.dtd">
<!-- Generated by graphviz version 2.42.3 ()
 -->
<!-- Title: perl6&#45;type&#45;graph Pages: 1 -->
<svg width="4016pt" height="116pt"
 viewBox="0.00 0.00 4016.32 116.00" xmlns="http://www.w3.org/2000/svg" xmlns:xlink="http://www.w3.org/1999/xlink">
<g id="graph0" class="graph" transform="scale(1 1) rotate(0) translate(4 112)">
<title>perl6&#45;type&#45;graph</title>
<polygon fill="white" stroke="transparent" points="-4,4 -4,-112 4012.32,-112 4012.32,4 -4,4"/>
<!-- Documentable::DocPage -->
<g id="node1" class="node">
<title>Documentable::DocPage</title>
<g id="a_node1"><a xlink:href="/type/Documentable::DocPage" xlink:title="Documentable::DocPage">
<ellipse fill="none" stroke="#6666ff" cx="2061.28" cy="-90" rx="113.18" ry="18"/>
<text text-anchor="middle" x="2061.28" y="-86.3" font-family="FreeSans" font-size="14.00" fill="#6666ff">Documentable::DocPage</text>
</a>
</g>
</g>
<!-- Documentable::DocPage::Index::Programs -->
<g id="node2" class="node">
<title>Documentable::DocPage::Index::Programs</title>
<g id="a_node2"><a xlink:href="/type/Documentable::DocPage::Index::Programs" xlink:title="Documentable::DocPage::Index::Programs">
<ellipse fill="none" stroke="#000000" cx="196.28" cy="-18" rx="196.07" ry="18"/>
<text text-anchor="middle" x="196.28" y="-14.3" font-family="FreeSans" font-size="14.00" fill="#000000">Documentable::DocPage::Index::Programs</text>
</a>
</g>
</g>
<!-- Documentable::DocPage::Index::Programs&#45;&gt;Documentable::DocPage -->
<g id="edge1" class="edge">
<title>Documentable::DocPage::Index::Programs&#45;&gt;Documentable::DocPage</title>
<path fill="none" stroke="#000000" d="M336.42,-30.62C372.45,-33.61 401.28,-36 401.28,-36 401.28,-36 1560.46,-73.01 1941.5,-85.18"/>
<polygon fill="#000000" stroke="#000000" points="1941.62,-88.68 1951.72,-85.5 1941.84,-81.68 1941.62,-88.68"/>
</g>
<!-- Documentable::DocPage::Index::Routine -->
<g id="node3" class="node">
<title>Documentable::DocPage::Index::Routine</title>
<g id="a_node3"><a xlink:href="/type/Documentable::DocPage::Index::Routine" xlink:title="Documentable::DocPage::Index::Routine">
<ellipse fill="none" stroke="#000000" cx="601.28" cy="-18" rx="191.17" ry="18"/>
<text text-anchor="middle" x="601.28" y="-14.3" font-family="FreeSans" font-size="14.00" fill="#000000">Documentable::DocPage::Index::Routine</text>
</a>
</g>
</g>
<!-- Documentable::DocPage::Index::Routine&#45;&gt;Documentable::DocPage -->
<g id="edge2" class="edge">
<title>Documentable::DocPage::Index::Routine&#45;&gt;Documentable::DocPage</title>
<path fill="none" stroke="#000000" d="M738,-30.62C773.16,-33.61 801.28,-36 801.28,-36 801.28,-36 1630.54,-70.88 1943.57,-84.05"/>
<polygon fill="#000000" stroke="#000000" points="1943.45,-87.55 1953.58,-84.47 1943.74,-80.55 1943.45,-87.55"/>
</g>
<!-- Documentable::DocPage::Index::Language -->
<g id="node4" class="node">
<title>Documentable::DocPage::Index::Language</title>
<g id="a_node4"><a xlink:href="/type/Documentable::DocPage::Index::Language" xlink:title="Documentable::DocPage::Index::Language">
<ellipse fill="none" stroke="#000000" cx="1006.28" cy="-18" rx="196.07" ry="18"/>
<text text-anchor="middle" x="1006.28" y="-14.3" font-family="FreeSans" font-size="14.00" fill="#000000">Documentable::DocPage::Index::Language</text>
</a>
</g>
</g>
<!-- Documentable::DocPage::Index::Language&#45;&gt;Documentable::DocPage -->
<g id="edge3" class="edge">
<title>Documentable::DocPage::Index::Language&#45;&gt;Documentable::DocPage</title>
<path fill="none" stroke="#000000" d="M1146.42,-30.62C1182.45,-33.61 1211.28,-36 1211.28,-36 1211.28,-36 1716.25,-67.49 1947.76,-81.92"/>
<polygon fill="#000000" stroke="#000000" points="1947.71,-85.42 1957.91,-82.55 1948.14,-78.44 1947.71,-85.42"/>
</g>
<!-- Documentable::DocPage::Primary::Language -->
<g id="node5" class="node">
<title>Documentable::DocPage::Primary::Language</title>
<g id="a_node5"><a xlink:href="/type/Documentable::DocPage::Primary::Language" xlink:title="Documentable::DocPage::Primary::Language">
<ellipse fill="none" stroke="#000000" cx="1426.28" cy="-18" rx="206.06" ry="18"/>
<text text-anchor="middle" x="1426.28" y="-14.3" font-family="FreeSans" font-size="14.00" fill="#000000">Documentable::DocPage::Primary::Language</text>
</a>
</g>
</g>
<!-- Documentable::DocPage::Primary::Language&#45;&gt;Documentable::DocPage -->
<g id="edge4" class="edge">
<title>Documentable::DocPage::Primary::Language&#45;&gt;Documentable::DocPage</title>
<path fill="none" stroke="#000000" d="M1548.72,-32.5C1668.59,-45.71 1849.03,-65.6 1960.76,-77.92"/>
<polygon fill="#000000" stroke="#000000" points="1960.7,-81.43 1971.02,-79.05 1961.46,-74.47 1960.7,-81.43"/>
</g>
<!-- Documentable::DocPage::Primary::Programs -->
<g id="node6" class="node">
<title>Documentable::DocPage::Primary::Programs</title>
<g id="a_node6"><a xlink:href="/type/Documentable::DocPage::Primary::Programs" xlink:title="Documentable::DocPage::Primary::Programs">
<ellipse fill="none" stroke="#000000" cx="1856.28" cy="-18" rx="206.06" ry="18"/>
<text text-anchor="middle" x="1856.28" y="-14.3" font-family="FreeSans" font-size="14.00" fill="#000000">Documentable::DocPage::Primary::Programs</text>
</a>
</g>
</g>
<!-- Documentable::DocPage::Primary::Programs&#45;&gt;Documentable::DocPage -->
<g id="edge5" class="edge">
<title>Documentable::DocPage::Primary::Programs&#45;&gt;Documentable::DocPage</title>
<path fill="none" stroke="#000000" d="M1904.61,-35.5C1935.07,-45.9 1974.5,-59.37 2006.18,-70.18"/>
<polygon fill="#000000" stroke="#000000" points="2005.15,-73.53 2015.74,-73.45 2007.41,-66.91 2005.15,-73.53"/>
</g>
<!-- Documentable::DocPage::Primary::Type -->
<g id="node7" class="node">
<title>Documentable::DocPage::Primary::Type</title>
<g id="a_node7"><a xlink:href="/type/Documentable::DocPage::Primary::Type" xlink:title="Documentable::DocPage::Primary::Type">
<ellipse fill="none" stroke="#000000" cx="2267.28" cy="-18" rx="186.57" ry="18"/>
<text text-anchor="middle" x="2267.28" y="-14.3" font-family="FreeSans" font-size="14.00" fill="#000000">Documentable::DocPage::Primary::Type</text>
</a>
</g>
</g>
<!-- Documentable::DocPage::Primary::Type&#45;&gt;Documentable::DocPage -->
<g id="edge6" class="edge">
<title>Documentable::DocPage::Primary::Type&#45;&gt;Documentable::DocPage</title>
<path fill="none" stroke="#000000" d="M2218.98,-35.41C2188.38,-45.81 2148.69,-59.3 2116.79,-70.14"/>
<polygon fill="#000000" stroke="#000000" points="2115.5,-66.88 2107.16,-73.41 2117.75,-73.51 2115.5,-66.88"/>
</g>
<!-- Documentable::DocPage::SubIndex::Routine -->
<g id="node8" class="node">
<title>Documentable::DocPage::SubIndex::Routine</title>
<g id="a_node8"><a xlink:href="/type/Documentable::DocPage::SubIndex::Routine" xlink:title="Documentable::DocPage::SubIndex::Routine">
<ellipse fill="none" stroke="#000000" cx="2678.28" cy="-18" rx="206.06" ry="18"/>
<text text-anchor="middle" x="2678.28" y="-14.3" font-family="FreeSans" font-size="14.00" fill="#000000">Documentable::DocPage::SubIndex::Routine</text>
</a>
</g>
</g>
<!-- Documentable::DocPage::SubIndex::Routine&#45;&gt;Documentable::DocPage -->
<g id="edge7" class="edge">
<title>Documentable::DocPage::SubIndex::Routine&#45;&gt;Documentable::DocPage</title>
<path fill="none" stroke="#000000" d="M2557.85,-32.66C2441.89,-45.82 2268.58,-65.48 2160.38,-77.76"/>
<polygon fill="#000000" stroke="#000000" points="2159.98,-74.28 2150.44,-78.89 2160.77,-81.24 2159.98,-74.28"/>
</g>
<!-- Documentable::DocPage::Index::Type -->
<g id="node9" class="node">
<title>Documentable::DocPage::Index::Type</title>
<g id="a_node9"><a xlink:href="/type/Documentable::DocPage::Index::Type" xlink:title="Documentable::DocPage::Index::Type">
<ellipse fill="none" stroke="#000000" cx="3079.28" cy="-18" rx="176.57" ry="18"/>
<text text-anchor="middle" x="3079.28" y="-14.3" font-family="FreeSans" font-size="14.00" fill="#000000">Documentable::DocPage::Index::Type</text>
</a>
</g>
</g>
<!-- Documentable::DocPage::Index::Type&#45;&gt;Documentable::DocPage -->
<g id="edge8" class="edge">
<title>Documentable::DocPage::Index::Type&#45;&gt;Documentable::DocPage</title>
<path fill="none" stroke="#000000" d="M2952.65,-30.57C2919.71,-33.58 2893.28,-36 2893.28,-36 2893.28,-36 2401.96,-67.3 2174.44,-81.79"/>
<polygon fill="#000000" stroke="#000000" points="2173.89,-78.32 2164.14,-82.45 2174.34,-85.31 2173.89,-78.32"/>
</g>
<!-- Documentable::DocPage::SubIndex::Type -->
<g id="node10" class="node">
<title>Documentable::DocPage::SubIndex::Type</title>
<g id="a_node10"><a xlink:href="/type/Documentable::DocPage::SubIndex::Type" xlink:title="Documentable::DocPage::SubIndex::Type">
<ellipse fill="none" stroke="#000000" cx="3465.28" cy="-18" rx="191.17" ry="18"/>
<text text-anchor="middle" x="3465.28" y="-14.3" font-family="FreeSans" font-size="14.00" fill="#000000">Documentable::DocPage::SubIndex::Type</text>
</a>
</g>
</g>
<!-- Documentable::DocPage::SubIndex::Type&#45;&gt;Documentable::DocPage -->
<g id="edge9" class="edge">
<title>Documentable::DocPage::SubIndex::Type&#45;&gt;Documentable::DocPage</title>
<path fill="none" stroke="#000000" d="M3328.56,-30.62C3293.41,-33.61 3265.28,-36 3265.28,-36 3265.28,-36 2481.66,-70.5 2178.79,-83.83"/>
<polygon fill="#000000" stroke="#000000" points="2178.5,-80.34 2168.66,-84.27 2178.8,-87.33 2178.5,-80.34"/>
</g>
<!-- Documentable::DocPage::Secondary -->
<g id="node11" class="node">
<title>Documentable::DocPage::Secondary</title>
<g id="a_node11"><a xlink:href="/type/Documentable::DocPage::Secondary" xlink:title="Documentable::DocPage::Secondary">
<ellipse fill="none" stroke="#000000" cx="3841.28" cy="-18" rx="167.07" ry="18"/>
<text text-anchor="middle" x="3841.28" y="-14.3" font-family="FreeSans" font-size="14.00" fill="#000000">Documentable::DocPage::Secondary</text>
</a>
</g>
</g>
<!-- Documentable::DocPage::Secondary&#45;&gt;Documentable::DocPage -->
<g id="edge10" class="edge">
<title>Documentable::DocPage::Secondary&#45;&gt;Documentable::DocPage</title>
<path fill="none" stroke="#000000" d="M3721.45,-30.57C3690.29,-33.58 3665.28,-36 3665.28,-36 3665.28,-36 2553.52,-72.74 2181.17,-85.04"/>
<polygon fill="#000000" stroke="#000000" points="2180.78,-81.55 2170.9,-85.38 2181.01,-88.55 2180.78,-81.55"/>
</g>
</g>
</svg>
