<?xml version="1.0" encoding="UTF-8" standalone="no"?>
<!DOCTYPE svg PUBLIC "-//W3C//DTD SVG 1.1//EN"
 "http://www.w3.org/Graphics/SVG/1.1/DTD/svg11.dtd">
<!-- Generated by graphviz version 2.40.1 (0)
 -->
<!-- Title: perl6&#45;type&#45;graph Pages: 1 -->
<svg width="4017pt" height="116pt"
 viewBox="0.00 0.00 4017.31 116.00" xmlns="http://www.w3.org/2000/svg" xmlns:xlink="http://www.w3.org/1999/xlink">
<g id="graph0" class="graph" transform="scale(1 1) rotate(0) translate(4 112)">
<title>perl6&#45;type&#45;graph</title>
<polygon fill="#ffffff" stroke="transparent" points="-4,4 -4,-112 4013.3143,-112 4013.3143,4 -4,4"/>
<!-- Documentable::DocPage -->
<g id="node1" class="node">
<title>Documentable::DocPage</title>
<g id="a_node1"><a xlink:href="/type/Documentable::DocPage" xlink:title="Documentable::DocPage">
<ellipse fill="none" stroke="#6666ff" cx="2051.0317" cy="-90" rx="113.18" ry="18"/>
<text text-anchor="middle" x="2051.0317" y="-86.3" font-family="FreeSans" font-size="14.00" fill="#6666ff">Documentable::DocPage</text>
</a>
</g>
</g>
<!-- Documentable::DocPage::Primary::Language -->
<g id="node2" class="node">
<title>Documentable::DocPage::Primary::Language</title>
<g id="a_node2"><a xlink:href="/type/Documentable::DocPage::Primary::Language" xlink:title="Documentable::DocPage::Primary::Language">
<ellipse fill="none" stroke="#000000" cx="206.0317" cy="-18" rx="206.0634" ry="18"/>
<text text-anchor="middle" x="206.0317" y="-14.3" font-family="FreeSans" font-size="14.00" fill="#000000">Documentable::DocPage::Primary::Language</text>
</a>
</g>
</g>
<!-- Documentable::DocPage::Primary::Language&#45;&gt;Documentable::DocPage -->
<g id="edge1" class="edge">
<title>Documentable::DocPage::Primary::Language&#45;&gt;Documentable::DocPage</title>
<path fill="none" stroke="#000000" d="M355.0635,-30.4771C391.8896,-33.5602 421.0317,-36 421.0317,-36 421.0317,-36 1552.6819,-73.4903 1930.1438,-85.9951"/>
<polygon fill="#000000" stroke="#000000" points="1930.1662,-89.4977 1940.2767,-86.3308 1930.3981,-82.5015 1930.1662,-89.4977"/>
</g>
<!-- Documentable::DocPage::SubIndex::Routine -->
<g id="node3" class="node">
<title>Documentable::DocPage::SubIndex::Routine</title>
<g id="a_node3"><a xlink:href="/type/Documentable::DocPage::SubIndex::Routine" xlink:title="Documentable::DocPage::SubIndex::Routine">
<ellipse fill="none" stroke="#000000" cx="636.0317" cy="-18" rx="206.0634" ry="18"/>
<text text-anchor="middle" x="636.0317" y="-14.3" font-family="FreeSans" font-size="14.00" fill="#000000">Documentable::DocPage::SubIndex::Routine</text>
</a>
</g>
</g>
<!-- Documentable::DocPage::SubIndex::Routine&#45;&gt;Documentable::DocPage -->
<g id="edge2" class="edge">
<title>Documentable::DocPage::SubIndex::Routine&#45;&gt;Documentable::DocPage</title>
<path fill="none" stroke="#000000" d="M785.0635,-30.4771C821.8896,-33.5602 851.0317,-36 851.0317,-36 851.0317,-36 1628.7874,-70.999 1932.0109,-84.6441"/>
<polygon fill="#000000" stroke="#000000" points="1932.0102,-88.1475 1942.1575,-85.1007 1932.325,-81.1546 1932.0102,-88.1475"/>
</g>
<!-- Documentable::DocPage::Primary::Programs -->
<g id="node4" class="node">
<title>Documentable::DocPage::Primary::Programs</title>
<g id="a_node4"><a xlink:href="/type/Documentable::DocPage::Primary::Programs" xlink:title="Documentable::DocPage::Primary::Programs">
<ellipse fill="none" stroke="#000000" cx="1066.0317" cy="-18" rx="206.0634" ry="18"/>
<text text-anchor="middle" x="1066.0317" y="-14.3" font-family="FreeSans" font-size="14.00" fill="#000000">Documentable::DocPage::Primary::Programs</text>
</a>
</g>
</g>
<!-- Documentable::DocPage::Primary::Programs&#45;&gt;Documentable::DocPage -->
<g id="edge3" class="edge">
<title>Documentable::DocPage::Primary::Programs&#45;&gt;Documentable::DocPage</title>
<path fill="none" stroke="#000000" d="M1215.0635,-30.4771C1251.8896,-33.5602 1281.0317,-36 1281.0317,-36 1281.0317,-36 1722.8711,-66.9861 1937.1567,-82.014"/>
<polygon fill="#000000" stroke="#000000" points="1936.9657,-85.5091 1947.1861,-82.7173 1937.4555,-78.5262 1936.9657,-85.5091"/>
</g>
<!-- Documentable::DocPage::Index::Type -->
<g id="node5" class="node">
<title>Documentable::DocPage::Index::Type</title>
<g id="a_node5"><a xlink:href="/type/Documentable::DocPage::Index::Type" xlink:title="Documentable::DocPage::Index::Type">
<ellipse fill="none" stroke="#000000" cx="1467.0317" cy="-18" rx="176.5689" ry="18"/>
<text text-anchor="middle" x="1467.0317" y="-14.3" font-family="FreeSans" font-size="14.00" fill="#000000">Documentable::DocPage::Index::Type</text>
</a>
</g>
</g>
<!-- Documentable::DocPage::Index::Type&#45;&gt;Documentable::DocPage -->
<g id="edge4" class="edge">
<title>Documentable::DocPage::Index::Type&#45;&gt;Documentable::DocPage</title>
<path fill="none" stroke="#000000" d="M1579.6328,-31.8823C1687.2514,-45.1504 1847.951,-64.9627 1951.1291,-77.6832"/>
<polygon fill="#000000" stroke="#000000" points="1950.8879,-81.1799 1961.241,-78.9299 1951.7444,-74.2325 1950.8879,-81.1799"/>
</g>
<!-- Documentable::DocPage::Index::Routine -->
<g id="node6" class="node">
<title>Documentable::DocPage::Index::Routine</title>
<g id="a_node6"><a xlink:href="/type/Documentable::DocPage::Index::Routine" xlink:title="Documentable::DocPage::Index::Routine">
<ellipse fill="none" stroke="#000000" cx="1853.0317" cy="-18" rx="191.1661" ry="18"/>
<text text-anchor="middle" x="1853.0317" y="-14.3" font-family="FreeSans" font-size="14.00" fill="#000000">Documentable::DocPage::Index::Routine</text>
</a>
</g>
</g>
<!-- Documentable::DocPage::Index::Routine&#45;&gt;Documentable::DocPage -->
<g id="edge5" class="edge">
<title>Documentable::DocPage::Index::Routine&#45;&gt;Documentable::DocPage</title>
<path fill="none" stroke="#000000" d="M1900.962,-35.4292C1929.6721,-45.8692 1966.273,-59.1787 1996.141,-70.0397"/>
<polygon fill="#000000" stroke="#000000" points="1994.9892,-73.3451 2005.5832,-73.4733 1997.3814,-66.7665 1994.9892,-73.3451"/>
</g>
<!-- Documentable::DocPage::Primary::Type -->
<g id="node7" class="node">
<title>Documentable::DocPage::Primary::Type</title>
<g id="a_node7"><a xlink:href="/type/Documentable::DocPage::Primary::Type" xlink:title="Documentable::DocPage::Primary::Type">
<ellipse fill="none" stroke="#000000" cx="2249.0317" cy="-18" rx="186.5669" ry="18"/>
<text text-anchor="middle" x="2249.0317" y="-14.3" font-family="FreeSans" font-size="14.00" fill="#000000">Documentable::DocPage::Primary::Type</text>
</a>
</g>
</g>
<!-- Documentable::DocPage::Primary::Type&#45;&gt;Documentable::DocPage -->
<g id="edge6" class="edge">
<title>Documentable::DocPage::Primary::Type&#45;&gt;Documentable::DocPage</title>
<path fill="none" stroke="#000000" d="M2201.1014,-35.4292C2172.3914,-45.8692 2135.7904,-59.1787 2105.9225,-70.0397"/>
<polygon fill="#000000" stroke="#000000" points="2104.682,-66.7665 2096.4802,-73.4733 2107.0743,-73.3451 2104.682,-66.7665"/>
</g>
<!-- Documentable::DocPage::SubIndex::Type -->
<g id="node8" class="node">
<title>Documentable::DocPage::SubIndex::Type</title>
<g id="a_node8"><a xlink:href="/type/Documentable::DocPage::SubIndex::Type" xlink:title="Documentable::DocPage::SubIndex::Type">
<ellipse fill="none" stroke="#000000" cx="2645.0317" cy="-18" rx="191.1661" ry="18"/>
<text text-anchor="middle" x="2645.0317" y="-14.3" font-family="FreeSans" font-size="14.00" fill="#000000">Documentable::DocPage::SubIndex::Type</text>
</a>
</g>
</g>
<!-- Documentable::DocPage::SubIndex::Type&#45;&gt;Documentable::DocPage -->
<g id="edge7" class="edge">
<title>Documentable::DocPage::SubIndex::Type&#45;&gt;Documentable::DocPage</title>
<path fill="none" stroke="#000000" d="M2527.6764,-32.2249C2417.7342,-45.5512 2255.1845,-65.2542 2151.195,-77.859"/>
<polygon fill="#000000" stroke="#000000" points="2150.5117,-74.4161 2141.0055,-79.0941 2151.354,-81.3653 2150.5117,-74.4161"/>
</g>
<!-- Documentable::DocPage::Secondary -->
<g id="node9" class="node">
<title>Documentable::DocPage::Secondary</title>
<g id="a_node9"><a xlink:href="/type/Documentable::DocPage::Secondary" xlink:title="Documentable::DocPage::Secondary">
<ellipse fill="none" stroke="#000000" cx="3021.0317" cy="-18" rx="167.0704" ry="18"/>
<text text-anchor="middle" x="3021.0317" y="-14.3" font-family="FreeSans" font-size="14.00" fill="#000000">Documentable::DocPage::Secondary</text>
</a>
</g>
</g>
<!-- Documentable::DocPage::Secondary&#45;&gt;Documentable::DocPage -->
<g id="edge8" class="edge">
<title>Documentable::DocPage::Secondary&#45;&gt;Documentable::DocPage</title>
<path fill="none" stroke="#000000" d="M2899.7545,-30.4034C2869.2688,-33.5212 2845.0317,-36 2845.0317,-36 2845.0317,-36 2385.3645,-67.262 2165.5257,-82.2133"/>
<polygon fill="#000000" stroke="#000000" points="2164.9807,-78.7421 2155.2413,-82.9127 2165.4558,-85.726 2164.9807,-78.7421"/>
</g>
<!-- Documentable::DocPage::Index::Language -->
<g id="node10" class="node">
<title>Documentable::DocPage::Index::Language</title>
<g id="a_node10"><a xlink:href="/type/Documentable::DocPage::Index::Language" xlink:title="Documentable::DocPage::Index::Language">
<ellipse fill="none" stroke="#000000" cx="3402.0317" cy="-18" rx="196.0654" ry="18"/>
<text text-anchor="middle" x="3402.0317" y="-14.3" font-family="FreeSans" font-size="14.00" fill="#000000">Documentable::DocPage::Index::Language</text>
</a>
</g>
</g>
<!-- Documentable::DocPage::Index::Language&#45;&gt;Documentable::DocPage -->
<g id="edge9" class="edge">
<title>Documentable::DocPage::Index::Language&#45;&gt;Documentable::DocPage</title>
<path fill="none" stroke="#000000" d="M3260.2112,-30.4525C3224.966,-33.5472 3197.0317,-36 3197.0317,-36 3197.0317,-36 2462.9967,-70.588 2169.859,-84.4008"/>
<polygon fill="#000000" stroke="#000000" points="2169.4433,-80.9164 2159.6191,-84.8833 2169.7728,-87.9087 2169.4433,-80.9164"/>
</g>
<!-- Documentable::DocPage::Index::Programs -->
<g id="node11" class="node">
<title>Documentable::DocPage::Index::Programs</title>
<g id="a_node11"><a xlink:href="/type/Documentable::DocPage::Index::Programs" xlink:title="Documentable::DocPage::Index::Programs">
<ellipse fill="none" stroke="#000000" cx="3813.0317" cy="-18" rx="196.0654" ry="18"/>
<text text-anchor="middle" x="3813.0317" y="-14.3" font-family="FreeSans" font-size="14.00" fill="#000000">Documentable::DocPage::Index::Programs</text>
</a>
</g>
</g>
<!-- Documentable::DocPage::Index::Programs&#45;&gt;Documentable::DocPage -->
<g id="edge10" class="edge">
<title>Documentable::DocPage::Index::Programs&#45;&gt;Documentable::DocPage</title>
<path fill="none" stroke="#000000" d="M3670.8006,-30.428C3635.251,-33.5342 3607.0317,-36 3607.0317,-36 3607.0317,-36 2537.2984,-73.1244 2171.77,-85.8099"/>
<polygon fill="#000000" stroke="#000000" points="2171.5606,-82.3149 2161.688,-86.1597 2171.8034,-89.3107 2171.5606,-82.3149"/>
</g>
</g>
</svg>
