<?xml version="1.0" encoding="UTF-8" standalone="no"?>
<!DOCTYPE svg PUBLIC "-//W3C//DTD SVG 1.1//EN"
 "http://www.w3.org/Graphics/SVG/1.1/DTD/svg11.dtd">
<!-- Generated by graphviz version 2.40.1 (0)
 -->
<!-- Title: perl6&#45;type&#45;graph Pages: 1 -->
<svg width="4016pt" height="116pt"
 viewBox="0.00 0.00 4016.31 116.00" xmlns="http://www.w3.org/2000/svg" xmlns:xlink="http://www.w3.org/1999/xlink">
<g id="graph0" class="graph" transform="scale(1 1) rotate(0) translate(4 112)">
<title>perl6&#45;type&#45;graph</title>
<polygon fill="#ffffff" stroke="transparent" points="-4,4 -4,-112 4012.3143,-112 4012.3143,4 -4,4"/>
<!-- Documentable::DocPage -->
<g id="node1" class="node">
<title>Documentable::DocPage</title>
<g id="a_node1"><a xlink:href="/type/Documentable::DocPage" xlink:title="Documentable::DocPage">
<ellipse fill="none" stroke="#6666ff" cx="2028.0317" cy="-90" rx="113.18" ry="18"/>
<text text-anchor="middle" x="2028.0317" y="-86.3" font-family="FreeSans" font-size="14.00" fill="#6666ff">Documentable::DocPage</text>
</a>
</g>
</g>
<!-- Documentable::DocPage::Primary::Language -->
<g id="node2" class="node">
<title>Documentable::DocPage::Primary::Language</title>
<g id="a_node2"><a xlink:href="/type/Documentable::DocPage::Primary::Language" xlink:title="Documentable::DocPage::Primary::Language">
<ellipse fill="none" stroke="#000000" cx="206.0317" cy="-18" rx="206.0634" ry="18"/>
<text text-anchor="middle" x="206.0317" y="-14.3" font-family="FreeSans" font-size="14.00" fill="#000000">Documentable::DocPage::Primary::Language</text>
</a>
</g>
</g>
<!-- Documentable::DocPage::Primary::Language&#45;&gt;Documentable::DocPage -->
<g id="edge1" class="edge">
<title>Documentable::DocPage::Primary::Language&#45;&gt;Documentable::DocPage</title>
<path fill="none" stroke="#000000" d="M355.0635,-30.4771C391.8896,-33.5602 421.0317,-36 421.0317,-36 421.0317,-36 1533.4767,-73.3815 1907.2241,-85.9405"/>
<polygon fill="#000000" stroke="#000000" points="1907.1473,-89.4398 1917.2593,-86.2777 1907.3825,-82.4438 1907.1473,-89.4398"/>
</g>
<!-- Documentable::DocPage::SubIndex::Type -->
<g id="node3" class="node">
<title>Documentable::DocPage::SubIndex::Type</title>
<g id="a_node3"><a xlink:href="/type/Documentable::DocPage::SubIndex::Type" xlink:title="Documentable::DocPage::SubIndex::Type">
<ellipse fill="none" stroke="#000000" cx="621.0317" cy="-18" rx="191.1661" ry="18"/>
<text text-anchor="middle" x="621.0317" y="-14.3" font-family="FreeSans" font-size="14.00" fill="#000000">Documentable::DocPage::SubIndex::Type</text>
</a>
</g>
</g>
<!-- Documentable::DocPage::SubIndex::Type&#45;&gt;Documentable::DocPage -->
<g id="edge2" class="edge">
<title>Documentable::DocPage::SubIndex::Type&#45;&gt;Documentable::DocPage</title>
<path fill="none" stroke="#000000" d="M759.3932,-30.4525C793.7788,-33.5472 821.0317,-36 821.0317,-36 821.0317,-36 1604.2628,-71.041 1908.8648,-84.6686"/>
<polygon fill="#000000" stroke="#000000" points="1908.9103,-88.174 1919.0568,-85.1246 1909.2232,-81.181 1908.9103,-88.174"/>
</g>
<!-- Documentable::DocPage::Secondary -->
<g id="node4" class="node">
<title>Documentable::DocPage::Secondary</title>
<g id="a_node4"><a xlink:href="/type/Documentable::DocPage::Secondary" xlink:title="Documentable::DocPage::Secondary">
<ellipse fill="none" stroke="#000000" cx="997.0317" cy="-18" rx="167.0704" ry="18"/>
<text text-anchor="middle" x="997.0317" y="-14.3" font-family="FreeSans" font-size="14.00" fill="#000000">Documentable::DocPage::Secondary</text>
</a>
</g>
</g>
<!-- Documentable::DocPage::Secondary&#45;&gt;Documentable::DocPage -->
<g id="edge3" class="edge">
<title>Documentable::DocPage::Secondary&#45;&gt;Documentable::DocPage</title>
<path fill="none" stroke="#000000" d="M1118.309,-30.4034C1148.7947,-33.5212 1173.0317,-36 1173.0317,-36 1173.0317,-36 1679.0725,-67.9605 1912.5347,-82.7055"/>
<polygon fill="#000000" stroke="#000000" points="1912.5628,-86.2141 1922.7635,-83.3515 1913.004,-79.228 1912.5628,-86.2141"/>
</g>
<!-- Documentable::DocPage::Primary::Programs -->
<g id="node5" class="node">
<title>Documentable::DocPage::Primary::Programs</title>
<g id="a_node5"><a xlink:href="/type/Documentable::DocPage::Primary::Programs" xlink:title="Documentable::DocPage::Primary::Programs">
<ellipse fill="none" stroke="#000000" cx="1388.0317" cy="-18" rx="206.0634" ry="18"/>
<text text-anchor="middle" x="1388.0317" y="-14.3" font-family="FreeSans" font-size="14.00" fill="#000000">Documentable::DocPage::Primary::Programs</text>
</a>
</g>
</g>
<!-- Documentable::DocPage::Primary::Programs&#45;&gt;Documentable::DocPage -->
<g id="edge4" class="edge">
<title>Documentable::DocPage::Primary::Programs&#45;&gt;Documentable::DocPage</title>
<path fill="none" stroke="#000000" d="M1514.4751,-32.2249C1634.7601,-45.7569 1813.4902,-65.8641 1925.2552,-78.4376"/>
<polygon fill="#000000" stroke="#000000" points="1925.1944,-81.9528 1935.523,-79.5928 1925.977,-74.9967 1925.1944,-81.9528"/>
</g>
<!-- Documentable::DocPage::SubIndex::Routine -->
<g id="node6" class="node">
<title>Documentable::DocPage::SubIndex::Routine</title>
<g id="a_node6"><a xlink:href="/type/Documentable::DocPage::SubIndex::Routine" xlink:title="Documentable::DocPage::SubIndex::Routine">
<ellipse fill="none" stroke="#000000" cx="1818.0317" cy="-18" rx="206.0634" ry="18"/>
<text text-anchor="middle" x="1818.0317" y="-14.3" font-family="FreeSans" font-size="14.00" fill="#000000">Documentable::DocPage::SubIndex::Routine</text>
</a>
</g>
</g>
<!-- Documentable::DocPage::SubIndex::Routine&#45;&gt;Documentable::DocPage -->
<g id="edge5" class="edge">
<title>Documentable::DocPage::SubIndex::Routine&#45;&gt;Documentable::DocPage</title>
<path fill="none" stroke="#000000" d="M1869.135,-35.5211C1899.8321,-46.0458 1938.9612,-59.4615 1970.7081,-70.3462"/>
<polygon fill="#000000" stroke="#000000" points="1969.7115,-73.7044 1980.3061,-73.6369 1971.9818,-67.0828 1969.7115,-73.7044"/>
</g>
<!-- Documentable::DocPage::Index::Language -->
<g id="node7" class="node">
<title>Documentable::DocPage::Index::Language</title>
<g id="a_node7"><a xlink:href="/type/Documentable::DocPage::Index::Language" xlink:title="Documentable::DocPage::Index::Language">
<ellipse fill="none" stroke="#000000" cx="2238.0317" cy="-18" rx="196.0654" ry="18"/>
<text text-anchor="middle" x="2238.0317" y="-14.3" font-family="FreeSans" font-size="14.00" fill="#000000">Documentable::DocPage::Index::Language</text>
</a>
</g>
</g>
<!-- Documentable::DocPage::Index::Language&#45;&gt;Documentable::DocPage -->
<g id="edge6" class="edge">
<title>Documentable::DocPage::Index::Language&#45;&gt;Documentable::DocPage</title>
<path fill="none" stroke="#000000" d="M2187.1966,-35.4292C2156.5047,-45.9521 2117.3102,-59.3902 2085.4958,-70.298"/>
<polygon fill="#000000" stroke="#000000" points="2084.2012,-67.0418 2075.8769,-73.5959 2086.4715,-73.6634 2084.2012,-67.0418"/>
</g>
<!-- Documentable::DocPage::Index::Type -->
<g id="node8" class="node">
<title>Documentable::DocPage::Index::Type</title>
<g id="a_node8"><a xlink:href="/type/Documentable::DocPage::Index::Type" xlink:title="Documentable::DocPage::Index::Type">
<ellipse fill="none" stroke="#000000" cx="2629.0317" cy="-18" rx="176.5689" ry="18"/>
<text text-anchor="middle" x="2629.0317" y="-14.3" font-family="FreeSans" font-size="14.00" fill="#000000">Documentable::DocPage::Index::Type</text>
</a>
</g>
</g>
<!-- Documentable::DocPage::Index::Type&#45;&gt;Documentable::DocPage -->
<g id="edge7" class="edge">
<title>Documentable::DocPage::Index::Type&#45;&gt;Documentable::DocPage</title>
<path fill="none" stroke="#000000" d="M2514.219,-31.7546C2402.6581,-45.1196 2234.9418,-65.2121 2128.5236,-77.961"/>
<polygon fill="#000000" stroke="#000000" points="2127.933,-74.5067 2118.4203,-79.1714 2128.7657,-81.457 2127.933,-74.5067"/>
</g>
<!-- Documentable::DocPage::Index::Routine -->
<g id="node9" class="node">
<title>Documentable::DocPage::Index::Routine</title>
<g id="a_node9"><a xlink:href="/type/Documentable::DocPage::Index::Routine" xlink:title="Documentable::DocPage::Index::Routine">
<ellipse fill="none" stroke="#000000" cx="3015.0317" cy="-18" rx="191.1661" ry="18"/>
<text text-anchor="middle" x="3015.0317" y="-14.3" font-family="FreeSans" font-size="14.00" fill="#000000">Documentable::DocPage::Index::Routine</text>
</a>
</g>
</g>
<!-- Documentable::DocPage::Index::Routine&#45;&gt;Documentable::DocPage -->
<g id="edge8" class="edge">
<title>Documentable::DocPage::Index::Routine&#45;&gt;Documentable::DocPage</title>
<path fill="none" stroke="#000000" d="M2876.6702,-30.4525C2842.2847,-33.5472 2815.0317,-36 2815.0317,-36 2815.0317,-36 2360.5675,-67.1831 2142.3434,-82.1565"/>
<polygon fill="#000000" stroke="#000000" points="2141.87,-78.6807 2132.1331,-82.8571 2142.3492,-85.6642 2141.87,-78.6807"/>
</g>
<!-- Documentable::DocPage::Primary::Type -->
<g id="node10" class="node">
<title>Documentable::DocPage::Primary::Type</title>
<g id="a_node10"><a xlink:href="/type/Documentable::DocPage::Primary::Type" xlink:title="Documentable::DocPage::Primary::Type">
<ellipse fill="none" stroke="#000000" cx="3411.0317" cy="-18" rx="186.5669" ry="18"/>
<text text-anchor="middle" x="3411.0317" y="-14.3" font-family="FreeSans" font-size="14.00" fill="#000000">Documentable::DocPage::Primary::Type</text>
</a>
</g>
</g>
<!-- Documentable::DocPage::Primary::Type&#45;&gt;Documentable::DocPage -->
<g id="edge9" class="edge">
<title>Documentable::DocPage::Primary::Type&#45;&gt;Documentable::DocPage</title>
<path fill="none" stroke="#000000" d="M3275.7051,-30.428C3241.8811,-33.5342 3215.0317,-36 3215.0317,-36 3215.0317,-36 2447.5461,-70.9151 2146.8444,-84.5949"/>
<polygon fill="#000000" stroke="#000000" points="2146.6113,-81.1018 2136.7807,-85.0527 2146.9295,-88.0945 2146.6113,-81.1018"/>
</g>
<!-- Documentable::DocPage::Index::Programs -->
<g id="node11" class="node">
<title>Documentable::DocPage::Index::Programs</title>
<g id="a_node11"><a xlink:href="/type/Documentable::DocPage::Index::Programs" xlink:title="Documentable::DocPage::Index::Programs">
<ellipse fill="none" stroke="#000000" cx="3812.0317" cy="-18" rx="196.0654" ry="18"/>
<text text-anchor="middle" x="3812.0317" y="-14.3" font-family="FreeSans" font-size="14.00" fill="#000000">Documentable::DocPage::Index::Programs</text>
</a>
</g>
</g>
<!-- Documentable::DocPage::Index::Programs&#45;&gt;Documentable::DocPage -->
<g id="edge10" class="edge">
<title>Documentable::DocPage::Index::Programs&#45;&gt;Documentable::DocPage</title>
<path fill="none" stroke="#000000" d="M3670.2112,-30.4525C3634.966,-33.5472 3607.0317,-36 3607.0317,-36 3607.0317,-36 2518.3172,-73.2328 2148.9361,-85.8652"/>
<polygon fill="#000000" stroke="#000000" points="2148.6244,-82.3737 2138.75,-86.2136 2148.8638,-89.3696 2148.6244,-82.3737"/>
</g>
</g>
</svg>
