<?xml version="1.0" encoding="UTF-8" standalone="no"?>
<!DOCTYPE svg PUBLIC "-//W3C//DTD SVG 1.1//EN"
 "http://www.w3.org/Graphics/SVG/1.1/DTD/svg11.dtd">
<!-- Generated by graphviz version 2.40.1 (0)
 -->
<!-- Title: perl6&#45;type&#45;graph Pages: 1 -->
<svg width="4016pt" height="116pt"
 viewBox="0.00 0.00 4015.57 116.00" xmlns="http://www.w3.org/2000/svg" xmlns:xlink="http://www.w3.org/1999/xlink">
<g id="graph0" class="graph" transform="scale(1 1) rotate(0) translate(4 112)">
<title>perl6&#45;type&#45;graph</title>
<polygon fill="#ffffff" stroke="transparent" points="-4,4 -4,-112 4011.5652,-112 4011.5652,4 -4,4"/>
<!-- Documentable::DocPage -->
<g id="node1" class="node">
<title>Documentable::DocPage</title>
<g id="a_node1"><a xlink:href="/type/Documentable::DocPage" xlink:title="Documentable::DocPage">
<ellipse fill="none" stroke="#6666ff" cx="1999.5334" cy="-90" rx="113.18" ry="18"/>
<text text-anchor="middle" x="1999.5334" y="-86.3" font-family="FreeSans" font-size="14.00" fill="#6666ff">Documentable::DocPage</text>
</a>
</g>
</g>
<!-- Documentable::DocPage::Primary::Type -->
<g id="node2" class="node">
<title>Documentable::DocPage::Primary::Type</title>
<g id="a_node2"><a xlink:href="/type/Documentable::DocPage::Primary::Type" xlink:title="Documentable::DocPage::Primary::Type">
<ellipse fill="none" stroke="#000000" cx="186.5334" cy="-18" rx="186.5669" ry="18"/>
<text text-anchor="middle" x="186.5334" y="-14.3" font-family="FreeSans" font-size="14.00" fill="#000000">Documentable::DocPage::Primary::Type</text>
</a>
</g>
</g>
<!-- Documentable::DocPage::Primary::Type&#45;&gt;Documentable::DocPage -->
<g id="edge1" class="edge">
<title>Documentable::DocPage::Primary::Type&#45;&gt;Documentable::DocPage</title>
<path fill="none" stroke="#000000" d="M321.8601,-30.428C355.684,-33.5342 382.5334,-36 382.5334,-36 382.5334,-36 1503.2033,-73.425 1878.6294,-85.9624"/>
<polygon fill="#000000" stroke="#000000" points="1878.5976,-89.4632 1888.7089,-86.299 1878.8313,-82.4671 1878.5976,-89.4632"/>
</g>
<!-- Documentable::DocPage::Index::Routine -->
<g id="node3" class="node">
<title>Documentable::DocPage::Index::Routine</title>
<g id="a_node3"><a xlink:href="/type/Documentable::DocPage::Index::Routine" xlink:title="Documentable::DocPage::Index::Routine">
<ellipse fill="none" stroke="#000000" cx="582.5334" cy="-18" rx="191.1661" ry="18"/>
<text text-anchor="middle" x="582.5334" y="-14.3" font-family="FreeSans" font-size="14.00" fill="#000000">Documentable::DocPage::Index::Routine</text>
</a>
</g>
</g>
<!-- Documentable::DocPage::Index::Routine&#45;&gt;Documentable::DocPage -->
<g id="edge2" class="edge">
<title>Documentable::DocPage::Index::Routine&#45;&gt;Documentable::DocPage</title>
<path fill="none" stroke="#000000" d="M720.8949,-30.4525C755.2805,-33.5472 782.5334,-36 782.5334,-36 782.5334,-36 1573.6742,-71.104 1880.2064,-84.7053"/>
<polygon fill="#000000" stroke="#000000" points="1880.3164,-88.2135 1890.4618,-85.1603 1880.6268,-81.2204 1880.3164,-88.2135"/>
</g>
<!-- Documentable::DocPage::Index::Type -->
<g id="node4" class="node">
<title>Documentable::DocPage::Index::Type</title>
<g id="a_node4"><a xlink:href="/type/Documentable::DocPage::Index::Type" xlink:title="Documentable::DocPage::Index::Type">
<ellipse fill="none" stroke="#000000" cx="968.5334" cy="-18" rx="176.5689" ry="18"/>
<text text-anchor="middle" x="968.5334" y="-14.3" font-family="FreeSans" font-size="14.00" fill="#000000">Documentable::DocPage::Index::Type</text>
</a>
</g>
</g>
<!-- Documentable::DocPage::Index::Type&#45;&gt;Documentable::DocPage -->
<g id="edge3" class="edge">
<title>Documentable::DocPage::Index::Type&#45;&gt;Documentable::DocPage</title>
<path fill="none" stroke="#000000" d="M1096.7015,-30.4034C1128.9193,-33.5212 1154.5334,-36 1154.5334,-36 1154.5334,-36 1652.7808,-67.8407 1884.0858,-82.6223"/>
<polygon fill="#000000" stroke="#000000" points="1884.0193,-86.1251 1894.2221,-83.27 1884.4657,-79.1393 1884.0193,-86.1251"/>
</g>
<!-- Documentable::DocPage::Primary::Language -->
<g id="node5" class="node">
<title>Documentable::DocPage::Primary::Language</title>
<g id="a_node5"><a xlink:href="/type/Documentable::DocPage::Primary::Language" xlink:title="Documentable::DocPage::Primary::Language">
<ellipse fill="none" stroke="#000000" cx="1369.5334" cy="-18" rx="206.0634" ry="18"/>
<text text-anchor="middle" x="1369.5334" y="-14.3" font-family="FreeSans" font-size="14.00" fill="#000000">Documentable::DocPage::Primary::Language</text>
</a>
</g>
</g>
<!-- Documentable::DocPage::Primary::Language&#45;&gt;Documentable::DocPage -->
<g id="edge4" class="edge">
<title>Documentable::DocPage::Primary::Language&#45;&gt;Documentable::DocPage</title>
<path fill="none" stroke="#000000" d="M1494.7544,-32.311C1612.7191,-45.7926 1787.2957,-65.7443 1897.1565,-78.2998"/>
<polygon fill="#000000" stroke="#000000" points="1896.9199,-81.7954 1907.2527,-79.4536 1897.7148,-74.8407 1896.9199,-81.7954"/>
</g>
<!-- Documentable::DocPage::Index::Language -->
<g id="node6" class="node">
<title>Documentable::DocPage::Index::Language</title>
<g id="a_node6"><a xlink:href="/type/Documentable::DocPage::Index::Language" xlink:title="Documentable::DocPage::Index::Language">
<ellipse fill="none" stroke="#000000" cx="1789.5334" cy="-18" rx="196.0654" ry="18"/>
<text text-anchor="middle" x="1789.5334" y="-14.3" font-family="FreeSans" font-size="14.00" fill="#000000">Documentable::DocPage::Index::Language</text>
</a>
</g>
</g>
<!-- Documentable::DocPage::Index::Language&#45;&gt;Documentable::DocPage -->
<g id="edge5" class="edge">
<title>Documentable::DocPage::Index::Language&#45;&gt;Documentable::DocPage</title>
<path fill="none" stroke="#000000" d="M1840.3686,-35.4292C1871.0605,-45.9521 1910.255,-59.3902 1942.0694,-70.298"/>
<polygon fill="#000000" stroke="#000000" points="1941.0937,-73.6634 1951.6883,-73.5959 1943.364,-67.0418 1941.0937,-73.6634"/>
</g>
<!-- Documentable::DocPage::Primary::Programs -->
<g id="node7" class="node">
<title>Documentable::DocPage::Primary::Programs</title>
<g id="a_node7"><a xlink:href="/type/Documentable::DocPage::Primary::Programs" xlink:title="Documentable::DocPage::Primary::Programs">
<ellipse fill="none" stroke="#000000" cx="2209.5334" cy="-18" rx="206.0634" ry="18"/>
<text text-anchor="middle" x="2209.5334" y="-14.3" font-family="FreeSans" font-size="14.00" fill="#000000">Documentable::DocPage::Primary::Programs</text>
</a>
</g>
</g>
<!-- Documentable::DocPage::Primary::Programs&#45;&gt;Documentable::DocPage -->
<g id="edge6" class="edge">
<title>Documentable::DocPage::Primary::Programs&#45;&gt;Documentable::DocPage</title>
<path fill="none" stroke="#000000" d="M2158.4302,-35.5211C2127.7331,-46.0458 2088.6039,-59.4615 2056.857,-70.3462"/>
<polygon fill="#000000" stroke="#000000" points="2055.5833,-67.0828 2047.259,-73.6369 2057.8537,-73.7044 2055.5833,-67.0828"/>
</g>
<!-- Documentable::DocPage::SubIndex::Type -->
<g id="node8" class="node">
<title>Documentable::DocPage::SubIndex::Type</title>
<g id="a_node8"><a xlink:href="/type/Documentable::DocPage::SubIndex::Type" xlink:title="Documentable::DocPage::SubIndex::Type">
<ellipse fill="none" stroke="#000000" cx="2624.5334" cy="-18" rx="191.1661" ry="18"/>
<text text-anchor="middle" x="2624.5334" y="-14.3" font-family="FreeSans" font-size="14.00" fill="#000000">Documentable::DocPage::SubIndex::Type</text>
</a>
</g>
</g>
<!-- Documentable::DocPage::SubIndex::Type&#45;&gt;Documentable::DocPage -->
<g id="edge7" class="edge">
<title>Documentable::DocPage::SubIndex::Type&#45;&gt;Documentable::DocPage</title>
<path fill="none" stroke="#000000" d="M2503.2861,-31.9677C2386.4164,-45.4311 2211.5601,-65.5745 2101.6109,-78.2407"/>
<polygon fill="#000000" stroke="#000000" points="2101.0407,-74.7831 2091.507,-79.4046 2101.8419,-81.7371 2101.0407,-74.7831"/>
</g>
<!-- Documentable::DocPage::Secondary -->
<g id="node9" class="node">
<title>Documentable::DocPage::Secondary</title>
<g id="a_node9"><a xlink:href="/type/Documentable::DocPage::Secondary" xlink:title="Documentable::DocPage::Secondary">
<ellipse fill="none" stroke="#000000" cx="3000.5334" cy="-18" rx="167.0704" ry="18"/>
<text text-anchor="middle" x="3000.5334" y="-14.3" font-family="FreeSans" font-size="14.00" fill="#000000">Documentable::DocPage::Secondary</text>
</a>
</g>
</g>
<!-- Documentable::DocPage::Secondary&#45;&gt;Documentable::DocPage -->
<g id="edge8" class="edge">
<title>Documentable::DocPage::Secondary&#45;&gt;Documentable::DocPage</title>
<path fill="none" stroke="#000000" d="M2879.2562,-30.4034C2848.7705,-33.5212 2824.5334,-36 2824.5334,-36 2824.5334,-36 2341.6011,-67.6101 2114.716,-82.4608"/>
<polygon fill="#000000" stroke="#000000" points="2114.1889,-78.9877 2104.4389,-83.1335 2114.6462,-85.9727 2114.1889,-78.9877"/>
</g>
<!-- Documentable::DocPage::Index::Programs -->
<g id="node10" class="node">
<title>Documentable::DocPage::Index::Programs</title>
<g id="a_node10"><a xlink:href="/type/Documentable::DocPage::Index::Programs" xlink:title="Documentable::DocPage::Index::Programs">
<ellipse fill="none" stroke="#000000" cx="3381.5334" cy="-18" rx="196.0654" ry="18"/>
<text text-anchor="middle" x="3381.5334" y="-14.3" font-family="FreeSans" font-size="14.00" fill="#000000">Documentable::DocPage::Index::Programs</text>
</a>
</g>
</g>
<!-- Documentable::DocPage::Index::Programs&#45;&gt;Documentable::DocPage -->
<g id="edge9" class="edge">
<title>Documentable::DocPage::Index::Programs&#45;&gt;Documentable::DocPage</title>
<path fill="none" stroke="#000000" d="M3239.7129,-30.4525C3204.4677,-33.5472 3176.5334,-36 3176.5334,-36 3176.5334,-36 2417.3402,-70.8313 2118.4213,-84.5455"/>
<polygon fill="#000000" stroke="#000000" points="2118.2449,-81.0498 2108.4159,-85.0045 2118.5658,-88.0425 2118.2449,-81.0498"/>
</g>
<!-- Documentable::DocPage::SubIndex::Routine -->
<g id="node11" class="node">
<title>Documentable::DocPage::SubIndex::Routine</title>
<g id="a_node11"><a xlink:href="/type/Documentable::DocPage::SubIndex::Routine" xlink:title="Documentable::DocPage::SubIndex::Routine">
<ellipse fill="none" stroke="#000000" cx="3801.5334" cy="-18" rx="206.0634" ry="18"/>
<text text-anchor="middle" x="3801.5334" y="-14.3" font-family="FreeSans" font-size="14.00" fill="#000000">Documentable::DocPage::SubIndex::Routine</text>
</a>
</g>
</g>
<!-- Documentable::DocPage::SubIndex::Routine&#45;&gt;Documentable::DocPage -->
<g id="edge10" class="edge">
<title>Documentable::DocPage::SubIndex::Routine&#45;&gt;Documentable::DocPage</title>
<path fill="none" stroke="#000000" d="M3652.5017,-30.4771C3615.6756,-33.5602 3586.5334,-36 3586.5334,-36 3586.5334,-36 2491.0276,-73.2762 2120.4023,-85.8873"/>
<polygon fill="#000000" stroke="#000000" points="2120.0578,-82.3969 2110.1826,-86.235 2120.2959,-89.3928 2120.0578,-82.3969"/>
</g>
</g>
</svg>
