<?xml version="1.0" encoding="UTF-8" standalone="no"?>
<!DOCTYPE svg PUBLIC "-//W3C//DTD SVG 1.1//EN"
 "http://www.w3.org/Graphics/SVG/1.1/DTD/svg11.dtd">
<!-- Generated by graphviz version 2.42.3 ()
 -->
<!-- Title: perl6&#45;type&#45;graph Pages: 1 -->
<svg width="722pt" height="188pt"
 viewBox="0.00 0.00 721.93 188.00" xmlns="http://www.w3.org/2000/svg" xmlns:xlink="http://www.w3.org/1999/xlink">
<g id="graph0" class="graph" transform="scale(1 1) rotate(0) translate(4 184)">
<title>perl6&#45;type&#45;graph</title>
<polygon fill="white" stroke="transparent" points="-4,4 -4,-184 717.93,-184 717.93,4 -4,4"/>
<!-- Documentable -->
<g id="node1" class="node">
<title>Documentable</title>
<g id="a_node1"><a xlink:href="/type/Documentable" xlink:title="Documentable">
<ellipse fill="none" stroke="#000000" cx="366.84" cy="-90" rx="69.59" ry="18"/>
<text text-anchor="middle" x="366.84" y="-86.3" font-family="FreeSans" font-size="14.00" fill="#000000">Documentable</text>
</a>
</g>
</g>
<!-- Any -->
<g id="node2" class="node">
<title>Any</title>
<g id="a_node2"><a xlink:href="/type/Any" xlink:title="Any">
<ellipse fill="none" stroke="#000000" cx="366.84" cy="-162" rx="27" ry="18"/>
<text text-anchor="middle" x="366.84" y="-158.3" font-family="FreeSans" font-size="14.00" fill="#000000">Any</text>
</a>
</g>
</g>
<!-- Documentable&#45;&gt;Any -->
<g id="edge1" class="edge">
<title>Documentable&#45;&gt;Any</title>
<path fill="none" stroke="#000000" d="M366.84,-108.3C366.84,-116.02 366.84,-125.29 366.84,-133.89"/>
<polygon fill="#000000" stroke="#000000" points="363.34,-133.9 366.84,-143.9 370.34,-133.9 363.34,-133.9"/>
</g>
<!-- Documentable::Secondary -->
<g id="node3" class="node">
<title>Documentable::Secondary</title>
<g id="a_node3"><a xlink:href="/type/Documentable::Secondary" xlink:title="Documentable::Secondary">
<ellipse fill="none" stroke="#000000" cx="122.84" cy="-18" rx="122.68" ry="18"/>
<text text-anchor="middle" x="122.84" y="-14.3" font-family="FreeSans" font-size="14.00" fill="#000000">Documentable::Secondary</text>
</a>
</g>
</g>
<!-- Documentable::Secondary&#45;&gt;Documentable -->
<g id="edge2" class="edge">
<title>Documentable::Secondary&#45;&gt;Documentable</title>
<path fill="none" stroke="#000000" d="M176.08,-34.28C216.37,-45.83 271.51,-61.65 312.15,-73.31"/>
<polygon fill="#000000" stroke="#000000" points="311.31,-76.71 321.89,-76.1 313.24,-69.98 311.31,-76.71"/>
</g>
<!-- Documentable::Index -->
<g id="node4" class="node">
<title>Documentable::Index</title>
<g id="a_node4"><a xlink:href="/type/Documentable::Index" xlink:title="Documentable::Index">
<ellipse fill="none" stroke="#000000" cx="366.84" cy="-18" rx="103.18" ry="18"/>
<text text-anchor="middle" x="366.84" y="-14.3" font-family="FreeSans" font-size="14.00" fill="#000000">Documentable::Index</text>
</a>
</g>
</g>
<!-- Documentable::Index&#45;&gt;Documentable -->
<g id="edge3" class="edge">
<title>Documentable::Index&#45;&gt;Documentable</title>
<path fill="none" stroke="#000000" d="M366.84,-36.3C366.84,-44.02 366.84,-53.29 366.84,-61.89"/>
<polygon fill="#000000" stroke="#000000" points="363.34,-61.9 366.84,-71.9 370.34,-61.9 363.34,-61.9"/>
</g>
<!-- Documentable::Primary -->
<g id="node5" class="node">
<title>Documentable::Primary</title>
<g id="a_node5"><a xlink:href="/type/Documentable::Primary" xlink:title="Documentable::Primary">
<ellipse fill="none" stroke="#000000" cx="600.84" cy="-18" rx="113.18" ry="18"/>
<text text-anchor="middle" x="600.84" y="-14.3" font-family="FreeSans" font-size="14.00" fill="#000000">Documentable::Primary</text>
</a>
</g>
</g>
<!-- Documentable::Primary&#45;&gt;Documentable -->
<g id="edge4" class="edge">
<title>Documentable::Primary&#45;&gt;Documentable</title>
<path fill="none" stroke="#000000" d="M550.06,-34.19C511.65,-45.68 459.04,-61.42 420.04,-73.09"/>
<polygon fill="#000000" stroke="#000000" points="419.01,-69.74 410.44,-75.96 421.02,-76.45 419.01,-69.74"/>
</g>
</g>
</svg>
