<?xml version="1.0" encoding="UTF-8" standalone="no"?>
<!DOCTYPE svg PUBLIC "-//W3C//DTD SVG 1.1//EN"
 "http://www.w3.org/Graphics/SVG/1.1/DTD/svg11.dtd">
<!-- Generated by graphviz version 2.42.3 ()
 -->
<!-- Title: perl6&#45;type&#45;graph Pages: 1 -->
<svg width="4015pt" height="116pt"
 viewBox="0.00 0.00 4015.31 116.00" xmlns="http://www.w3.org/2000/svg" xmlns:xlink="http://www.w3.org/1999/xlink">
<g id="graph0" class="graph" transform="scale(1 1) rotate(0) translate(4 112)">
<title>perl6&#45;type&#45;graph</title>
<polygon fill="white" stroke="transparent" points="-4,4 -4,-112 4011.31,-112 4011.31,4 -4,4"/>
<!-- Documentable::DocPage -->
<g id="node1" class="node">
<title>Documentable::DocPage</title>
<g id="a_node1"><a xlink:href="/type/Documentable::DocPage" xlink:title="Documentable::DocPage">
<ellipse fill="none" stroke="#6666ff" cx="2054.03" cy="-90" rx="113.18" ry="18"/>
<text text-anchor="middle" x="2054.03" y="-86.3" font-family="FreeSans" font-size="14.00" fill="#6666ff">Documentable::DocPage</text>
</a>
</g>
</g>
<!-- Documentable::DocPage::Primary::Language -->
<g id="node2" class="node">
<title>Documentable::DocPage::Primary::Language</title>
<g id="a_node2"><a xlink:href="/type/Documentable::DocPage::Primary::Language" xlink:title="Documentable::DocPage::Primary::Language">
<ellipse fill="none" stroke="#000000" cx="206.03" cy="-18" rx="206.06" ry="18"/>
<text text-anchor="middle" x="206.03" y="-14.3" font-family="FreeSans" font-size="14.00" fill="#000000">Documentable::DocPage::Primary::Language</text>
</a>
</g>
</g>
<!-- Documentable::DocPage::Primary::Language&#45;&gt;Documentable::DocPage -->
<g id="edge1" class="edge">
<title>Documentable::DocPage::Primary::Language&#45;&gt;Documentable::DocPage</title>
<path fill="none" stroke="#000000" d="M353,-30.62C390.8,-33.61 421.03,-36 421.03,-36 421.03,-36 1557.4,-72.88 1934.24,-85.11"/>
<polygon fill="#000000" stroke="#000000" points="1934.24,-88.61 1944.35,-85.44 1934.47,-81.62 1934.24,-88.61"/>
</g>
<!-- Documentable::DocPage::Index::Programs -->
<g id="node3" class="node">
<title>Documentable::DocPage::Index::Programs</title>
<g id="a_node3"><a xlink:href="/type/Documentable::DocPage::Index::Programs" xlink:title="Documentable::DocPage::Index::Programs">
<ellipse fill="none" stroke="#000000" cx="626.03" cy="-18" rx="196.07" ry="18"/>
<text text-anchor="middle" x="626.03" y="-14.3" font-family="FreeSans" font-size="14.00" fill="#000000">Documentable::DocPage::Index::Programs</text>
</a>
</g>
</g>
<!-- Documentable::DocPage::Index::Programs&#45;&gt;Documentable::DocPage -->
<g id="edge2" class="edge">
<title>Documentable::DocPage::Index::Programs&#45;&gt;Documentable::DocPage</title>
<path fill="none" stroke="#000000" d="M766.17,-30.62C802.2,-33.61 831.03,-36 831.03,-36 831.03,-36 1629.89,-70.62 1936.32,-83.9"/>
<polygon fill="#000000" stroke="#000000" points="1936.43,-87.41 1946.57,-84.34 1936.73,-80.41 1936.43,-87.41"/>
</g>
<!-- Documentable::DocPage::Index::Routine -->
<g id="node4" class="node">
<title>Documentable::DocPage::Index::Routine</title>
<g id="a_node4"><a xlink:href="/type/Documentable::DocPage::Index::Routine" xlink:title="Documentable::DocPage::Index::Routine">
<ellipse fill="none" stroke="#000000" cx="1031.03" cy="-18" rx="191.17" ry="18"/>
<text text-anchor="middle" x="1031.03" y="-14.3" font-family="FreeSans" font-size="14.00" fill="#000000">Documentable::DocPage::Index::Routine</text>
</a>
</g>
</g>
<!-- Documentable::DocPage::Index::Routine&#45;&gt;Documentable::DocPage -->
<g id="edge3" class="edge">
<title>Documentable::DocPage::Index::Routine&#45;&gt;Documentable::DocPage</title>
<path fill="none" stroke="#000000" d="M1167.75,-30.62C1202.91,-33.61 1231.03,-36 1231.03,-36 1231.03,-36 1715.83,-67.22 1941.25,-81.74"/>
<polygon fill="#000000" stroke="#000000" points="1941.26,-85.24 1951.46,-82.39 1941.71,-78.26 1941.26,-85.24"/>
</g>
<!-- Documentable::DocPage::Primary::Programs -->
<g id="node5" class="node">
<title>Documentable::DocPage::Primary::Programs</title>
<g id="a_node5"><a xlink:href="/type/Documentable::DocPage::Primary::Programs" xlink:title="Documentable::DocPage::Primary::Programs">
<ellipse fill="none" stroke="#000000" cx="1446.03" cy="-18" rx="206.06" ry="18"/>
<text text-anchor="middle" x="1446.03" y="-14.3" font-family="FreeSans" font-size="14.00" fill="#000000">Documentable::DocPage::Primary::Programs</text>
</a>
</g>
</g>
<!-- Documentable::DocPage::Primary::Programs&#45;&gt;Documentable::DocPage -->
<g id="edge4" class="edge">
<title>Documentable::DocPage::Primary::Programs&#45;&gt;Documentable::DocPage</title>
<path fill="none" stroke="#000000" d="M1565.07,-32.7C1678.93,-45.81 1848.65,-65.35 1955.24,-77.63"/>
<polygon fill="#000000" stroke="#000000" points="1955.02,-81.12 1965.36,-78.79 1955.82,-74.17 1955.02,-81.12"/>
</g>
<!-- Documentable::DocPage::SubIndex::Type -->
<g id="node6" class="node">
<title>Documentable::DocPage::SubIndex::Type</title>
<g id="a_node6"><a xlink:href="/type/Documentable::DocPage::SubIndex::Type" xlink:title="Documentable::DocPage::SubIndex::Type">
<ellipse fill="none" stroke="#000000" cx="1861.03" cy="-18" rx="191.17" ry="18"/>
<text text-anchor="middle" x="1861.03" y="-14.3" font-family="FreeSans" font-size="14.00" fill="#000000">Documentable::DocPage::SubIndex::Type</text>
</a>
</g>
</g>
<!-- Documentable::DocPage::SubIndex::Type&#45;&gt;Documentable::DocPage -->
<g id="edge5" class="edge">
<title>Documentable::DocPage::SubIndex::Type&#45;&gt;Documentable::DocPage</title>
<path fill="none" stroke="#000000" d="M1906.77,-35.59C1935.01,-45.83 1971.36,-59.02 2000.88,-69.72"/>
<polygon fill="#000000" stroke="#000000" points="2000.02,-73.13 2010.61,-73.25 2002.4,-66.55 2000.02,-73.13"/>
</g>
<!-- Documentable::DocPage::Index::Type -->
<g id="node7" class="node">
<title>Documentable::DocPage::Index::Type</title>
<g id="a_node7"><a xlink:href="/type/Documentable::DocPage::Index::Type" xlink:title="Documentable::DocPage::Index::Type">
<ellipse fill="none" stroke="#000000" cx="2247.03" cy="-18" rx="176.57" ry="18"/>
<text text-anchor="middle" x="2247.03" y="-14.3" font-family="FreeSans" font-size="14.00" fill="#000000">Documentable::DocPage::Index::Type</text>
</a>
</g>
</g>
<!-- Documentable::DocPage::Index::Type&#45;&gt;Documentable::DocPage -->
<g id="edge6" class="edge">
<title>Documentable::DocPage::Index::Type&#45;&gt;Documentable::DocPage</title>
<path fill="none" stroke="#000000" d="M2201.78,-35.41C2173.45,-45.69 2136.82,-58.97 2107.12,-69.74"/>
<polygon fill="#000000" stroke="#000000" points="2105.55,-66.59 2097.34,-73.29 2107.93,-73.17 2105.55,-66.59"/>
</g>
<!-- Documentable::DocPage::Primary::Type -->
<g id="node8" class="node">
<title>Documentable::DocPage::Primary::Type</title>
<g id="a_node8"><a xlink:href="/type/Documentable::DocPage::Primary::Type" xlink:title="Documentable::DocPage::Primary::Type">
<ellipse fill="none" stroke="#000000" cx="2628.03" cy="-18" rx="186.57" ry="18"/>
<text text-anchor="middle" x="2628.03" y="-14.3" font-family="FreeSans" font-size="14.00" fill="#000000">Documentable::DocPage::Primary::Type</text>
</a>
</g>
</g>
<!-- Documentable::DocPage::Primary::Type&#45;&gt;Documentable::DocPage -->
<g id="edge7" class="edge">
<title>Documentable::DocPage::Primary::Type&#45;&gt;Documentable::DocPage</title>
<path fill="none" stroke="#000000" d="M2517.36,-32.5C2411.11,-45.45 2252.22,-64.83 2150.87,-77.19"/>
<polygon fill="#000000" stroke="#000000" points="2150.44,-73.72 2140.94,-78.4 2151.29,-80.67 2150.44,-73.72"/>
</g>
<!-- Documentable::DocPage::Secondary -->
<g id="node9" class="node">
<title>Documentable::DocPage::Secondary</title>
<g id="a_node9"><a xlink:href="/type/Documentable::DocPage::Secondary" xlink:title="Documentable::DocPage::Secondary">
<ellipse fill="none" stroke="#000000" cx="3000.03" cy="-18" rx="167.07" ry="18"/>
<text text-anchor="middle" x="3000.03" y="-14.3" font-family="FreeSans" font-size="14.00" fill="#000000">Documentable::DocPage::Secondary</text>
</a>
</g>
</g>
<!-- Documentable::DocPage::Secondary&#45;&gt;Documentable::DocPage -->
<g id="edge8" class="edge">
<title>Documentable::DocPage::Secondary&#45;&gt;Documentable::DocPage</title>
<path fill="none" stroke="#000000" d="M2880.2,-30.57C2849.04,-33.58 2824.03,-36 2824.03,-36 2824.03,-36 2378.82,-66.64 2165.47,-81.33"/>
<polygon fill="#000000" stroke="#000000" points="2165.22,-77.84 2155.49,-82.02 2165.7,-84.82 2165.22,-77.84"/>
</g>
<!-- Documentable::DocPage::SubIndex::Routine -->
<g id="node10" class="node">
<title>Documentable::DocPage::SubIndex::Routine</title>
<g id="a_node10"><a xlink:href="/type/Documentable::DocPage::SubIndex::Routine" xlink:title="Documentable::DocPage::SubIndex::Routine">
<ellipse fill="none" stroke="#000000" cx="3391.03" cy="-18" rx="206.06" ry="18"/>
<text text-anchor="middle" x="3391.03" y="-14.3" font-family="FreeSans" font-size="14.00" fill="#000000">Documentable::DocPage::SubIndex::Routine</text>
</a>
</g>
</g>
<!-- Documentable::DocPage::SubIndex::Routine&#45;&gt;Documentable::DocPage -->
<g id="edge9" class="edge">
<title>Documentable::DocPage::SubIndex::Routine&#45;&gt;Documentable::DocPage</title>
<path fill="none" stroke="#000000" d="M3244.06,-30.62C3206.27,-33.61 3176.03,-36 3176.03,-36 3176.03,-36 2457.8,-69.93 2170.63,-83.49"/>
<polygon fill="#000000" stroke="#000000" points="2170.42,-80 2160.6,-83.97 2170.75,-86.99 2170.42,-80"/>
</g>
<!-- Documentable::DocPage::Index::Language -->
<g id="node11" class="node">
<title>Documentable::DocPage::Index::Language</title>
<g id="a_node11"><a xlink:href="/type/Documentable::DocPage::Index::Language" xlink:title="Documentable::DocPage::Index::Language">
<ellipse fill="none" stroke="#000000" cx="3811.03" cy="-18" rx="196.07" ry="18"/>
<text text-anchor="middle" x="3811.03" y="-14.3" font-family="FreeSans" font-size="14.00" fill="#000000">Documentable::DocPage::Index::Language</text>
</a>
</g>
</g>
<!-- Documentable::DocPage::Index::Language&#45;&gt;Documentable::DocPage -->
<g id="edge10" class="edge">
<title>Documentable::DocPage::Index::Language&#45;&gt;Documentable::DocPage</title>
<path fill="none" stroke="#000000" d="M3670.89,-30.62C3634.86,-33.61 3606.03,-36 3606.03,-36 3606.03,-36 2536.56,-72.52 2173.19,-84.93"/>
<polygon fill="#000000" stroke="#000000" points="2173.04,-81.43 2163.17,-85.27 2173.28,-88.43 2173.04,-81.43"/>
</g>
</g>
</svg>
