<?xml version="1.0" encoding="UTF-8" standalone="no"?>
<!DOCTYPE svg PUBLIC "-//W3C//DTD SVG 1.1//EN"
 "http://www.w3.org/Graphics/SVG/1.1/DTD/svg11.dtd">
<!-- Generated by graphviz version 2.40.1 (0)
 -->
<!-- Title: perl6&#45;type&#45;graph Pages: 1 -->
<svg width="4016pt" height="116pt"
 viewBox="0.00 0.00 4016.07 116.00" xmlns="http://www.w3.org/2000/svg" xmlns:xlink="http://www.w3.org/1999/xlink">
<g id="graph0" class="graph" transform="scale(1 1) rotate(0) translate(4 112)">
<title>perl6&#45;type&#45;graph</title>
<polygon fill="#ffffff" stroke="transparent" points="-4,4 -4,-112 4012.0669,-112 4012.0669,4 -4,4"/>
<!-- Documentable::DocPage -->
<g id="node1" class="node">
<title>Documentable::DocPage</title>
<g id="a_node1"><a xlink:href="/type/Documentable::DocPage" xlink:title="Documentable::DocPage">
<ellipse fill="none" stroke="#6666ff" cx="2017.0317" cy="-90" rx="113.18" ry="18"/>
<text text-anchor="middle" x="2017.0317" y="-86.3" font-family="FreeSans" font-size="14.00" fill="#6666ff">Documentable::DocPage</text>
</a>
</g>
</g>
<!-- Documentable::DocPage::SubIndex::Routine -->
<g id="node2" class="node">
<title>Documentable::DocPage::SubIndex::Routine</title>
<g id="a_node2"><a xlink:href="/type/Documentable::DocPage::SubIndex::Routine" xlink:title="Documentable::DocPage::SubIndex::Routine">
<ellipse fill="none" stroke="#000000" cx="206.0317" cy="-18" rx="206.0634" ry="18"/>
<text text-anchor="middle" x="206.0317" y="-14.3" font-family="FreeSans" font-size="14.00" fill="#000000">Documentable::DocPage::SubIndex::Routine</text>
</a>
</g>
</g>
<!-- Documentable::DocPage::SubIndex::Routine&#45;&gt;Documentable::DocPage -->
<g id="edge1" class="edge">
<title>Documentable::DocPage::SubIndex::Routine&#45;&gt;Documentable::DocPage</title>
<path fill="none" stroke="#000000" d="M355.0635,-30.4771C391.8896,-33.5602 421.0317,-36 421.0317,-36 421.0317,-36 1524.0336,-73.3196 1896.1277,-85.9093"/>
<polygon fill="#000000" stroke="#000000" points="1896.2744,-89.4161 1906.387,-86.2564 1896.5112,-82.4201 1896.2744,-89.4161"/>
</g>
<!-- Documentable::DocPage::Primary::Type -->
<g id="node3" class="node">
<title>Documentable::DocPage::Primary::Type</title>
<g id="a_node3"><a xlink:href="/type/Documentable::DocPage::Primary::Type" xlink:title="Documentable::DocPage::Primary::Type">
<ellipse fill="none" stroke="#000000" cx="617.0317" cy="-18" rx="186.5669" ry="18"/>
<text text-anchor="middle" x="617.0317" y="-14.3" font-family="FreeSans" font-size="14.00" fill="#000000">Documentable::DocPage::Primary::Type</text>
</a>
</g>
</g>
<!-- Documentable::DocPage::Primary::Type&#45;&gt;Documentable::DocPage -->
<g id="edge2" class="edge">
<title>Documentable::DocPage::Primary::Type&#45;&gt;Documentable::DocPage</title>
<path fill="none" stroke="#000000" d="M752.3584,-30.428C786.1823,-33.5342 813.0317,-36 813.0317,-36 813.0317,-36 1593.8479,-71.02 1897.8877,-84.6563"/>
<polygon fill="#000000" stroke="#000000" points="1897.9144,-88.161 1908.0612,-85.1126 1898.2281,-81.168 1897.9144,-88.161"/>
</g>
<!-- Documentable::DocPage::Index::Programs -->
<g id="node4" class="node">
<title>Documentable::DocPage::Index::Programs</title>
<g id="a_node4"><a xlink:href="/type/Documentable::DocPage::Index::Programs" xlink:title="Documentable::DocPage::Index::Programs">
<ellipse fill="none" stroke="#000000" cx="1018.0317" cy="-18" rx="196.0654" ry="18"/>
<text text-anchor="middle" x="1018.0317" y="-14.3" font-family="FreeSans" font-size="14.00" fill="#000000">Documentable::DocPage::Index::Programs</text>
</a>
</g>
</g>
<!-- Documentable::DocPage::Index::Programs&#45;&gt;Documentable::DocPage -->
<g id="edge3" class="edge">
<title>Documentable::DocPage::Index::Programs&#45;&gt;Documentable::DocPage</title>
<path fill="none" stroke="#000000" d="M1159.8522,-30.4525C1195.0974,-33.5472 1223.0317,-36 1223.0317,-36 1223.0317,-36 1682.699,-67.262 1902.5377,-82.2133"/>
<polygon fill="#000000" stroke="#000000" points="1902.6077,-85.726 1912.8222,-82.9127 1903.0827,-78.7421 1902.6077,-85.726"/>
</g>
<!-- Documentable::DocPage::Index::Type -->
<g id="node5" class="node">
<title>Documentable::DocPage::Index::Type</title>
<g id="a_node5"><a xlink:href="/type/Documentable::DocPage::Index::Type" xlink:title="Documentable::DocPage::Index::Type">
<ellipse fill="none" stroke="#000000" cx="1409.0317" cy="-18" rx="176.5689" ry="18"/>
<text text-anchor="middle" x="1409.0317" y="-14.3" font-family="FreeSans" font-size="14.00" fill="#000000">Documentable::DocPage::Index::Type</text>
</a>
</g>
</g>
<!-- Documentable::DocPage::Index::Type&#45;&gt;Documentable::DocPage -->
<g id="edge4" class="edge">
<title>Documentable::DocPage::Index::Type&#45;&gt;Documentable::DocPage</title>
<path fill="none" stroke="#000000" d="M1524.4646,-31.6697C1637.4029,-45.044 1807.7269,-65.2139 1915.6009,-77.9885"/>
<polygon fill="#000000" stroke="#000000" points="1915.4991,-81.5008 1925.8413,-79.2011 1916.3223,-74.5493 1915.4991,-81.5008"/>
</g>
<!-- Documentable::DocPage::Primary::Language -->
<g id="node6" class="node">
<title>Documentable::DocPage::Primary::Language</title>
<g id="a_node6"><a xlink:href="/type/Documentable::DocPage::Primary::Language" xlink:title="Documentable::DocPage::Primary::Language">
<ellipse fill="none" stroke="#000000" cx="1810.0317" cy="-18" rx="206.0634" ry="18"/>
<text text-anchor="middle" x="1810.0317" y="-14.3" font-family="FreeSans" font-size="14.00" fill="#000000">Documentable::DocPage::Primary::Language</text>
</a>
</g>
</g>
<!-- Documentable::DocPage::Primary::Language&#45;&gt;Documentable::DocPage -->
<g id="edge5" class="edge">
<title>Documentable::DocPage::Primary::Language&#45;&gt;Documentable::DocPage</title>
<path fill="none" stroke="#000000" d="M1860.4049,-35.5211C1890.555,-46.0081 1928.9573,-59.3654 1960.1903,-70.2291"/>
<polygon fill="#000000" stroke="#000000" points="1959.0412,-73.535 1969.636,-73.5145 1961.3409,-66.9235 1959.0412,-73.535"/>
</g>
<!-- Documentable::DocPage::SubIndex::Type -->
<g id="node7" class="node">
<title>Documentable::DocPage::SubIndex::Type</title>
<g id="a_node7"><a xlink:href="/type/Documentable::DocPage::SubIndex::Type" xlink:title="Documentable::DocPage::SubIndex::Type">
<ellipse fill="none" stroke="#000000" cx="2225.0317" cy="-18" rx="191.1661" ry="18"/>
<text text-anchor="middle" x="2225.0317" y="-14.3" font-family="FreeSans" font-size="14.00" fill="#000000">Documentable::DocPage::SubIndex::Type</text>
</a>
</g>
</g>
<!-- Documentable::DocPage::SubIndex::Type&#45;&gt;Documentable::DocPage -->
<g id="edge6" class="edge">
<title>Documentable::DocPage::SubIndex::Type&#45;&gt;Documentable::DocPage</title>
<path fill="none" stroke="#000000" d="M2174.6807,-35.4292C2144.2811,-45.9521 2105.4599,-59.3902 2073.9485,-70.298"/>
<polygon fill="#000000" stroke="#000000" points="2072.7262,-67.0173 2064.4212,-73.5959 2075.016,-73.6322 2072.7262,-67.0173"/>
</g>
<!-- Documentable::DocPage::Primary::Programs -->
<g id="node8" class="node">
<title>Documentable::DocPage::Primary::Programs</title>
<g id="a_node8"><a xlink:href="/type/Documentable::DocPage::Primary::Programs" xlink:title="Documentable::DocPage::Primary::Programs">
<ellipse fill="none" stroke="#000000" cx="2640.0317" cy="-18" rx="206.0634" ry="18"/>
<text text-anchor="middle" x="2640.0317" y="-14.3" font-family="FreeSans" font-size="14.00" fill="#000000">Documentable::DocPage::Primary::Programs</text>
</a>
</g>
</g>
<!-- Documentable::DocPage::Primary::Programs&#45;&gt;Documentable::DocPage -->
<g id="edge7" class="edge">
<title>Documentable::DocPage::Primary::Programs&#45;&gt;Documentable::DocPage</title>
<path fill="none" stroke="#000000" d="M2515.4557,-32.3972C2399.068,-45.8481 2227.4327,-65.684 2118.9836,-78.2174"/>
<polygon fill="#000000" stroke="#000000" points="2118.5471,-74.7445 2109.0151,-79.3695 2119.3508,-81.6982 2118.5471,-74.7445"/>
</g>
<!-- Documentable::DocPage::Index::Routine -->
<g id="node9" class="node">
<title>Documentable::DocPage::Index::Routine</title>
<g id="a_node9"><a xlink:href="/type/Documentable::DocPage::Index::Routine" xlink:title="Documentable::DocPage::Index::Routine">
<ellipse fill="none" stroke="#000000" cx="3055.0317" cy="-18" rx="191.1661" ry="18"/>
<text text-anchor="middle" x="3055.0317" y="-14.3" font-family="FreeSans" font-size="14.00" fill="#000000">Documentable::DocPage::Index::Routine</text>
</a>
</g>
</g>
<!-- Documentable::DocPage::Index::Routine&#45;&gt;Documentable::DocPage -->
<g id="edge8" class="edge">
<title>Documentable::DocPage::Index::Routine&#45;&gt;Documentable::DocPage</title>
<path fill="none" stroke="#000000" d="M2916.6702,-30.4525C2882.2847,-33.5472 2855.0317,-36 2855.0317,-36 2855.0317,-36 2361.5309,-67.8008 2131.9545,-82.5945"/>
<polygon fill="#000000" stroke="#000000" points="2131.6474,-79.1069 2121.8932,-83.2428 2132.0976,-86.0924 2131.6474,-79.1069"/>
</g>
<!-- Documentable::DocPage::Index::Language -->
<g id="node10" class="node">
<title>Documentable::DocPage::Index::Language</title>
<g id="a_node10"><a xlink:href="/type/Documentable::DocPage::Index::Language" xlink:title="Documentable::DocPage::Index::Language">
<ellipse fill="none" stroke="#000000" cx="3460.0317" cy="-18" rx="196.0654" ry="18"/>
<text text-anchor="middle" x="3460.0317" y="-14.3" font-family="FreeSans" font-size="14.00" fill="#000000">Documentable::DocPage::Index::Language</text>
</a>
</g>
</g>
<!-- Documentable::DocPage::Index::Language&#45;&gt;Documentable::DocPage -->
<g id="edge9" class="edge">
<title>Documentable::DocPage::Index::Language&#45;&gt;Documentable::DocPage</title>
<path fill="none" stroke="#000000" d="M3318.2112,-30.4525C3282.966,-33.5472 3255.0317,-36 3255.0317,-36 3255.0317,-36 2447.3453,-71.2303 2136.7421,-84.7784"/>
<polygon fill="#000000" stroke="#000000" points="2136.1908,-81.299 2126.3529,-85.2315 2136.4959,-88.2924 2136.1908,-81.299"/>
</g>
<!-- Documentable::DocPage::Secondary -->
<g id="node11" class="node">
<title>Documentable::DocPage::Secondary</title>
<g id="a_node11"><a xlink:href="/type/Documentable::DocPage::Secondary" xlink:title="Documentable::DocPage::Secondary">
<ellipse fill="none" stroke="#000000" cx="3841.0317" cy="-18" rx="167.0704" ry="18"/>
<text text-anchor="middle" x="3841.0317" y="-14.3" font-family="FreeSans" font-size="14.00" fill="#000000">Documentable::DocPage::Secondary</text>
</a>
</g>
</g>
<!-- Documentable::DocPage::Secondary&#45;&gt;Documentable::DocPage -->
<g id="edge10" class="edge">
<title>Documentable::DocPage::Secondary&#45;&gt;Documentable::DocPage</title>
<path fill="none" stroke="#000000" d="M3719.7545,-30.4034C3689.2688,-33.5212 3665.0317,-36 3665.0317,-36 3665.0317,-36 2518.8906,-73.5556 2138.259,-86.0277"/>
<polygon fill="#000000" stroke="#000000" points="2137.9223,-82.5368 2128.0423,-86.3625 2138.1516,-89.5331 2137.9223,-82.5368"/>
</g>
</g>
</svg>
