<?xml version="1.0" encoding="UTF-8" standalone="no"?>
<!DOCTYPE svg PUBLIC "-//W3C//DTD SVG 1.1//EN"
 "http://www.w3.org/Graphics/SVG/1.1/DTD/svg11.dtd">
<!-- Generated by graphviz version 2.40.1 (0)
 -->
<!-- Title: perl6&#45;type&#45;graph Pages: 1 -->
<svg width="4015pt" height="116pt"
 viewBox="0.00 0.00 4015.06 116.00" xmlns="http://www.w3.org/2000/svg" xmlns:xlink="http://www.w3.org/1999/xlink">
<g id="graph0" class="graph" transform="scale(1 1) rotate(0) translate(4 112)">
<title>perl6&#45;type&#45;graph</title>
<polygon fill="#ffffff" stroke="transparent" points="-4,4 -4,-112 4011.0634,-112 4011.0634,4 -4,4"/>
<!-- Documentable::DocPage -->
<g id="node1" class="node">
<title>Documentable::DocPage</title>
<g id="a_node1"><a xlink:href="/type/Documentable::DocPage" xlink:title="Documentable::DocPage">
<ellipse fill="none" stroke="#6666ff" cx="2063.0317" cy="-90" rx="113.18" ry="18"/>
<text text-anchor="middle" x="2063.0317" y="-86.3" font-family="FreeSans" font-size="14.00" fill="#6666ff">Documentable::DocPage</text>
</a>
</g>
</g>
<!-- Documentable::DocPage::Primary::Language -->
<g id="node2" class="node">
<title>Documentable::DocPage::Primary::Language</title>
<g id="a_node2"><a xlink:href="/type/Documentable::DocPage::Primary::Language" xlink:title="Documentable::DocPage::Primary::Language">
<ellipse fill="none" stroke="#000000" cx="206.0317" cy="-18" rx="206.0634" ry="18"/>
<text text-anchor="middle" x="206.0317" y="-14.3" font-family="FreeSans" font-size="14.00" fill="#000000">Documentable::DocPage::Primary::Language</text>
</a>
</g>
</g>
<!-- Documentable::DocPage::Primary::Language&#45;&gt;Documentable::DocPage -->
<g id="edge1" class="edge">
<title>Documentable::DocPage::Primary::Language&#45;&gt;Documentable::DocPage</title>
<path fill="none" stroke="#000000" d="M355.0635,-30.4771C391.8896,-33.5602 421.0317,-36 421.0317,-36 421.0317,-36 1562.3375,-73.5338 1941.9155,-86.0169"/>
<polygon fill="#000000" stroke="#000000" points="1941.9947,-89.5213 1952.1044,-86.352 1942.2248,-82.5251 1941.9947,-89.5213"/>
</g>
<!-- Documentable::DocPage::Index::Language -->
<g id="node3" class="node">
<title>Documentable::DocPage::Index::Language</title>
<g id="a_node3"><a xlink:href="/type/Documentable::DocPage::Index::Language" xlink:title="Documentable::DocPage::Index::Language">
<ellipse fill="none" stroke="#000000" cx="626.0317" cy="-18" rx="196.0654" ry="18"/>
<text text-anchor="middle" x="626.0317" y="-14.3" font-family="FreeSans" font-size="14.00" fill="#000000">Documentable::DocPage::Index::Language</text>
</a>
</g>
</g>
<!-- Documentable::DocPage::Index::Language&#45;&gt;Documentable::DocPage -->
<g id="edge2" class="edge">
<title>Documentable::DocPage::Index::Language&#45;&gt;Documentable::DocPage</title>
<path fill="none" stroke="#000000" d="M767.8522,-30.4525C803.0974,-33.5472 831.0317,-36 831.0317,-36 831.0317,-36 1634.3233,-71.2092 1943.6242,-84.7662"/>
<polygon fill="#000000" stroke="#000000" points="1943.8266,-88.2784 1953.9703,-85.2197 1944.1332,-81.2851 1943.8266,-88.2784"/>
</g>
<!-- Documentable::DocPage::SubIndex::Type -->
<g id="node4" class="node">
<title>Documentable::DocPage::SubIndex::Type</title>
<g id="a_node4"><a xlink:href="/type/Documentable::DocPage::SubIndex::Type" xlink:title="Documentable::DocPage::SubIndex::Type">
<ellipse fill="none" stroke="#000000" cx="1031.0317" cy="-18" rx="191.1661" ry="18"/>
<text text-anchor="middle" x="1031.0317" y="-14.3" font-family="FreeSans" font-size="14.00" fill="#000000">Documentable::DocPage::SubIndex::Type</text>
</a>
</g>
</g>
<!-- Documentable::DocPage::SubIndex::Type&#45;&gt;Documentable::DocPage -->
<g id="edge3" class="edge">
<title>Documentable::DocPage::SubIndex::Type&#45;&gt;Documentable::DocPage</title>
<path fill="none" stroke="#000000" d="M1169.3932,-30.4525C1203.7788,-33.5472 1231.0317,-36 1231.0317,-36 1231.0317,-36 1719.7712,-67.7211 1948.0731,-82.5387"/>
<polygon fill="#000000" stroke="#000000" points="1947.8742,-86.0331 1958.0799,-83.1882 1948.3276,-79.0478 1947.8742,-86.0331"/>
</g>
<!-- Documentable::DocPage::Index::Programs -->
<g id="node5" class="node">
<title>Documentable::DocPage::Index::Programs</title>
<g id="a_node5"><a xlink:href="/type/Documentable::DocPage::Index::Programs" xlink:title="Documentable::DocPage::Index::Programs">
<ellipse fill="none" stroke="#000000" cx="1436.0317" cy="-18" rx="196.0654" ry="18"/>
<text text-anchor="middle" x="1436.0317" y="-14.3" font-family="FreeSans" font-size="14.00" fill="#000000">Documentable::DocPage::Index::Programs</text>
</a>
</g>
</g>
<!-- Documentable::DocPage::Index::Programs&#45;&gt;Documentable::DocPage -->
<g id="edge4" class="edge">
<title>Documentable::DocPage::Index::Programs&#45;&gt;Documentable::DocPage</title>
<path fill="none" stroke="#000000" d="M1558.7852,-32.0961C1676.1568,-45.5742 1851.0737,-65.6603 1961.0023,-78.2837"/>
<polygon fill="#000000" stroke="#000000" points="1960.77,-81.7799 1971.104,-79.4437 1961.5686,-74.8256 1960.77,-81.7799"/>
</g>
<!-- Documentable::DocPage::Primary::Programs -->
<g id="node6" class="node">
<title>Documentable::DocPage::Primary::Programs</title>
<g id="a_node6"><a xlink:href="/type/Documentable::DocPage::Primary::Programs" xlink:title="Documentable::DocPage::Primary::Programs">
<ellipse fill="none" stroke="#000000" cx="1856.0317" cy="-18" rx="206.0634" ry="18"/>
<text text-anchor="middle" x="1856.0317" y="-14.3" font-family="FreeSans" font-size="14.00" fill="#000000">Documentable::DocPage::Primary::Programs</text>
</a>
</g>
</g>
<!-- Documentable::DocPage::Primary::Programs&#45;&gt;Documentable::DocPage -->
<g id="edge5" class="edge">
<title>Documentable::DocPage::Primary::Programs&#45;&gt;Documentable::DocPage</title>
<path fill="none" stroke="#000000" d="M1906.4049,-35.5211C1936.555,-46.0081 1974.9573,-59.3654 2006.1903,-70.2291"/>
<polygon fill="#000000" stroke="#000000" points="2005.0412,-73.535 2015.636,-73.5145 2007.3409,-66.9235 2005.0412,-73.535"/>
</g>
<!-- Documentable::DocPage::Index::Routine -->
<g id="node7" class="node">
<title>Documentable::DocPage::Index::Routine</title>
<g id="a_node7"><a xlink:href="/type/Documentable::DocPage::Index::Routine" xlink:title="Documentable::DocPage::Index::Routine">
<ellipse fill="none" stroke="#000000" cx="2271.0317" cy="-18" rx="191.1661" ry="18"/>
<text text-anchor="middle" x="2271.0317" y="-14.3" font-family="FreeSans" font-size="14.00" fill="#000000">Documentable::DocPage::Index::Routine</text>
</a>
</g>
</g>
<!-- Documentable::DocPage::Index::Routine&#45;&gt;Documentable::DocPage -->
<g id="edge6" class="edge">
<title>Documentable::DocPage::Index::Routine&#45;&gt;Documentable::DocPage</title>
<path fill="none" stroke="#000000" d="M2220.6807,-35.4292C2190.2811,-45.9521 2151.4599,-59.3902 2119.9485,-70.298"/>
<polygon fill="#000000" stroke="#000000" points="2118.7262,-67.0173 2110.4212,-73.5959 2121.016,-73.6322 2118.7262,-67.0173"/>
</g>
<!-- Documentable::DocPage::Secondary -->
<g id="node8" class="node">
<title>Documentable::DocPage::Secondary</title>
<g id="a_node8"><a xlink:href="/type/Documentable::DocPage::Secondary" xlink:title="Documentable::DocPage::Secondary">
<ellipse fill="none" stroke="#000000" cx="2647.0317" cy="-18" rx="167.0704" ry="18"/>
<text text-anchor="middle" x="2647.0317" y="-14.3" font-family="FreeSans" font-size="14.00" fill="#000000">Documentable::DocPage::Secondary</text>
</a>
</g>
</g>
<!-- Documentable::DocPage::Secondary&#45;&gt;Documentable::DocPage -->
<g id="edge7" class="edge">
<title>Documentable::DocPage::Secondary&#45;&gt;Documentable::DocPage</title>
<path fill="none" stroke="#000000" d="M2536.8427,-31.5849C2429.1985,-44.8561 2266.8051,-64.8773 2162.8566,-77.6928"/>
<polygon fill="#000000" stroke="#000000" points="2162.1674,-74.2512 2152.6708,-78.9486 2163.024,-81.1986 2162.1674,-74.2512"/>
</g>
<!-- Documentable::DocPage::Primary::Type -->
<g id="node9" class="node">
<title>Documentable::DocPage::Primary::Type</title>
<g id="a_node9"><a xlink:href="/type/Documentable::DocPage::Primary::Type" xlink:title="Documentable::DocPage::Primary::Type">
<ellipse fill="none" stroke="#000000" cx="3019.0317" cy="-18" rx="186.5669" ry="18"/>
<text text-anchor="middle" x="3019.0317" y="-14.3" font-family="FreeSans" font-size="14.00" fill="#000000">Documentable::DocPage::Primary::Type</text>
</a>
</g>
</g>
<!-- Documentable::DocPage::Primary::Type&#45;&gt;Documentable::DocPage -->
<g id="edge8" class="edge">
<title>Documentable::DocPage::Primary::Type&#45;&gt;Documentable::DocPage</title>
<path fill="none" stroke="#000000" d="M2883.7051,-30.428C2849.8811,-33.5342 2823.0317,-36 2823.0317,-36 2823.0317,-36 2388.4681,-66.8769 2176.5495,-81.9343"/>
<polygon fill="#000000" stroke="#000000" points="2176.0464,-78.4611 2166.3196,-82.6611 2176.5426,-85.4435 2176.0464,-78.4611"/>
</g>
<!-- Documentable::DocPage::Index::Type -->
<g id="node10" class="node">
<title>Documentable::DocPage::Index::Type</title>
<g id="a_node10"><a xlink:href="/type/Documentable::DocPage::Index::Type" xlink:title="Documentable::DocPage::Index::Type">
<ellipse fill="none" stroke="#000000" cx="3400.0317" cy="-18" rx="176.5689" ry="18"/>
<text text-anchor="middle" x="3400.0317" y="-14.3" font-family="FreeSans" font-size="14.00" fill="#000000">Documentable::DocPage::Index::Type</text>
</a>
</g>
</g>
<!-- Documentable::DocPage::Index::Type&#45;&gt;Documentable::DocPage -->
<g id="edge9" class="edge">
<title>Documentable::DocPage::Index::Type&#45;&gt;Documentable::DocPage</title>
<path fill="none" stroke="#000000" d="M3272.0474,-30.4525C3240.2407,-33.5472 3215.0317,-36 3215.0317,-36 3215.0317,-36 2476.2635,-70.6298 2181.9486,-84.4258"/>
<polygon fill="#000000" stroke="#000000" points="2181.4935,-80.9432 2171.6683,-84.9077 2181.8213,-87.9355 2181.4935,-80.9432"/>
</g>
<!-- Documentable::DocPage::SubIndex::Routine -->
<g id="node11" class="node">
<title>Documentable::DocPage::SubIndex::Routine</title>
<g id="a_node11"><a xlink:href="/type/Documentable::DocPage::SubIndex::Routine" xlink:title="Documentable::DocPage::SubIndex::Routine">
<ellipse fill="none" stroke="#000000" cx="3801.0317" cy="-18" rx="206.0634" ry="18"/>
<text text-anchor="middle" x="3801.0317" y="-14.3" font-family="FreeSans" font-size="14.00" fill="#000000">Documentable::DocPage::SubIndex::Routine</text>
</a>
</g>
</g>
<!-- Documentable::DocPage::SubIndex::Routine&#45;&gt;Documentable::DocPage -->
<g id="edge10" class="edge">
<title>Documentable::DocPage::SubIndex::Routine&#45;&gt;Documentable::DocPage</title>
<path fill="none" stroke="#000000" d="M3651.9999,-30.4771C3615.1738,-33.5602 3586.0317,-36 3586.0317,-36 3586.0317,-36 2543.7712,-72.9547 2183.6758,-85.7224"/>
<polygon fill="#000000" stroke="#000000" points="2183.3513,-82.2316 2173.4817,-86.0838 2183.5994,-89.2272 2183.3513,-82.2316"/>
</g>
</g>
</svg>
