<?xml version="1.0" encoding="UTF-8" standalone="no"?>
<!DOCTYPE svg PUBLIC "-//W3C//DTD SVG 1.1//EN"
 "http://www.w3.org/Graphics/SVG/1.1/DTD/svg11.dtd">
<!-- Generated by graphviz version 2.40.1 (0)
 -->
<!-- Title: perl6&#45;type&#45;graph Pages: 1 -->
<svg width="4016pt" height="116pt"
 viewBox="0.00 0.00 4016.06 116.00" xmlns="http://www.w3.org/2000/svg" xmlns:xlink="http://www.w3.org/1999/xlink">
<g id="graph0" class="graph" transform="scale(1 1) rotate(0) translate(4 112)">
<title>perl6&#45;type&#45;graph</title>
<polygon fill="#ffffff" stroke="transparent" points="-4,4 -4,-112 4012.0634,-112 4012.0634,4 -4,4"/>
<!-- Documentable::DocPage -->
<g id="node1" class="node">
<title>Documentable::DocPage</title>
<g id="a_node1"><a xlink:href="/type/Documentable::DocPage" xlink:title="Documentable::DocPage">
<ellipse fill="none" stroke="#6666ff" cx="1999.0317" cy="-90" rx="113.18" ry="18"/>
<text text-anchor="middle" x="1999.0317" y="-86.3" font-family="FreeSans" font-size="14.00" fill="#6666ff">Documentable::DocPage</text>
</a>
</g>
</g>
<!-- Documentable::DocPage::Primary::Programs -->
<g id="node2" class="node">
<title>Documentable::DocPage::Primary::Programs</title>
<g id="a_node2"><a xlink:href="/type/Documentable::DocPage::Primary::Programs" xlink:title="Documentable::DocPage::Primary::Programs">
<ellipse fill="none" stroke="#000000" cx="206.0317" cy="-18" rx="206.0634" ry="18"/>
<text text-anchor="middle" x="206.0317" y="-14.3" font-family="FreeSans" font-size="14.00" fill="#000000">Documentable::DocPage::Primary::Programs</text>
</a>
</g>
</g>
<!-- Documentable::DocPage::Primary::Programs&#45;&gt;Documentable::DocPage -->
<g id="edge1" class="edge">
<title>Documentable::DocPage::Primary::Programs&#45;&gt;Documentable::DocPage</title>
<path fill="none" stroke="#000000" d="M355.0635,-30.4771C391.8896,-33.5602 421.0317,-36 421.0317,-36 421.0317,-36 1509.0568,-73.2328 1878.2039,-85.8652"/>
<polygon fill="#000000" stroke="#000000" points="1878.2697,-89.3694 1888.3836,-86.2136 1878.5092,-82.3735 1878.2697,-89.3694"/>
</g>
<!-- Documentable::DocPage::Index::Type -->
<g id="node3" class="node">
<title>Documentable::DocPage::Index::Type</title>
<g id="a_node3"><a xlink:href="/type/Documentable::DocPage::Index::Type" xlink:title="Documentable::DocPage::Index::Type">
<ellipse fill="none" stroke="#000000" cx="607.0317" cy="-18" rx="176.5689" ry="18"/>
<text text-anchor="middle" x="607.0317" y="-14.3" font-family="FreeSans" font-size="14.00" fill="#000000">Documentable::DocPage::Index::Type</text>
</a>
</g>
</g>
<!-- Documentable::DocPage::Index::Type&#45;&gt;Documentable::DocPage -->
<g id="edge2" class="edge">
<title>Documentable::DocPage::Index::Type&#45;&gt;Documentable::DocPage</title>
<path fill="none" stroke="#000000" d="M735.1997,-30.4034C767.4176,-33.5212 793.0317,-36 793.0317,-36 793.0317,-36 1575.6139,-71.041 1879.9636,-84.6686"/>
<polygon fill="#000000" stroke="#000000" points="1880.0005,-88.1737 1890.1471,-85.1246 1880.3137,-81.1807 1880.0005,-88.1737"/>
</g>
<!-- Documentable::DocPage::SubIndex::Routine -->
<g id="node4" class="node">
<title>Documentable::DocPage::SubIndex::Routine</title>
<g id="a_node4"><a xlink:href="/type/Documentable::DocPage::SubIndex::Routine" xlink:title="Documentable::DocPage::SubIndex::Routine">
<ellipse fill="none" stroke="#000000" cx="1008.0317" cy="-18" rx="206.0634" ry="18"/>
<text text-anchor="middle" x="1008.0317" y="-14.3" font-family="FreeSans" font-size="14.00" fill="#000000">Documentable::DocPage::SubIndex::Routine</text>
</a>
</g>
</g>
<!-- Documentable::DocPage::SubIndex::Routine&#45;&gt;Documentable::DocPage -->
<g id="edge3" class="edge">
<title>Documentable::DocPage::SubIndex::Routine&#45;&gt;Documentable::DocPage</title>
<path fill="none" stroke="#000000" d="M1157.0635,-30.4771C1193.8896,-33.5602 1223.0317,-36 1223.0317,-36 1223.0317,-36 1669.4449,-67.0648 1885.0904,-82.0711"/>
<polygon fill="#000000" stroke="#000000" points="1884.9632,-85.5706 1895.1821,-82.7734 1885.4492,-78.5875 1884.9632,-85.5706"/>
</g>
<!-- Documentable::DocPage::Index::Language -->
<g id="node5" class="node">
<title>Documentable::DocPage::Index::Language</title>
<g id="a_node5"><a xlink:href="/type/Documentable::DocPage::Index::Language" xlink:title="Documentable::DocPage::Index::Language">
<ellipse fill="none" stroke="#000000" cx="1428.0317" cy="-18" rx="196.0654" ry="18"/>
<text text-anchor="middle" x="1428.0317" y="-14.3" font-family="FreeSans" font-size="14.00" fill="#000000">Documentable::DocPage::Index::Language</text>
</a>
</g>
</g>
<!-- Documentable::DocPage::Index::Language&#45;&gt;Documentable::DocPage -->
<g id="edge4" class="edge">
<title>Documentable::DocPage::Index::Language&#45;&gt;Documentable::DocPage</title>
<path fill="none" stroke="#000000" d="M1543.5821,-32.5703C1648.3378,-45.7794 1801.0885,-65.0404 1900.2724,-77.547"/>
<polygon fill="#000000" stroke="#000000" points="1899.9383,-81.0325 1910.2977,-78.8111 1900.8141,-74.0875 1899.9383,-81.0325"/>
</g>
<!-- Documentable::DocPage::Secondary -->
<g id="node6" class="node">
<title>Documentable::DocPage::Secondary</title>
<g id="a_node6"><a xlink:href="/type/Documentable::DocPage::Secondary" xlink:title="Documentable::DocPage::Secondary">
<ellipse fill="none" stroke="#000000" cx="1809.0317" cy="-18" rx="167.0704" ry="18"/>
<text text-anchor="middle" x="1809.0317" y="-14.3" font-family="FreeSans" font-size="14.00" fill="#000000">Documentable::DocPage::Secondary</text>
</a>
</g>
</g>
<!-- Documentable::DocPage::Secondary&#45;&gt;Documentable::DocPage -->
<g id="edge5" class="edge">
<title>Documentable::DocPage::Secondary&#45;&gt;Documentable::DocPage</title>
<path fill="none" stroke="#000000" d="M1855.0254,-35.4292C1882.3576,-45.7866 1917.1424,-58.9683 1945.6774,-69.7815"/>
<polygon fill="#000000" stroke="#000000" points="1944.5037,-73.0796 1955.0951,-73.3503 1946.9842,-66.5338 1944.5037,-73.0796"/>
</g>
<!-- Documentable::DocPage::Index::Programs -->
<g id="node7" class="node">
<title>Documentable::DocPage::Index::Programs</title>
<g id="a_node7"><a xlink:href="/type/Documentable::DocPage::Index::Programs" xlink:title="Documentable::DocPage::Index::Programs">
<ellipse fill="none" stroke="#000000" cx="2190.0317" cy="-18" rx="196.0654" ry="18"/>
<text text-anchor="middle" x="2190.0317" y="-14.3" font-family="FreeSans" font-size="14.00" fill="#000000">Documentable::DocPage::Index::Programs</text>
</a>
</g>
</g>
<!-- Documentable::DocPage::Index::Programs&#45;&gt;Documentable::DocPage -->
<g id="edge6" class="edge">
<title>Documentable::DocPage::Index::Programs&#45;&gt;Documentable::DocPage</title>
<path fill="none" stroke="#000000" d="M2143.3079,-35.6132C2115.9222,-45.9366 2081.2216,-59.0174 2052.7152,-69.7633"/>
<polygon fill="#000000" stroke="#000000" points="2051.4274,-66.5083 2043.3047,-73.3107 2053.8966,-73.0583 2051.4274,-66.5083"/>
</g>
<!-- Documentable::DocPage::SubIndex::Type -->
<g id="node8" class="node">
<title>Documentable::DocPage::SubIndex::Type</title>
<g id="a_node8"><a xlink:href="/type/Documentable::DocPage::SubIndex::Type" xlink:title="Documentable::DocPage::SubIndex::Type">
<ellipse fill="none" stroke="#000000" cx="2595.0317" cy="-18" rx="191.1661" ry="18"/>
<text text-anchor="middle" x="2595.0317" y="-14.3" font-family="FreeSans" font-size="14.00" fill="#000000">Documentable::DocPage::SubIndex::Type</text>
</a>
</g>
</g>
<!-- Documentable::DocPage::SubIndex::Type&#45;&gt;Documentable::DocPage -->
<g id="edge7" class="edge">
<title>Documentable::DocPage::SubIndex::Type&#45;&gt;Documentable::DocPage</title>
<path fill="none" stroke="#000000" d="M2477.2813,-32.2249C2366.9689,-45.5512 2203.8719,-65.2542 2099.5323,-77.859"/>
<polygon fill="#000000" stroke="#000000" points="2098.8165,-74.4199 2089.3084,-79.0941 2099.6561,-81.3694 2098.8165,-74.4199"/>
</g>
<!-- Documentable::DocPage::Index::Routine -->
<g id="node9" class="node">
<title>Documentable::DocPage::Index::Routine</title>
<g id="a_node9"><a xlink:href="/type/Documentable::DocPage::Index::Routine" xlink:title="Documentable::DocPage::Index::Routine">
<ellipse fill="none" stroke="#000000" cx="2995.0317" cy="-18" rx="191.1661" ry="18"/>
<text text-anchor="middle" x="2995.0317" y="-14.3" font-family="FreeSans" font-size="14.00" fill="#000000">Documentable::DocPage::Index::Routine</text>
</a>
</g>
</g>
<!-- Documentable::DocPage::Index::Routine&#45;&gt;Documentable::DocPage -->
<g id="edge8" class="edge">
<title>Documentable::DocPage::Index::Routine&#45;&gt;Documentable::DocPage</title>
<path fill="none" stroke="#000000" d="M2856.6702,-30.4525C2822.2847,-33.5472 2795.0317,-36 2795.0317,-36 2795.0317,-36 2333.6242,-67.3015 2113.3967,-82.2416"/>
<polygon fill="#000000" stroke="#000000" points="2112.835,-78.7715 2103.0948,-82.9404 2113.3088,-85.7555 2112.835,-78.7715"/>
</g>
<!-- Documentable::DocPage::Primary::Type -->
<g id="node10" class="node">
<title>Documentable::DocPage::Primary::Type</title>
<g id="a_node10"><a xlink:href="/type/Documentable::DocPage::Primary::Type" xlink:title="Documentable::DocPage::Primary::Type">
<ellipse fill="none" stroke="#000000" cx="3391.0317" cy="-18" rx="186.5669" ry="18"/>
<text text-anchor="middle" x="3391.0317" y="-14.3" font-family="FreeSans" font-size="14.00" fill="#000000">Documentable::DocPage::Primary::Type</text>
</a>
</g>
</g>
<!-- Documentable::DocPage::Primary::Type&#45;&gt;Documentable::DocPage -->
<g id="edge9" class="edge">
<title>Documentable::DocPage::Primary::Type&#45;&gt;Documentable::DocPage</title>
<path fill="none" stroke="#000000" d="M3255.7051,-30.428C3221.8811,-33.5342 3195.0317,-36 3195.0317,-36 3195.0317,-36 2420.798,-70.957 2118.2,-84.6195"/>
<polygon fill="#000000" stroke="#000000" points="2117.9055,-81.1291 2108.0736,-85.0767 2118.2213,-88.122 2117.9055,-81.1291"/>
</g>
<!-- Documentable::DocPage::Primary::Language -->
<g id="node11" class="node">
<title>Documentable::DocPage::Primary::Language</title>
<g id="a_node11"><a xlink:href="/type/Documentable::DocPage::Primary::Language" xlink:title="Documentable::DocPage::Primary::Language">
<ellipse fill="none" stroke="#000000" cx="3802.0317" cy="-18" rx="206.0634" ry="18"/>
<text text-anchor="middle" x="3802.0317" y="-14.3" font-family="FreeSans" font-size="14.00" fill="#000000">Documentable::DocPage::Primary::Language</text>
</a>
</g>
</g>
<!-- Documentable::DocPage::Primary::Language&#45;&gt;Documentable::DocPage -->
<g id="edge10" class="edge">
<title>Documentable::DocPage::Primary::Language&#45;&gt;Documentable::DocPage</title>
<path fill="none" stroke="#000000" d="M3652.9999,-30.4771C3616.1738,-33.5602 3587.0317,-36 3587.0317,-36 3587.0317,-36 2490.8356,-73.2762 2119.9767,-85.8873"/>
<polygon fill="#000000" stroke="#000000" points="2119.6259,-82.3971 2109.7506,-86.235 2119.8638,-89.393 2119.6259,-82.3971"/>
</g>
</g>
</svg>
