<?xml version="1.0" encoding="UTF-8" standalone="no"?>
<!DOCTYPE svg PUBLIC "-//W3C//DTD SVG 1.1//EN"
 "http://www.w3.org/Graphics/SVG/1.1/DTD/svg11.dtd">
<!-- Generated by graphviz version 2.40.1 (0)
 -->
<!-- Title: perl6&#45;type&#45;graph Pages: 1 -->
<svg width="4016pt" height="116pt"
 viewBox="0.00 0.00 4016.17 116.00" xmlns="http://www.w3.org/2000/svg" xmlns:xlink="http://www.w3.org/1999/xlink">
<g id="graph0" class="graph" transform="scale(1 1) rotate(0) translate(4 112)">
<title>perl6&#45;type&#45;graph</title>
<polygon fill="#ffffff" stroke="transparent" points="-4,4 -4,-112 4012.1661,-112 4012.1661,4 -4,4"/>
<!-- Documentable::DocPage -->
<g id="node1" class="node">
<title>Documentable::DocPage</title>
<g id="a_node1"><a xlink:href="/type/Documentable::DocPage" xlink:title="Documentable::DocPage">
<ellipse fill="none" stroke="#6666ff" cx="2038.083" cy="-90" rx="113.18" ry="18"/>
<text text-anchor="middle" x="2038.083" y="-86.3" font-family="FreeSans" font-size="14.00" fill="#6666ff">Documentable::DocPage</text>
</a>
</g>
</g>
<!-- Documentable::DocPage::Index::Routine -->
<g id="node2" class="node">
<title>Documentable::DocPage::Index::Routine</title>
<g id="a_node2"><a xlink:href="/type/Documentable::DocPage::Index::Routine" xlink:title="Documentable::DocPage::Index::Routine">
<ellipse fill="none" stroke="#000000" cx="191.083" cy="-18" rx="191.1661" ry="18"/>
<text text-anchor="middle" x="191.083" y="-14.3" font-family="FreeSans" font-size="14.00" fill="#000000">Documentable::DocPage::Index::Routine</text>
</a>
</g>
</g>
<!-- Documentable::DocPage::Index::Routine&#45;&gt;Documentable::DocPage -->
<g id="edge1" class="edge">
<title>Documentable::DocPage::Index::Routine&#45;&gt;Documentable::DocPage</title>
<path fill="none" stroke="#000000" d="M329.4445,-30.4525C363.8301,-33.5472 391.083,-36 391.083,-36 391.083,-36 1536.5287,-73.5556 1916.9293,-86.0277"/>
<polygon fill="#000000" stroke="#000000" points="1917.0305,-89.5328 1927.1398,-86.3625 1917.2599,-82.5366 1917.0305,-89.5328"/>
</g>
<!-- Documentable::DocPage::Primary::Type -->
<g id="node3" class="node">
<title>Documentable::DocPage::Primary::Type</title>
<g id="a_node3"><a xlink:href="/type/Documentable::DocPage::Primary::Type" xlink:title="Documentable::DocPage::Primary::Type">
<ellipse fill="none" stroke="#000000" cx="587.083" cy="-18" rx="186.5669" ry="18"/>
<text text-anchor="middle" x="587.083" y="-14.3" font-family="FreeSans" font-size="14.00" fill="#000000">Documentable::DocPage::Primary::Type</text>
</a>
</g>
</g>
<!-- Documentable::DocPage::Primary::Type&#45;&gt;Documentable::DocPage -->
<g id="edge2" class="edge">
<title>Documentable::DocPage::Primary::Type&#45;&gt;Documentable::DocPage</title>
<path fill="none" stroke="#000000" d="M722.4097,-30.428C756.2336,-33.5342 783.083,-36 783.083,-36 783.083,-36 1605.6113,-71.3917 1918.882,-84.871"/>
<polygon fill="#000000" stroke="#000000" points="1918.7642,-88.3691 1928.9055,-85.3023 1919.0652,-81.3756 1918.7642,-88.3691"/>
</g>
<!-- Documentable::DocPage::Index::Language -->
<g id="node4" class="node">
<title>Documentable::DocPage::Index::Language</title>
<g id="a_node4"><a xlink:href="/type/Documentable::DocPage::Index::Language" xlink:title="Documentable::DocPage::Index::Language">
<ellipse fill="none" stroke="#000000" cx="988.083" cy="-18" rx="196.0654" ry="18"/>
<text text-anchor="middle" x="988.083" y="-14.3" font-family="FreeSans" font-size="14.00" fill="#000000">Documentable::DocPage::Index::Language</text>
</a>
</g>
</g>
<!-- Documentable::DocPage::Index::Language&#45;&gt;Documentable::DocPage -->
<g id="edge3" class="edge">
<title>Documentable::DocPage::Index::Language&#45;&gt;Documentable::DocPage</title>
<path fill="none" stroke="#000000" d="M1129.9036,-30.4525C1165.1488,-33.5472 1193.083,-36 1193.083,-36 1193.083,-36 1691.3304,-67.8407 1922.6354,-82.6223"/>
<polygon fill="#000000" stroke="#000000" points="1922.5688,-86.1251 1932.7717,-83.27 1923.0153,-79.1393 1922.5688,-86.1251"/>
</g>
<!-- Documentable::DocPage::Primary::Language -->
<g id="node5" class="node">
<title>Documentable::DocPage::Primary::Language</title>
<g id="a_node5"><a xlink:href="/type/Documentable::DocPage::Primary::Language" xlink:title="Documentable::DocPage::Primary::Language">
<ellipse fill="none" stroke="#000000" cx="1408.083" cy="-18" rx="206.0634" ry="18"/>
<text text-anchor="middle" x="1408.083" y="-14.3" font-family="FreeSans" font-size="14.00" fill="#000000">Documentable::DocPage::Primary::Language</text>
</a>
</g>
</g>
<!-- Documentable::DocPage::Primary::Language&#45;&gt;Documentable::DocPage -->
<g id="edge4" class="edge">
<title>Documentable::DocPage::Primary::Language&#45;&gt;Documentable::DocPage</title>
<path fill="none" stroke="#000000" d="M1533.304,-32.311C1651.2687,-45.7926 1825.8453,-65.7443 1935.7061,-78.2998"/>
<polygon fill="#000000" stroke="#000000" points="1935.4695,-81.7954 1945.8023,-79.4536 1936.2644,-74.8407 1935.4695,-81.7954"/>
</g>
<!-- Documentable::DocPage::Index::Programs -->
<g id="node6" class="node">
<title>Documentable::DocPage::Index::Programs</title>
<g id="a_node6"><a xlink:href="/type/Documentable::DocPage::Index::Programs" xlink:title="Documentable::DocPage::Index::Programs">
<ellipse fill="none" stroke="#000000" cx="1828.083" cy="-18" rx="196.0654" ry="18"/>
<text text-anchor="middle" x="1828.083" y="-14.3" font-family="FreeSans" font-size="14.00" fill="#000000">Documentable::DocPage::Index::Programs</text>
</a>
</g>
</g>
<!-- Documentable::DocPage::Index::Programs&#45;&gt;Documentable::DocPage -->
<g id="edge5" class="edge">
<title>Documentable::DocPage::Index::Programs&#45;&gt;Documentable::DocPage</title>
<path fill="none" stroke="#000000" d="M1878.9182,-35.4292C1909.6101,-45.9521 1948.8046,-59.3902 1980.619,-70.298"/>
<polygon fill="#000000" stroke="#000000" points="1979.6432,-73.6634 1990.2379,-73.5959 1981.9136,-67.0418 1979.6432,-73.6634"/>
</g>
<!-- Documentable::DocPage::SubIndex::Routine -->
<g id="node7" class="node">
<title>Documentable::DocPage::SubIndex::Routine</title>
<g id="a_node7"><a xlink:href="/type/Documentable::DocPage::SubIndex::Routine" xlink:title="Documentable::DocPage::SubIndex::Routine">
<ellipse fill="none" stroke="#000000" cx="2248.083" cy="-18" rx="206.0634" ry="18"/>
<text text-anchor="middle" x="2248.083" y="-14.3" font-family="FreeSans" font-size="14.00" fill="#000000">Documentable::DocPage::SubIndex::Routine</text>
</a>
</g>
</g>
<!-- Documentable::DocPage::SubIndex::Routine&#45;&gt;Documentable::DocPage -->
<g id="edge6" class="edge">
<title>Documentable::DocPage::SubIndex::Routine&#45;&gt;Documentable::DocPage</title>
<path fill="none" stroke="#000000" d="M2196.9798,-35.5211C2166.2827,-46.0458 2127.1535,-59.4615 2095.4066,-70.3462"/>
<polygon fill="#000000" stroke="#000000" points="2094.1329,-67.0828 2085.8086,-73.6369 2096.4033,-73.7044 2094.1329,-67.0828"/>
</g>
<!-- Documentable::DocPage::Index::Type -->
<g id="node8" class="node">
<title>Documentable::DocPage::Index::Type</title>
<g id="a_node8"><a xlink:href="/type/Documentable::DocPage::Index::Type" xlink:title="Documentable::DocPage::Index::Type">
<ellipse fill="none" stroke="#000000" cx="2649.083" cy="-18" rx="176.5689" ry="18"/>
<text text-anchor="middle" x="2649.083" y="-14.3" font-family="FreeSans" font-size="14.00" fill="#000000">Documentable::DocPage::Index::Type</text>
</a>
</g>
</g>
<!-- Documentable::DocPage::Index::Type&#45;&gt;Documentable::DocPage -->
<g id="edge7" class="edge">
<title>Documentable::DocPage::Index::Type&#45;&gt;Documentable::DocPage</title>
<path fill="none" stroke="#000000" d="M2533.4403,-31.6273C2419.7079,-45.0295 2247.8129,-65.2855 2139.3295,-78.0692"/>
<polygon fill="#000000" stroke="#000000" points="2138.8802,-74.5978 2129.3586,-79.2441 2139.6995,-81.5497 2138.8802,-74.5978"/>
</g>
<!-- Documentable::DocPage::Primary::Programs -->
<g id="node9" class="node">
<title>Documentable::DocPage::Primary::Programs</title>
<g id="a_node9"><a xlink:href="/type/Documentable::DocPage::Primary::Programs" xlink:title="Documentable::DocPage::Primary::Programs">
<ellipse fill="none" stroke="#000000" cx="3050.083" cy="-18" rx="206.0634" ry="18"/>
<text text-anchor="middle" x="3050.083" y="-14.3" font-family="FreeSans" font-size="14.00" fill="#000000">Documentable::DocPage::Primary::Programs</text>
</a>
</g>
</g>
<!-- Documentable::DocPage::Primary::Programs&#45;&gt;Documentable::DocPage -->
<g id="edge8" class="edge">
<title>Documentable::DocPage::Primary::Programs&#45;&gt;Documentable::DocPage</title>
<path fill="none" stroke="#000000" d="M2901.0513,-30.4771C2864.2252,-33.5602 2835.083,-36 2835.083,-36 2835.083,-36 2372.6374,-67.3326 2152.2638,-82.2638"/>
<polygon fill="#000000" stroke="#000000" points="2152.0174,-78.7724 2142.2769,-82.9404 2152.4906,-85.7564 2152.0174,-78.7724"/>
</g>
<!-- Documentable::DocPage::Secondary -->
<g id="node10" class="node">
<title>Documentable::DocPage::Secondary</title>
<g id="a_node10"><a xlink:href="/type/Documentable::DocPage::Secondary" xlink:title="Documentable::DocPage::Secondary">
<ellipse fill="none" stroke="#000000" cx="3441.083" cy="-18" rx="167.0704" ry="18"/>
<text text-anchor="middle" x="3441.083" y="-14.3" font-family="FreeSans" font-size="14.00" fill="#000000">Documentable::DocPage::Secondary</text>
</a>
</g>
</g>
<!-- Documentable::DocPage::Secondary&#45;&gt;Documentable::DocPage -->
<g id="edge9" class="edge">
<title>Documentable::DocPage::Secondary&#45;&gt;Documentable::DocPage</title>
<path fill="none" stroke="#000000" d="M3319.8058,-30.4034C3289.3201,-33.5212 3265.083,-36 3265.083,-36 3265.083,-36 2466.008,-71.1671 2157.559,-84.7419"/>
<polygon fill="#000000" stroke="#000000" points="2157.0771,-81.2596 2147.2407,-85.196 2157.3849,-88.2528 2157.0771,-81.2596"/>
</g>
<!-- Documentable::DocPage::SubIndex::Type -->
<g id="node11" class="node">
<title>Documentable::DocPage::SubIndex::Type</title>
<g id="a_node11"><a xlink:href="/type/Documentable::DocPage::SubIndex::Type" xlink:title="Documentable::DocPage::SubIndex::Type">
<ellipse fill="none" stroke="#000000" cx="3817.083" cy="-18" rx="191.1661" ry="18"/>
<text text-anchor="middle" x="3817.083" y="-14.3" font-family="FreeSans" font-size="14.00" fill="#000000">Documentable::DocPage::SubIndex::Type</text>
</a>
</g>
</g>
<!-- Documentable::DocPage::SubIndex::Type&#45;&gt;Documentable::DocPage -->
<g id="edge10" class="edge">
<title>Documentable::DocPage::SubIndex::Type&#45;&gt;Documentable::DocPage</title>
<path fill="none" stroke="#000000" d="M3678.7216,-30.4525C3644.336,-33.5472 3617.083,-36 3617.083,-36 3617.083,-36 2528.3685,-73.2328 2158.9875,-85.8652"/>
<polygon fill="#000000" stroke="#000000" points="2158.6758,-82.3737 2148.8013,-86.2136 2158.9151,-89.3696 2158.6758,-82.3737"/>
</g>
</g>
</svg>
