<?xml version="1.0" encoding="UTF-8" standalone="no"?>
<!DOCTYPE svg PUBLIC "-//W3C//DTD SVG 1.1//EN"
 "http://www.w3.org/Graphics/SVG/1.1/DTD/svg11.dtd">
<!-- Generated by graphviz version 2.40.1 (0)
 -->
<!-- Title: perl6&#45;type&#45;graph Pages: 1 -->
<svg width="4017pt" height="116pt"
 viewBox="0.00 0.00 4017.32 116.00" xmlns="http://www.w3.org/2000/svg" xmlns:xlink="http://www.w3.org/1999/xlink">
<g id="graph0" class="graph" transform="scale(1 1) rotate(0) translate(4 112)">
<title>perl6&#45;type&#45;graph</title>
<polygon fill="#ffffff" stroke="transparent" points="-4,4 -4,-112 4013.3178,-112 4013.3178,4 -4,4"/>
<!-- Documentable::DocPage -->
<g id="node1" class="node">
<title>Documentable::DocPage</title>
<g id="a_node1"><a xlink:href="/type/Documentable::DocPage" xlink:title="Documentable::DocPage">
<ellipse fill="none" stroke="#6666ff" cx="1982.0352" cy="-90" rx="113.18" ry="18"/>
<text text-anchor="middle" x="1982.0352" y="-86.3" font-family="FreeSans" font-size="14.00" fill="#6666ff">Documentable::DocPage</text>
</a>
</g>
</g>
<!-- Documentable::DocPage::Secondary -->
<g id="node2" class="node">
<title>Documentable::DocPage::Secondary</title>
<g id="a_node2"><a xlink:href="/type/Documentable::DocPage::Secondary" xlink:title="Documentable::DocPage::Secondary">
<ellipse fill="none" stroke="#000000" cx="167.0352" cy="-18" rx="167.0704" ry="18"/>
<text text-anchor="middle" x="167.0352" y="-14.3" font-family="FreeSans" font-size="14.00" fill="#000000">Documentable::DocPage::Secondary</text>
</a>
</g>
</g>
<!-- Documentable::DocPage::Secondary&#45;&gt;Documentable::DocPage -->
<g id="edge1" class="edge">
<title>Documentable::DocPage::Secondary&#45;&gt;Documentable::DocPage</title>
<path fill="none" stroke="#000000" d="M288.3124,-30.4034C318.7981,-33.5212 343.0352,-36 343.0352,-36 343.0352,-36 1481.5946,-73.512 1860.8102,-86.006"/>
<polygon fill="#000000" stroke="#000000" points="1860.8799,-89.5101 1870.9898,-86.3414 1861.1105,-82.5139 1860.8799,-89.5101"/>
</g>
<!-- Documentable::DocPage::SubIndex::Routine -->
<g id="node3" class="node">
<title>Documentable::DocPage::SubIndex::Routine</title>
<g id="a_node3"><a xlink:href="/type/Documentable::DocPage::SubIndex::Routine" xlink:title="Documentable::DocPage::SubIndex::Routine">
<ellipse fill="none" stroke="#000000" cx="558.0352" cy="-18" rx="206.0634" ry="18"/>
<text text-anchor="middle" x="558.0352" y="-14.3" font-family="FreeSans" font-size="14.00" fill="#000000">Documentable::DocPage::SubIndex::Routine</text>
</a>
</g>
</g>
<!-- Documentable::DocPage::SubIndex::Routine&#45;&gt;Documentable::DocPage -->
<g id="edge2" class="edge">
<title>Documentable::DocPage::SubIndex::Routine&#45;&gt;Documentable::DocPage</title>
<path fill="none" stroke="#000000" d="M707.067,-30.4771C743.8931,-33.5602 773.0352,-36 773.0352,-36 773.0352,-36 1558.0344,-71.062 1862.945,-84.6808"/>
<polygon fill="#000000" stroke="#000000" points="1863.0006,-88.1867 1873.1469,-85.1365 1863.313,-81.1937 1863.0006,-88.1867"/>
</g>
<!-- Documentable::DocPage::Index::Type -->
<g id="node4" class="node">
<title>Documentable::DocPage::Index::Type</title>
<g id="a_node4"><a xlink:href="/type/Documentable::DocPage::Index::Type" xlink:title="Documentable::DocPage::Index::Type">
<ellipse fill="none" stroke="#000000" cx="959.0352" cy="-18" rx="176.5689" ry="18"/>
<text text-anchor="middle" x="959.0352" y="-14.3" font-family="FreeSans" font-size="14.00" fill="#000000">Documentable::DocPage::Index::Type</text>
</a>
</g>
</g>
<!-- Documentable::DocPage::Index::Type&#45;&gt;Documentable::DocPage -->
<g id="edge3" class="edge">
<title>Documentable::DocPage::Index::Type&#45;&gt;Documentable::DocPage</title>
<path fill="none" stroke="#000000" d="M1087.2032,-30.4034C1119.421,-33.5212 1145.0352,-36 1145.0352,-36 1145.0352,-36 1637.3293,-67.7609 1866.8179,-82.5666"/>
<polygon fill="#000000" stroke="#000000" points="1866.6714,-86.0644 1876.8761,-83.2155 1867.1222,-79.0789 1866.6714,-86.0644"/>
</g>
<!-- Documentable::DocPage::Primary::Programs -->
<g id="node5" class="node">
<title>Documentable::DocPage::Primary::Programs</title>
<g id="a_node5"><a xlink:href="/type/Documentable::DocPage::Primary::Programs" xlink:title="Documentable::DocPage::Primary::Programs">
<ellipse fill="none" stroke="#000000" cx="1360.0352" cy="-18" rx="206.0634" ry="18"/>
<text text-anchor="middle" x="1360.0352" y="-14.3" font-family="FreeSans" font-size="14.00" fill="#000000">Documentable::DocPage::Primary::Programs</text>
</a>
</g>
</g>
<!-- Documentable::DocPage::Primary::Programs&#45;&gt;Documentable::DocPage -->
<g id="edge4" class="edge">
<title>Documentable::DocPage::Primary::Programs&#45;&gt;Documentable::DocPage</title>
<path fill="none" stroke="#000000" d="M1484.4112,-32.3972C1600.6122,-45.8481 1771.9719,-65.684 1880.2469,-78.2174"/>
<polygon fill="#000000" stroke="#000000" points="1879.8633,-81.6963 1890.1994,-79.3695 1880.6683,-74.7427 1879.8633,-81.6963"/>
</g>
<!-- Documentable::DocPage::Index::Routine -->
<g id="node6" class="node">
<title>Documentable::DocPage::Index::Routine</title>
<g id="a_node6"><a xlink:href="/type/Documentable::DocPage::Index::Routine" xlink:title="Documentable::DocPage::Index::Routine">
<ellipse fill="none" stroke="#000000" cx="1775.0352" cy="-18" rx="191.1661" ry="18"/>
<text text-anchor="middle" x="1775.0352" y="-14.3" font-family="FreeSans" font-size="14.00" fill="#000000">Documentable::DocPage::Index::Routine</text>
</a>
</g>
</g>
<!-- Documentable::DocPage::Index::Routine&#45;&gt;Documentable::DocPage -->
<g id="edge5" class="edge">
<title>Documentable::DocPage::Index::Routine&#45;&gt;Documentable::DocPage</title>
<path fill="none" stroke="#000000" d="M1825.1441,-35.4292C1855.3976,-45.9521 1894.0321,-59.3902 1925.392,-70.298"/>
<polygon fill="#000000" stroke="#000000" points="1924.2787,-73.6164 1934.8735,-73.5959 1926.5784,-67.0049 1924.2787,-73.6164"/>
</g>
<!-- Documentable::DocPage::Primary::Language -->
<g id="node7" class="node">
<title>Documentable::DocPage::Primary::Language</title>
<g id="a_node7"><a xlink:href="/type/Documentable::DocPage::Primary::Language" xlink:title="Documentable::DocPage::Primary::Language">
<ellipse fill="none" stroke="#000000" cx="2190.0352" cy="-18" rx="206.0634" ry="18"/>
<text text-anchor="middle" x="2190.0352" y="-14.3" font-family="FreeSans" font-size="14.00" fill="#000000">Documentable::DocPage::Primary::Language</text>
</a>
</g>
</g>
<!-- Documentable::DocPage::Primary::Language&#45;&gt;Documentable::DocPage -->
<g id="edge6" class="edge">
<title>Documentable::DocPage::Primary::Language&#45;&gt;Documentable::DocPage</title>
<path fill="none" stroke="#000000" d="M2139.4186,-35.5211C2109.0139,-46.0458 2070.2574,-59.4615 2038.8128,-70.3462"/>
<polygon fill="#000000" stroke="#000000" points="2037.6112,-67.0583 2029.3062,-73.6369 2039.901,-73.6732 2037.6112,-67.0583"/>
</g>
<!-- Documentable::DocPage::Primary::Type -->
<g id="node8" class="node">
<title>Documentable::DocPage::Primary::Type</title>
<g id="a_node8"><a xlink:href="/type/Documentable::DocPage::Primary::Type" xlink:title="Documentable::DocPage::Primary::Type">
<ellipse fill="none" stroke="#000000" cx="2601.0352" cy="-18" rx="186.5669" ry="18"/>
<text text-anchor="middle" x="2601.0352" y="-14.3" font-family="FreeSans" font-size="14.00" fill="#000000">Documentable::DocPage::Primary::Type</text>
</a>
</g>
</g>
<!-- Documentable::DocPage::Primary::Type&#45;&gt;Documentable::DocPage -->
<g id="edge7" class="edge">
<title>Documentable::DocPage::Primary::Type&#45;&gt;Documentable::DocPage</title>
<path fill="none" stroke="#000000" d="M2481.6858,-31.8823C2366.0245,-45.3357 2192.5186,-65.5173 2083.3795,-78.212"/>
<polygon fill="#000000" stroke="#000000" points="2082.8786,-74.7465 2073.35,-79.3786 2083.6874,-81.6997 2082.8786,-74.7465"/>
</g>
<!-- Documentable::DocPage::SubIndex::Type -->
<g id="node9" class="node">
<title>Documentable::DocPage::SubIndex::Type</title>
<g id="a_node9"><a xlink:href="/type/Documentable::DocPage::SubIndex::Type" xlink:title="Documentable::DocPage::SubIndex::Type">
<ellipse fill="none" stroke="#000000" cx="2997.0352" cy="-18" rx="191.1661" ry="18"/>
<text text-anchor="middle" x="2997.0352" y="-14.3" font-family="FreeSans" font-size="14.00" fill="#000000">Documentable::DocPage::SubIndex::Type</text>
</a>
</g>
</g>
<!-- Documentable::DocPage::SubIndex::Type&#45;&gt;Documentable::DocPage -->
<g id="edge8" class="edge">
<title>Documentable::DocPage::SubIndex::Type&#45;&gt;Documentable::DocPage</title>
<path fill="none" stroke="#000000" d="M2858.6737,-30.4525C2824.2881,-33.5472 2797.0352,-36 2797.0352,-36 2797.0352,-36 2321.1552,-67.5307 2096.6681,-82.4047"/>
<polygon fill="#000000" stroke="#000000" points="2096.2449,-78.925 2086.4982,-83.0785 2096.7077,-85.9096 2096.2449,-78.925"/>
</g>
<!-- Documentable::DocPage::Index::Language -->
<g id="node10" class="node">
<title>Documentable::DocPage::Index::Language</title>
<g id="a_node10"><a xlink:href="/type/Documentable::DocPage::Index::Language" xlink:title="Documentable::DocPage::Index::Language">
<ellipse fill="none" stroke="#000000" cx="3402.0352" cy="-18" rx="196.0654" ry="18"/>
<text text-anchor="middle" x="3402.0352" y="-14.3" font-family="FreeSans" font-size="14.00" fill="#000000">Documentable::DocPage::Index::Language</text>
</a>
</g>
</g>
<!-- Documentable::DocPage::Index::Language&#45;&gt;Documentable::DocPage -->
<g id="edge9" class="edge">
<title>Documentable::DocPage::Index::Language&#45;&gt;Documentable::DocPage</title>
<path fill="none" stroke="#000000" d="M3260.2147,-30.4525C3224.9695,-33.5472 3197.0352,-36 3197.0352,-36 3197.0352,-36 2407.6674,-71.083 2101.4411,-84.6931"/>
<polygon fill="#000000" stroke="#000000" points="2101.0303,-81.2078 2091.1956,-85.1484 2101.3412,-88.2009 2101.0303,-81.2078"/>
</g>
<!-- Documentable::DocPage::Index::Programs -->
<g id="node11" class="node">
<title>Documentable::DocPage::Index::Programs</title>
<g id="a_node11"><a xlink:href="/type/Documentable::DocPage::Index::Programs" xlink:title="Documentable::DocPage::Index::Programs">
<ellipse fill="none" stroke="#000000" cx="3813.0352" cy="-18" rx="196.0654" ry="18"/>
<text text-anchor="middle" x="3813.0352" y="-14.3" font-family="FreeSans" font-size="14.00" fill="#000000">Documentable::DocPage::Index::Programs</text>
</a>
</g>
</g>
<!-- Documentable::DocPage::Index::Programs&#45;&gt;Documentable::DocPage -->
<g id="edge10" class="edge">
<title>Documentable::DocPage::Index::Programs&#45;&gt;Documentable::DocPage</title>
<path fill="none" stroke="#000000" d="M3670.8041,-30.428C3635.2544,-33.5342 3607.0352,-36 3607.0352,-36 3607.0352,-36 2479.5114,-73.4685 2102.8803,-85.9842"/>
<polygon fill="#000000" stroke="#000000" points="2102.6475,-82.4899 2092.7693,-86.3202 2102.88,-89.4861 2102.6475,-82.4899"/>
</g>
</g>
</svg>
