<?xml version="1.0" encoding="UTF-8" standalone="no"?>
<!DOCTYPE svg PUBLIC "-//W3C//DTD SVG 1.1//EN"
 "http://www.w3.org/Graphics/SVG/1.1/DTD/svg11.dtd">
<!-- Generated by graphviz version 2.42.3 ()
 -->
<!-- Title: perl6&#45;type&#45;graph Pages: 1 -->
<svg width="4016pt" height="116pt"
 viewBox="0.00 0.00 4015.57 116.00" xmlns="http://www.w3.org/2000/svg" xmlns:xlink="http://www.w3.org/1999/xlink">
<g id="graph0" class="graph" transform="scale(1 1) rotate(0) translate(4 112)">
<title>perl6&#45;type&#45;graph</title>
<polygon fill="white" stroke="transparent" points="-4,4 -4,-112 4011.57,-112 4011.57,4 -4,4"/>
<!-- Documentable::DocPage -->
<g id="node1" class="node">
<title>Documentable::DocPage</title>
<g id="a_node1"><a xlink:href="/type/Documentable::DocPage" xlink:title="Documentable::DocPage">
<ellipse fill="none" stroke="#6666ff" cx="2017.53" cy="-90" rx="113.18" ry="18"/>
<text text-anchor="middle" x="2017.53" y="-86.3" font-family="FreeSans" font-size="14.00" fill="#6666ff">Documentable::DocPage</text>
</a>
</g>
</g>
<!-- Documentable::DocPage::Primary::Type -->
<g id="node2" class="node">
<title>Documentable::DocPage::Primary::Type</title>
<g id="a_node2"><a xlink:href="/type/Documentable::DocPage::Primary::Type" xlink:title="Documentable::DocPage::Primary::Type">
<ellipse fill="none" stroke="#000000" cx="186.53" cy="-18" rx="186.57" ry="18"/>
<text text-anchor="middle" x="186.53" y="-14.3" font-family="FreeSans" font-size="14.00" fill="#000000">Documentable::DocPage::Primary::Type</text>
</a>
</g>
</g>
<!-- Documentable::DocPage::Primary::Type&#45;&gt;Documentable::DocPage -->
<g id="edge1" class="edge">
<title>Documentable::DocPage::Primary::Type&#45;&gt;Documentable::DocPage</title>
<path fill="none" stroke="#000000" d="M320.25,-30.6C354.83,-33.6 382.53,-36 382.53,-36 382.53,-36 1520.95,-72.9 1897.92,-85.12"/>
<polygon fill="#000000" stroke="#000000" points="1897.93,-88.62 1908.04,-85.45 1898.16,-81.63 1897.93,-88.62"/>
</g>
<!-- Documentable::DocPage::Index::Routine -->
<g id="node3" class="node">
<title>Documentable::DocPage::Index::Routine</title>
<g id="a_node3"><a xlink:href="/type/Documentable::DocPage::Index::Routine" xlink:title="Documentable::DocPage::Index::Routine">
<ellipse fill="none" stroke="#000000" cx="582.53" cy="-18" rx="191.17" ry="18"/>
<text text-anchor="middle" x="582.53" y="-14.3" font-family="FreeSans" font-size="14.00" fill="#000000">Documentable::DocPage::Index::Routine</text>
</a>
</g>
</g>
<!-- Documentable::DocPage::Index::Routine&#45;&gt;Documentable::DocPage -->
<g id="edge2" class="edge">
<title>Documentable::DocPage::Index::Routine&#45;&gt;Documentable::DocPage</title>
<path fill="none" stroke="#000000" d="M719.25,-30.62C754.41,-33.61 782.53,-36 782.53,-36 782.53,-36 1590.67,-70.68 1899.5,-83.93"/>
<polygon fill="#000000" stroke="#000000" points="1899.69,-87.45 1909.83,-84.38 1899.99,-80.45 1899.69,-87.45"/>
</g>
<!-- Documentable::DocPage::Index::Language -->
<g id="node4" class="node">
<title>Documentable::DocPage::Index::Language</title>
<g id="a_node4"><a xlink:href="/type/Documentable::DocPage::Index::Language" xlink:title="Documentable::DocPage::Index::Language">
<ellipse fill="none" stroke="#000000" cx="987.53" cy="-18" rx="196.07" ry="18"/>
<text text-anchor="middle" x="987.53" y="-14.3" font-family="FreeSans" font-size="14.00" fill="#000000">Documentable::DocPage::Index::Language</text>
</a>
</g>
</g>
<!-- Documentable::DocPage::Index::Language&#45;&gt;Documentable::DocPage -->
<g id="edge3" class="edge">
<title>Documentable::DocPage::Index::Language&#45;&gt;Documentable::DocPage</title>
<path fill="none" stroke="#000000" d="M1127.67,-30.62C1163.71,-33.61 1192.53,-36 1192.53,-36 1192.53,-36 1678.51,-67.22 1904.48,-81.74"/>
<polygon fill="#000000" stroke="#000000" points="1904.51,-85.25 1914.71,-82.39 1904.96,-78.26 1904.51,-85.25"/>
</g>
<!-- Documentable::DocPage::Primary::Programs -->
<g id="node5" class="node">
<title>Documentable::DocPage::Primary::Programs</title>
<g id="a_node5"><a xlink:href="/type/Documentable::DocPage::Primary::Programs" xlink:title="Documentable::DocPage::Primary::Programs">
<ellipse fill="none" stroke="#000000" cx="1407.53" cy="-18" rx="206.06" ry="18"/>
<text text-anchor="middle" x="1407.53" y="-14.3" font-family="FreeSans" font-size="14.00" fill="#000000">Documentable::DocPage::Primary::Programs</text>
</a>
</g>
</g>
<!-- Documentable::DocPage::Primary::Programs&#45;&gt;Documentable::DocPage -->
<g id="edge4" class="edge">
<title>Documentable::DocPage::Primary::Programs&#45;&gt;Documentable::DocPage</title>
<path fill="none" stroke="#000000" d="M1526.96,-32.7C1641.2,-45.81 1811.48,-65.35 1918.42,-77.63"/>
<polygon fill="#000000" stroke="#000000" points="1918.23,-81.13 1928.57,-78.79 1919.03,-74.17 1918.23,-81.13"/>
</g>
<!-- Documentable::DocPage::Index::Programs -->
<g id="node6" class="node">
<title>Documentable::DocPage::Index::Programs</title>
<g id="a_node6"><a xlink:href="/type/Documentable::DocPage::Index::Programs" xlink:title="Documentable::DocPage::Index::Programs">
<ellipse fill="none" stroke="#000000" cx="1827.53" cy="-18" rx="196.07" ry="18"/>
<text text-anchor="middle" x="1827.53" y="-14.3" font-family="FreeSans" font-size="14.00" fill="#000000">Documentable::DocPage::Index::Programs</text>
</a>
</g>
</g>
<!-- Documentable::DocPage::Index::Programs&#45;&gt;Documentable::DocPage -->
<g id="edge5" class="edge">
<title>Documentable::DocPage::Index::Programs&#45;&gt;Documentable::DocPage</title>
<path fill="none" stroke="#000000" d="M1872.56,-35.59C1900.36,-45.83 1936.15,-59.02 1965.21,-69.72"/>
<polygon fill="#000000" stroke="#000000" points="1964.19,-73.08 1974.79,-73.25 1966.61,-66.51 1964.19,-73.08"/>
</g>
<!-- Documentable::DocPage::Secondary -->
<g id="node7" class="node">
<title>Documentable::DocPage::Secondary</title>
<g id="a_node7"><a xlink:href="/type/Documentable::DocPage::Secondary" xlink:title="Documentable::DocPage::Secondary">
<ellipse fill="none" stroke="#000000" cx="2208.53" cy="-18" rx="167.07" ry="18"/>
<text text-anchor="middle" x="2208.53" y="-14.3" font-family="FreeSans" font-size="14.00" fill="#000000">Documentable::DocPage::Secondary</text>
</a>
</g>
</g>
<!-- Documentable::DocPage::Secondary&#45;&gt;Documentable::DocPage -->
<g id="edge6" class="edge">
<title>Documentable::DocPage::Secondary&#45;&gt;Documentable::DocPage</title>
<path fill="none" stroke="#000000" d="M2163.75,-35.41C2135.72,-45.69 2099.47,-58.97 2070.08,-69.74"/>
<polygon fill="#000000" stroke="#000000" points="2068.58,-66.56 2060.39,-73.29 2070.99,-73.14 2068.58,-66.56"/>
</g>
<!-- Documentable::DocPage::Index::Type -->
<g id="node8" class="node">
<title>Documentable::DocPage::Index::Type</title>
<g id="a_node8"><a xlink:href="/type/Documentable::DocPage::Index::Type" xlink:title="Documentable::DocPage::Index::Type">
<ellipse fill="none" stroke="#000000" cx="2570.53" cy="-18" rx="176.57" ry="18"/>
<text text-anchor="middle" x="2570.53" y="-14.3" font-family="FreeSans" font-size="14.00" fill="#000000">Documentable::DocPage::Index::Type</text>
</a>
</g>
</g>
<!-- Documentable::DocPage::Index::Type&#45;&gt;Documentable::DocPage -->
<g id="edge7" class="edge">
<title>Documentable::DocPage::Index::Type&#45;&gt;Documentable::DocPage</title>
<path fill="none" stroke="#000000" d="M2464.56,-32.41C2363.09,-45.26 2211.35,-64.47 2113.39,-76.87"/>
<polygon fill="#000000" stroke="#000000" points="2112.68,-73.43 2103.2,-78.16 2113.56,-80.37 2112.68,-73.43"/>
</g>
<!-- Documentable::DocPage::SubIndex::Type -->
<g id="node9" class="node">
<title>Documentable::DocPage::SubIndex::Type</title>
<g id="a_node9"><a xlink:href="/type/Documentable::DocPage::SubIndex::Type" xlink:title="Documentable::DocPage::SubIndex::Type">
<ellipse fill="none" stroke="#000000" cx="2956.53" cy="-18" rx="191.17" ry="18"/>
<text text-anchor="middle" x="2956.53" y="-14.3" font-family="FreeSans" font-size="14.00" fill="#000000">Documentable::DocPage::SubIndex::Type</text>
</a>
</g>
</g>
<!-- Documentable::DocPage::SubIndex::Type&#45;&gt;Documentable::DocPage -->
<g id="edge8" class="edge">
<title>Documentable::DocPage::SubIndex::Type&#45;&gt;Documentable::DocPage</title>
<path fill="none" stroke="#000000" d="M2819.81,-30.62C2784.66,-33.61 2756.53,-36 2756.53,-36 2756.53,-36 2334.93,-66.24 2128.61,-81.03"/>
<polygon fill="#000000" stroke="#000000" points="2128.08,-77.56 2118.35,-81.77 2128.58,-84.54 2128.08,-77.56"/>
</g>
<!-- Documentable::DocPage::Primary::Language -->
<g id="node10" class="node">
<title>Documentable::DocPage::Primary::Language</title>
<g id="a_node10"><a xlink:href="/type/Documentable::DocPage::Primary::Language" xlink:title="Documentable::DocPage::Primary::Language">
<ellipse fill="none" stroke="#000000" cx="3371.53" cy="-18" rx="206.06" ry="18"/>
<text text-anchor="middle" x="3371.53" y="-14.3" font-family="FreeSans" font-size="14.00" fill="#000000">Documentable::DocPage::Primary::Language</text>
</a>
</g>
</g>
<!-- Documentable::DocPage::Primary::Language&#45;&gt;Documentable::DocPage -->
<g id="edge9" class="edge">
<title>Documentable::DocPage::Primary::Language&#45;&gt;Documentable::DocPage</title>
<path fill="none" stroke="#000000" d="M3224.56,-30.62C3186.77,-33.61 3156.53,-36 3156.53,-36 3156.53,-36 2425.22,-70.03 2134.58,-83.55"/>
<polygon fill="#000000" stroke="#000000" points="2134.26,-80.06 2124.43,-84.03 2134.58,-87.06 2134.26,-80.06"/>
</g>
<!-- Documentable::DocPage::SubIndex::Routine -->
<g id="node11" class="node">
<title>Documentable::DocPage::SubIndex::Routine</title>
<g id="a_node11"><a xlink:href="/type/Documentable::DocPage::SubIndex::Routine" xlink:title="Documentable::DocPage::SubIndex::Routine">
<ellipse fill="none" stroke="#000000" cx="3801.53" cy="-18" rx="206.06" ry="18"/>
<text text-anchor="middle" x="3801.53" y="-14.3" font-family="FreeSans" font-size="14.00" fill="#000000">Documentable::DocPage::SubIndex::Routine</text>
</a>
</g>
</g>
<!-- Documentable::DocPage::SubIndex::Routine&#45;&gt;Documentable::DocPage -->
<g id="edge10" class="edge">
<title>Documentable::DocPage::SubIndex::Routine&#45;&gt;Documentable::DocPage</title>
<path fill="none" stroke="#000000" d="M3654.56,-30.62C3616.77,-33.61 3586.53,-36 3586.53,-36 3586.53,-36 2503.45,-72.59 2137.03,-84.96"/>
<polygon fill="#000000" stroke="#000000" points="2136.8,-81.47 2126.93,-85.3 2137.04,-88.47 2136.8,-81.47"/>
</g>
</g>
</svg>
