<?xml version="1.0" encoding="UTF-8" standalone="no"?>
<!DOCTYPE svg PUBLIC "-//W3C//DTD SVG 1.1//EN"
 "http://www.w3.org/Graphics/SVG/1.1/DTD/svg11.dtd">
<!-- Generated by graphviz version 2.40.1 (0)
 -->
<!-- Title: perl6&#45;type&#45;graph Pages: 1 -->
<svg width="4017pt" height="116pt"
 viewBox="0.00 0.00 4016.57 116.00" xmlns="http://www.w3.org/2000/svg" xmlns:xlink="http://www.w3.org/1999/xlink">
<g id="graph0" class="graph" transform="scale(1 1) rotate(0) translate(4 112)">
<title>perl6&#45;type&#45;graph</title>
<polygon fill="#ffffff" stroke="transparent" points="-4,4 -4,-112 4012.5652,-112 4012.5652,4 -4,4"/>
<!-- Documentable::DocPage -->
<g id="node1" class="node">
<title>Documentable::DocPage</title>
<g id="a_node1"><a xlink:href="/type/Documentable::DocPage" xlink:title="Documentable::DocPage">
<ellipse fill="none" stroke="#6666ff" cx="2013.2826" cy="-90" rx="113.18" ry="18"/>
<text text-anchor="middle" x="2013.2826" y="-86.3" font-family="FreeSans" font-size="14.00" fill="#6666ff">Documentable::DocPage</text>
</a>
</g>
</g>
<!-- Documentable::DocPage::Index::Language -->
<g id="node2" class="node">
<title>Documentable::DocPage::Index::Language</title>
<g id="a_node2"><a xlink:href="/type/Documentable::DocPage::Index::Language" xlink:title="Documentable::DocPage::Index::Language">
<ellipse fill="none" stroke="#000000" cx="196.2826" cy="-18" rx="196.0654" ry="18"/>
<text text-anchor="middle" x="196.2826" y="-14.3" font-family="FreeSans" font-size="14.00" fill="#000000">Documentable::DocPage::Index::Language</text>
</a>
</g>
</g>
<!-- Documentable::DocPage::Index::Language&#45;&gt;Documentable::DocPage -->
<g id="edge1" class="edge">
<title>Documentable::DocPage::Index::Language&#45;&gt;Documentable::DocPage</title>
<path fill="none" stroke="#000000" d="M338.1031,-30.4525C373.3483,-33.5472 401.2826,-36 401.2826,-36 401.2826,-36 1517.8379,-73.4032 1892.4259,-85.9515"/>
<polygon fill="#000000" stroke="#000000" points="1892.3717,-89.4515 1902.4833,-86.2884 1892.6061,-82.4554 1892.3717,-89.4515"/>
</g>
<!-- Documentable::DocPage::Primary::Programs -->
<g id="node3" class="node">
<title>Documentable::DocPage::Primary::Programs</title>
<g id="a_node3"><a xlink:href="/type/Documentable::DocPage::Primary::Programs" xlink:title="Documentable::DocPage::Primary::Programs">
<ellipse fill="none" stroke="#000000" cx="616.2826" cy="-18" rx="206.0634" ry="18"/>
<text text-anchor="middle" x="616.2826" y="-14.3" font-family="FreeSans" font-size="14.00" fill="#000000">Documentable::DocPage::Primary::Programs</text>
</a>
</g>
</g>
<!-- Documentable::DocPage::Primary::Programs&#45;&gt;Documentable::DocPage -->
<g id="edge2" class="edge">
<title>Documentable::DocPage::Primary::Programs&#45;&gt;Documentable::DocPage</title>
<path fill="none" stroke="#000000" d="M765.3144,-30.4771C802.1405,-33.5602 831.2826,-36 831.2826,-36 831.2826,-36 1594.6178,-70.8732 1894.4305,-84.5702"/>
<polygon fill="#000000" stroke="#000000" points="1894.3158,-88.0685 1904.4652,-85.0286 1894.6354,-81.0758 1894.3158,-88.0685"/>
</g>
<!-- Documentable::DocPage::Index::Type -->
<g id="node4" class="node">
<title>Documentable::DocPage::Index::Type</title>
<g id="a_node4"><a xlink:href="/type/Documentable::DocPage::Index::Type" xlink:title="Documentable::DocPage::Index::Type">
<ellipse fill="none" stroke="#000000" cx="1017.2826" cy="-18" rx="176.5689" ry="18"/>
<text text-anchor="middle" x="1017.2826" y="-14.3" font-family="FreeSans" font-size="14.00" fill="#000000">Documentable::DocPage::Index::Type</text>
</a>
</g>
</g>
<!-- Documentable::DocPage::Index::Type&#45;&gt;Documentable::DocPage -->
<g id="edge3" class="edge">
<title>Documentable::DocPage::Index::Type&#45;&gt;Documentable::DocPage</title>
<path fill="none" stroke="#000000" d="M1145.4506,-30.4034C1177.6684,-33.5212 1203.2826,-36 1203.2826,-36 1203.2826,-36 1675.0532,-67.4514 1898.5093,-82.3484"/>
<polygon fill="#000000" stroke="#000000" points="1898.4232,-85.8504 1908.6339,-83.0234 1898.8889,-78.8659 1898.4232,-85.8504"/>
</g>
<!-- Documentable::DocPage::SubIndex::Type -->
<g id="node5" class="node">
<title>Documentable::DocPage::SubIndex::Type</title>
<g id="a_node5"><a xlink:href="/type/Documentable::DocPage::SubIndex::Type" xlink:title="Documentable::DocPage::SubIndex::Type">
<ellipse fill="none" stroke="#000000" cx="1403.2826" cy="-18" rx="191.1661" ry="18"/>
<text text-anchor="middle" x="1403.2826" y="-14.3" font-family="FreeSans" font-size="14.00" fill="#000000">Documentable::DocPage::SubIndex::Type</text>
</a>
</g>
</g>
<!-- Documentable::DocPage::SubIndex::Type&#45;&gt;Documentable::DocPage -->
<g id="edge4" class="edge">
<title>Documentable::DocPage::SubIndex::Type&#45;&gt;Documentable::DocPage</title>
<path fill="none" stroke="#000000" d="M1522.7078,-32.0961C1636.2781,-45.5011 1805.2281,-65.4428 1912.2747,-78.0778"/>
<polygon fill="#000000" stroke="#000000" points="1912.0955,-81.5808 1922.4369,-79.2772 1912.9161,-74.6291 1912.0955,-81.5808"/>
</g>
<!-- Documentable::DocPage::SubIndex::Routine -->
<g id="node6" class="node">
<title>Documentable::DocPage::SubIndex::Routine</title>
<g id="a_node6"><a xlink:href="/type/Documentable::DocPage::SubIndex::Routine" xlink:title="Documentable::DocPage::SubIndex::Routine">
<ellipse fill="none" stroke="#000000" cx="1818.2826" cy="-18" rx="206.0634" ry="18"/>
<text text-anchor="middle" x="1818.2826" y="-14.3" font-family="FreeSans" font-size="14.00" fill="#000000">Documentable::DocPage::SubIndex::Routine</text>
</a>
</g>
</g>
<!-- Documentable::DocPage::SubIndex::Routine&#45;&gt;Documentable::DocPage -->
<g id="edge5" class="edge">
<title>Documentable::DocPage::SubIndex::Routine&#45;&gt;Documentable::DocPage</title>
<path fill="none" stroke="#000000" d="M1865.985,-35.6132C1894.0454,-45.974 1929.6282,-59.1122 1958.791,-69.88"/>
<polygon fill="#000000" stroke="#000000" points="1957.8214,-73.2529 1968.4147,-73.4334 1960.246,-66.6862 1957.8214,-73.2529"/>
</g>
<!-- Documentable::DocPage::Secondary -->
<g id="node7" class="node">
<title>Documentable::DocPage::Secondary</title>
<g id="a_node7"><a xlink:href="/type/Documentable::DocPage::Secondary" xlink:title="Documentable::DocPage::Secondary">
<ellipse fill="none" stroke="#000000" cx="2209.2826" cy="-18" rx="167.0704" ry="18"/>
<text text-anchor="middle" x="2209.2826" y="-14.3" font-family="FreeSans" font-size="14.00" fill="#000000">Documentable::DocPage::Secondary</text>
</a>
</g>
</g>
<!-- Documentable::DocPage::Secondary&#45;&gt;Documentable::DocPage -->
<g id="edge6" class="edge">
<title>Documentable::DocPage::Secondary&#45;&gt;Documentable::DocPage</title>
<path fill="none" stroke="#000000" d="M2161.8365,-35.4292C2133.5394,-45.824 2097.4987,-59.0635 2068.0032,-69.8985"/>
<polygon fill="#000000" stroke="#000000" points="2066.4518,-66.7397 2058.272,-73.4733 2068.8656,-73.3104 2066.4518,-66.7397"/>
</g>
<!-- Documentable::DocPage::Index::Routine -->
<g id="node8" class="node">
<title>Documentable::DocPage::Index::Routine</title>
<g id="a_node8"><a xlink:href="/type/Documentable::DocPage::Index::Routine" xlink:title="Documentable::DocPage::Index::Routine">
<ellipse fill="none" stroke="#000000" cx="2585.2826" cy="-18" rx="191.1661" ry="18"/>
<text text-anchor="middle" x="2585.2826" y="-14.3" font-family="FreeSans" font-size="14.00" fill="#000000">Documentable::DocPage::Index::Routine</text>
</a>
</g>
</g>
<!-- Documentable::DocPage::Index::Routine&#45;&gt;Documentable::DocPage -->
<g id="edge7" class="edge">
<title>Documentable::DocPage::Index::Routine&#45;&gt;Documentable::DocPage</title>
<path fill="none" stroke="#000000" d="M2470.5614,-32.4404C2365.5657,-45.6567 2211.811,-65.0104 2112.1298,-77.5577"/>
<polygon fill="#000000" stroke="#000000" points="2111.5397,-74.1043 2102.0551,-78.8258 2112.4139,-81.0495 2111.5397,-74.1043"/>
</g>
<!-- Documentable::DocPage::Primary::Type -->
<g id="node9" class="node">
<title>Documentable::DocPage::Primary::Type</title>
<g id="a_node9"><a xlink:href="/type/Documentable::DocPage::Primary::Type" xlink:title="Documentable::DocPage::Primary::Type">
<ellipse fill="none" stroke="#000000" cx="2981.2826" cy="-18" rx="186.5669" ry="18"/>
<text text-anchor="middle" x="2981.2826" y="-14.3" font-family="FreeSans" font-size="14.00" fill="#000000">Documentable::DocPage::Primary::Type</text>
</a>
</g>
</g>
<!-- Documentable::DocPage::Primary::Type&#45;&gt;Documentable::DocPage -->
<g id="edge8" class="edge">
<title>Documentable::DocPage::Primary::Type&#45;&gt;Documentable::DocPage</title>
<path fill="none" stroke="#000000" d="M2845.9559,-30.428C2812.132,-33.5342 2785.2826,-36 2785.2826,-36 2785.2826,-36 2341.7332,-67.0255 2127.0447,-82.0425"/>
<polygon fill="#000000" stroke="#000000" points="2126.7285,-78.556 2116.9971,-82.7454 2127.217,-85.539 2126.7285,-78.556"/>
</g>
<!-- Documentable::DocPage::Primary::Language -->
<g id="node10" class="node">
<title>Documentable::DocPage::Primary::Language</title>
<g id="a_node10"><a xlink:href="/type/Documentable::DocPage::Primary::Language" xlink:title="Documentable::DocPage::Primary::Language">
<ellipse fill="none" stroke="#000000" cx="3392.2826" cy="-18" rx="206.0634" ry="18"/>
<text text-anchor="middle" x="3392.2826" y="-14.3" font-family="FreeSans" font-size="14.00" fill="#000000">Documentable::DocPage::Primary::Language</text>
</a>
</g>
</g>
<!-- Documentable::DocPage::Primary::Language&#45;&gt;Documentable::DocPage -->
<g id="edge9" class="edge">
<title>Documentable::DocPage::Primary::Language&#45;&gt;Documentable::DocPage</title>
<path fill="none" stroke="#000000" d="M3243.2508,-30.4771C3206.4247,-33.5602 3177.2826,-36 3177.2826,-36 3177.2826,-36 2429.0185,-70.7133 2132.3649,-84.4756"/>
<polygon fill="#000000" stroke="#000000" points="2131.8316,-80.9964 2122.0045,-84.9562 2132.156,-87.9889 2131.8316,-80.9964"/>
</g>
<!-- Documentable::DocPage::Index::Programs -->
<g id="node11" class="node">
<title>Documentable::DocPage::Index::Programs</title>
<g id="a_node11"><a xlink:href="/type/Documentable::DocPage::Index::Programs" xlink:title="Documentable::DocPage::Index::Programs">
<ellipse fill="none" stroke="#000000" cx="3812.2826" cy="-18" rx="196.0654" ry="18"/>
<text text-anchor="middle" x="3812.2826" y="-14.3" font-family="FreeSans" font-size="14.00" fill="#000000">Documentable::DocPage::Index::Programs</text>
</a>
</g>
</g>
<!-- Documentable::DocPage::Index::Programs&#45;&gt;Documentable::DocPage -->
<g id="edge10" class="edge">
<title>Documentable::DocPage::Index::Programs&#45;&gt;Documentable::DocPage</title>
<path fill="none" stroke="#000000" d="M3670.4621,-30.4525C3635.2169,-33.5472 3607.2826,-36 3607.2826,-36 3607.2826,-36 2506.3039,-73.2979 2134.3596,-85.8983"/>
<polygon fill="#000000" stroke="#000000" points="2133.9798,-82.409 2124.104,-86.2457 2134.2168,-89.405 2133.9798,-82.409"/>
</g>
</g>
</svg>
