<?xml version="1.0" encoding="UTF-8" standalone="no"?>
<!DOCTYPE svg PUBLIC "-//W3C//DTD SVG 1.1//EN"
 "http://www.w3.org/Graphics/SVG/1.1/DTD/svg11.dtd">
<!-- Generated by graphviz version 2.42.3 ()
 -->
<!-- Title: perl6&#45;type&#45;graph Pages: 1 -->
<svg width="4016pt" height="116pt"
 viewBox="0.00 0.00 4016.11 116.00" xmlns="http://www.w3.org/2000/svg" xmlns:xlink="http://www.w3.org/1999/xlink">
<g id="graph0" class="graph" transform="scale(1 1) rotate(0) translate(4 112)">
<title>perl6&#45;type&#45;graph</title>
<polygon fill="white" stroke="transparent" points="-4,4 -4,-112 4012.11,-112 4012.11,4 -4,4"/>
<!-- Documentable::DocPage -->
<g id="node1" class="node">
<title>Documentable::DocPage</title>
<g id="a_node1"><a xlink:href="/type/Documentable::DocPage" xlink:title="Documentable::DocPage">
<ellipse fill="none" stroke="#6666ff" cx="1975.03" cy="-90" rx="113.18" ry="18"/>
<text text-anchor="middle" x="1975.03" y="-86.3" font-family="FreeSans" font-size="14.00" fill="#6666ff">Documentable::DocPage</text>
</a>
</g>
</g>
<!-- Documentable::DocPage::SubIndex::Routine -->
<g id="node2" class="node">
<title>Documentable::DocPage::SubIndex::Routine</title>
<g id="a_node2"><a xlink:href="/type/Documentable::DocPage::SubIndex::Routine" xlink:title="Documentable::DocPage::SubIndex::Routine">
<ellipse fill="none" stroke="#000000" cx="206.03" cy="-18" rx="206.06" ry="18"/>
<text text-anchor="middle" x="206.03" y="-14.3" font-family="FreeSans" font-size="14.00" fill="#000000">Documentable::DocPage::SubIndex::Routine</text>
</a>
</g>
</g>
<!-- Documentable::DocPage::SubIndex::Routine&#45;&gt;Documentable::DocPage -->
<g id="edge1" class="edge">
<title>Documentable::DocPage::SubIndex::Routine&#45;&gt;Documentable::DocPage</title>
<path fill="none" stroke="#000000" d="M353,-30.62C390.8,-33.61 421.03,-36 421.03,-36 421.03,-36 1491.88,-72.52 1855.72,-84.93"/>
<polygon fill="#000000" stroke="#000000" points="1855.64,-88.43 1865.76,-85.27 1855.88,-81.43 1855.64,-88.43"/>
</g>
<!-- Documentable::DocPage::Secondary -->
<g id="node3" class="node">
<title>Documentable::DocPage::Secondary</title>
<g id="a_node3"><a xlink:href="/type/Documentable::DocPage::Secondary" xlink:title="Documentable::DocPage::Secondary">
<ellipse fill="none" stroke="#000000" cx="597.03" cy="-18" rx="167.07" ry="18"/>
<text text-anchor="middle" x="597.03" y="-14.3" font-family="FreeSans" font-size="14.00" fill="#000000">Documentable::DocPage::Secondary</text>
</a>
</g>
</g>
<!-- Documentable::DocPage::Secondary&#45;&gt;Documentable::DocPage -->
<g id="edge2" class="edge">
<title>Documentable::DocPage::Secondary&#45;&gt;Documentable::DocPage</title>
<path fill="none" stroke="#000000" d="M716.86,-30.57C748.02,-33.58 773.03,-36 773.03,-36 773.03,-36 1554.89,-70.47 1857.45,-83.82"/>
<polygon fill="#000000" stroke="#000000" points="1857.42,-87.32 1867.57,-84.26 1857.73,-80.32 1857.42,-87.32"/>
</g>
<!-- Documentable::DocPage::Index::Language -->
<g id="node4" class="node">
<title>Documentable::DocPage::Index::Language</title>
<g id="a_node4"><a xlink:href="/type/Documentable::DocPage::Index::Language" xlink:title="Documentable::DocPage::Index::Language">
<ellipse fill="none" stroke="#000000" cx="978.03" cy="-18" rx="196.07" ry="18"/>
<text text-anchor="middle" x="978.03" y="-14.3" font-family="FreeSans" font-size="14.00" fill="#000000">Documentable::DocPage::Index::Language</text>
</a>
</g>
</g>
<!-- Documentable::DocPage::Index::Language&#45;&gt;Documentable::DocPage -->
<g id="edge3" class="edge">
<title>Documentable::DocPage::Index::Language&#45;&gt;Documentable::DocPage</title>
<path fill="none" stroke="#000000" d="M1118.17,-30.62C1154.2,-33.61 1183.03,-36 1183.03,-36 1183.03,-36 1644.44,-66.88 1862.9,-81.5"/>
<polygon fill="#000000" stroke="#000000" points="1862.9,-85 1873.11,-82.18 1863.37,-78.02 1862.9,-85"/>
</g>
<!-- Documentable::DocPage::Index::Type -->
<g id="node5" class="node">
<title>Documentable::DocPage::Index::Type</title>
<g id="a_node5"><a xlink:href="/type/Documentable::DocPage::Index::Type" xlink:title="Documentable::DocPage::Index::Type">
<ellipse fill="none" stroke="#000000" cx="1369.03" cy="-18" rx="176.57" ry="18"/>
<text text-anchor="middle" x="1369.03" y="-14.3" font-family="FreeSans" font-size="14.00" fill="#000000">Documentable::DocPage::Index::Type</text>
</a>
</g>
</g>
<!-- Documentable::DocPage::Index::Type&#45;&gt;Documentable::DocPage -->
<g id="edge4" class="edge">
<title>Documentable::DocPage::Index::Type&#45;&gt;Documentable::DocPage</title>
<path fill="none" stroke="#000000" d="M1481.24,-31.96C1594.71,-45.07 1768.36,-65.13 1876.62,-77.63"/>
<polygon fill="#000000" stroke="#000000" points="1876.23,-81.11 1886.57,-78.78 1877.04,-74.16 1876.23,-81.11"/>
</g>
<!-- Documentable::DocPage::Primary::Language -->
<g id="node6" class="node">
<title>Documentable::DocPage::Primary::Language</title>
<g id="a_node6"><a xlink:href="/type/Documentable::DocPage::Primary::Language" xlink:title="Documentable::DocPage::Primary::Language">
<ellipse fill="none" stroke="#000000" cx="1770.03" cy="-18" rx="206.06" ry="18"/>
<text text-anchor="middle" x="1770.03" y="-14.3" font-family="FreeSans" font-size="14.00" fill="#000000">Documentable::DocPage::Primary::Language</text>
</a>
</g>
</g>
<!-- Documentable::DocPage::Primary::Language&#45;&gt;Documentable::DocPage -->
<g id="edge5" class="edge">
<title>Documentable::DocPage::Primary::Language&#45;&gt;Documentable::DocPage</title>
<path fill="none" stroke="#000000" d="M1818.35,-35.5C1848.82,-45.9 1888.25,-59.37 1919.93,-70.18"/>
<polygon fill="#000000" stroke="#000000" points="1918.9,-73.53 1929.49,-73.45 1921.16,-66.91 1918.9,-73.53"/>
</g>
<!-- Documentable::DocPage::Primary::Type -->
<g id="node7" class="node">
<title>Documentable::DocPage::Primary::Type</title>
<g id="a_node7"><a xlink:href="/type/Documentable::DocPage::Primary::Type" xlink:title="Documentable::DocPage::Primary::Type">
<ellipse fill="none" stroke="#000000" cx="2181.03" cy="-18" rx="186.57" ry="18"/>
<text text-anchor="middle" x="2181.03" y="-14.3" font-family="FreeSans" font-size="14.00" fill="#000000">Documentable::DocPage::Primary::Type</text>
</a>
</g>
</g>
<!-- Documentable::DocPage::Primary::Type&#45;&gt;Documentable::DocPage -->
<g id="edge6" class="edge">
<title>Documentable::DocPage::Primary::Type&#45;&gt;Documentable::DocPage</title>
<path fill="none" stroke="#000000" d="M2132.73,-35.41C2102.13,-45.81 2062.44,-59.3 2030.54,-70.14"/>
<polygon fill="#000000" stroke="#000000" points="2029.25,-66.88 2020.91,-73.41 2031.5,-73.51 2029.25,-66.88"/>
</g>
<!-- Documentable::DocPage::Primary::Programs -->
<g id="node8" class="node">
<title>Documentable::DocPage::Primary::Programs</title>
<g id="a_node8"><a xlink:href="/type/Documentable::DocPage::Primary::Programs" xlink:title="Documentable::DocPage::Primary::Programs">
<ellipse fill="none" stroke="#000000" cx="2592.03" cy="-18" rx="206.06" ry="18"/>
<text text-anchor="middle" x="2592.03" y="-14.3" font-family="FreeSans" font-size="14.00" fill="#000000">Documentable::DocPage::Primary::Programs</text>
</a>
</g>
</g>
<!-- Documentable::DocPage::Primary::Programs&#45;&gt;Documentable::DocPage -->
<g id="edge7" class="edge">
<title>Documentable::DocPage::Primary::Programs&#45;&gt;Documentable::DocPage</title>
<path fill="none" stroke="#000000" d="M2471.6,-32.66C2355.63,-45.82 2182.33,-65.48 2074.13,-77.76"/>
<polygon fill="#000000" stroke="#000000" points="2073.73,-74.28 2064.18,-78.89 2074.52,-81.24 2073.73,-74.28"/>
</g>
<!-- Documentable::DocPage::Index::Routine -->
<g id="node9" class="node">
<title>Documentable::DocPage::Index::Routine</title>
<g id="a_node9"><a xlink:href="/type/Documentable::DocPage::Index::Routine" xlink:title="Documentable::DocPage::Index::Routine">
<ellipse fill="none" stroke="#000000" cx="3007.03" cy="-18" rx="191.17" ry="18"/>
<text text-anchor="middle" x="3007.03" y="-14.3" font-family="FreeSans" font-size="14.00" fill="#000000">Documentable::DocPage::Index::Routine</text>
</a>
</g>
</g>
<!-- Documentable::DocPage::Index::Routine&#45;&gt;Documentable::DocPage -->
<g id="edge8" class="edge">
<title>Documentable::DocPage::Index::Routine&#45;&gt;Documentable::DocPage</title>
<path fill="none" stroke="#000000" d="M2870.31,-30.62C2835.16,-33.61 2807.03,-36 2807.03,-36 2807.03,-36 2315.71,-67.3 2088.19,-81.79"/>
<polygon fill="#000000" stroke="#000000" points="2087.64,-78.32 2077.89,-82.45 2088.09,-85.31 2087.64,-78.32"/>
</g>
<!-- Documentable::DocPage::Index::Programs -->
<g id="node10" class="node">
<title>Documentable::DocPage::Index::Programs</title>
<g id="a_node10"><a xlink:href="/type/Documentable::DocPage::Index::Programs" xlink:title="Documentable::DocPage::Index::Programs">
<ellipse fill="none" stroke="#000000" cx="3412.03" cy="-18" rx="196.07" ry="18"/>
<text text-anchor="middle" x="3412.03" y="-14.3" font-family="FreeSans" font-size="14.00" fill="#000000">Documentable::DocPage::Index::Programs</text>
</a>
</g>
</g>
<!-- Documentable::DocPage::Index::Programs&#45;&gt;Documentable::DocPage -->
<g id="edge9" class="edge">
<title>Documentable::DocPage::Index::Programs&#45;&gt;Documentable::DocPage</title>
<path fill="none" stroke="#000000" d="M3271.89,-30.62C3235.86,-33.61 3207.03,-36 3207.03,-36 3207.03,-36 2400.86,-70.68 2092.78,-83.93"/>
<polygon fill="#000000" stroke="#000000" points="2092.32,-80.45 2082.48,-84.38 2092.62,-87.44 2092.32,-80.45"/>
</g>
<!-- Documentable::DocPage::SubIndex::Type -->
<g id="node11" class="node">
<title>Documentable::DocPage::SubIndex::Type</title>
<g id="a_node11"><a xlink:href="/type/Documentable::DocPage::SubIndex::Type" xlink:title="Documentable::DocPage::SubIndex::Type">
<ellipse fill="none" stroke="#000000" cx="3817.03" cy="-18" rx="191.17" ry="18"/>
<text text-anchor="middle" x="3817.03" y="-14.3" font-family="FreeSans" font-size="14.00" fill="#000000">Documentable::DocPage::SubIndex::Type</text>
</a>
</g>
</g>
<!-- Documentable::DocPage::SubIndex::Type&#45;&gt;Documentable::DocPage -->
<g id="edge10" class="edge">
<title>Documentable::DocPage::SubIndex::Type&#45;&gt;Documentable::DocPage</title>
<path fill="none" stroke="#000000" d="M3680.31,-30.62C3645.16,-33.61 3617.03,-36 3617.03,-36 3617.03,-36 2473.07,-72.92 2094.83,-85.13"/>
<polygon fill="#000000" stroke="#000000" points="2094.56,-81.64 2084.68,-85.46 2094.79,-88.64 2094.56,-81.64"/>
</g>
</g>
</svg>
