<?xml version="1.0" encoding="UTF-8" standalone="no"?>
<!DOCTYPE svg PUBLIC "-//W3C//DTD SVG 1.1//EN"
 "http://www.w3.org/Graphics/SVG/1.1/DTD/svg11.dtd">
<!-- Generated by graphviz version 2.40.1 (0)
 -->
<!-- Title: perl6&#45;type&#45;graph Pages: 1 -->
<svg width="4017pt" height="116pt"
 viewBox="0.00 0.00 4017.11 116.00" xmlns="http://www.w3.org/2000/svg" xmlns:xlink="http://www.w3.org/1999/xlink">
<g id="graph0" class="graph" transform="scale(1 1) rotate(0) translate(4 112)">
<title>perl6&#45;type&#45;graph</title>
<polygon fill="#ffffff" stroke="transparent" points="-4,4 -4,-112 4013.1148,-112 4013.1148,4 -4,4"/>
<!-- Documentable::DocPage -->
<g id="node1" class="node">
<title>Documentable::DocPage</title>
<g id="a_node1"><a xlink:href="/type/Documentable::DocPage" xlink:title="Documentable::DocPage">
<ellipse fill="none" stroke="#6666ff" cx="2061.0317" cy="-90" rx="113.18" ry="18"/>
<text text-anchor="middle" x="2061.0317" y="-86.3" font-family="FreeSans" font-size="14.00" fill="#6666ff">Documentable::DocPage</text>
</a>
</g>
</g>
<!-- Documentable::DocPage::SubIndex::Routine -->
<g id="node2" class="node">
<title>Documentable::DocPage::SubIndex::Routine</title>
<g id="a_node2"><a xlink:href="/type/Documentable::DocPage::SubIndex::Routine" xlink:title="Documentable::DocPage::SubIndex::Routine">
<ellipse fill="none" stroke="#000000" cx="206.0317" cy="-18" rx="206.0634" ry="18"/>
<text text-anchor="middle" x="206.0317" y="-14.3" font-family="FreeSans" font-size="14.00" fill="#000000">Documentable::DocPage::SubIndex::Routine</text>
</a>
</g>
</g>
<!-- Documentable::DocPage::SubIndex::Routine&#45;&gt;Documentable::DocPage -->
<g id="edge1" class="edge">
<title>Documentable::DocPage::SubIndex::Routine&#45;&gt;Documentable::DocPage</title>
<path fill="none" stroke="#000000" d="M355.0635,-30.4771C391.8896,-33.5602 421.0317,-36 421.0317,-36 421.0317,-36 1560.9473,-73.5338 1940.063,-86.0169"/>
<polygon fill="#000000" stroke="#000000" points="1940.1297,-89.5209 1950.2395,-86.352 1940.3601,-82.5247 1940.1297,-89.5209"/>
</g>
<!-- Documentable::DocPage::Primary::Type -->
<g id="node3" class="node">
<title>Documentable::DocPage::Primary::Type</title>
<g id="a_node3"><a xlink:href="/type/Documentable::DocPage::Primary::Type" xlink:title="Documentable::DocPage::Primary::Type">
<ellipse fill="none" stroke="#000000" cx="617.0317" cy="-18" rx="186.5669" ry="18"/>
<text text-anchor="middle" x="617.0317" y="-14.3" font-family="FreeSans" font-size="14.00" fill="#000000">Documentable::DocPage::Primary::Type</text>
</a>
</g>
</g>
<!-- Documentable::DocPage::Primary::Type&#45;&gt;Documentable::DocPage -->
<g id="edge2" class="edge">
<title>Documentable::DocPage::Primary::Type&#45;&gt;Documentable::DocPage</title>
<path fill="none" stroke="#000000" d="M752.3584,-30.428C786.1823,-33.5342 813.0317,-36 813.0317,-36 813.0317,-36 1628.7029,-71.2935 1941.1954,-84.8148"/>
<polygon fill="#000000" stroke="#000000" points="1941.5046,-88.3313 1951.6466,-85.267 1941.8073,-81.3379 1941.5046,-88.3313"/>
</g>
<!-- Documentable::DocPage::Primary::Language -->
<g id="node4" class="node">
<title>Documentable::DocPage::Primary::Language</title>
<g id="a_node4"><a xlink:href="/type/Documentable::DocPage::Primary::Language" xlink:title="Documentable::DocPage::Primary::Language">
<ellipse fill="none" stroke="#000000" cx="1028.0317" cy="-18" rx="206.0634" ry="18"/>
<text text-anchor="middle" x="1028.0317" y="-14.3" font-family="FreeSans" font-size="14.00" fill="#000000">Documentable::DocPage::Primary::Language</text>
</a>
</g>
</g>
<!-- Documentable::DocPage::Primary::Language&#45;&gt;Documentable::DocPage -->
<g id="edge3" class="edge">
<title>Documentable::DocPage::Primary::Language&#45;&gt;Documentable::DocPage</title>
<path fill="none" stroke="#000000" d="M1177.0635,-30.4771C1213.8896,-33.5602 1243.0317,-36 1243.0317,-36 1243.0317,-36 1720.6634,-67.5307 1945.9769,-82.4047"/>
<polygon fill="#000000" stroke="#000000" points="1945.9753,-85.9121 1956.1842,-83.0785 1946.4365,-78.9273 1945.9753,-85.9121"/>
</g>
<!-- Documentable::DocPage::Index::Language -->
<g id="node5" class="node">
<title>Documentable::DocPage::Index::Language</title>
<g id="a_node5"><a xlink:href="/type/Documentable::DocPage::Index::Language" xlink:title="Documentable::DocPage::Index::Language">
<ellipse fill="none" stroke="#000000" cx="1448.0317" cy="-18" rx="196.0654" ry="18"/>
<text text-anchor="middle" x="1448.0317" y="-14.3" font-family="FreeSans" font-size="14.00" fill="#000000">Documentable::DocPage::Index::Language</text>
</a>
</g>
</g>
<!-- Documentable::DocPage::Index::Language&#45;&gt;Documentable::DocPage -->
<g id="edge4" class="edge">
<title>Documentable::DocPage::Index::Language&#45;&gt;Documentable::DocPage</title>
<path fill="none" stroke="#000000" d="M1569.1408,-32.2249C1683.2212,-45.6242 1852.1883,-65.4703 1959.4226,-78.0655"/>
<polygon fill="#000000" stroke="#000000" points="1959.2635,-81.5708 1969.6035,-79.2613 1960.0801,-74.6186 1959.2635,-81.5708"/>
</g>
<!-- Documentable::DocPage::Index::Programs -->
<g id="node6" class="node">
<title>Documentable::DocPage::Index::Programs</title>
<g id="a_node6"><a xlink:href="/type/Documentable::DocPage::Index::Programs" xlink:title="Documentable::DocPage::Index::Programs">
<ellipse fill="none" stroke="#000000" cx="1859.0317" cy="-18" rx="196.0654" ry="18"/>
<text text-anchor="middle" x="1859.0317" y="-14.3" font-family="FreeSans" font-size="14.00" fill="#000000">Documentable::DocPage::Index::Programs</text>
</a>
</g>
</g>
<!-- Documentable::DocPage::Index::Programs&#45;&gt;Documentable::DocPage -->
<g id="edge5" class="edge">
<title>Documentable::DocPage::Index::Programs&#45;&gt;Documentable::DocPage</title>
<path fill="none" stroke="#000000" d="M1908.1882,-35.5211C1937.4832,-45.9629 1974.7618,-59.2503 2005.1688,-70.0884"/>
<polygon fill="#000000" stroke="#000000" points="2004.1862,-73.4539 2014.7809,-73.5145 2006.5365,-66.8602 2004.1862,-73.4539"/>
</g>
<!-- Documentable::DocPage::Index::Routine -->
<g id="node7" class="node">
<title>Documentable::DocPage::Index::Routine</title>
<g id="a_node7"><a xlink:href="/type/Documentable::DocPage::Index::Routine" xlink:title="Documentable::DocPage::Index::Routine">
<ellipse fill="none" stroke="#000000" cx="2264.0317" cy="-18" rx="191.1661" ry="18"/>
<text text-anchor="middle" x="2264.0317" y="-14.3" font-family="FreeSans" font-size="14.00" fill="#000000">Documentable::DocPage::Index::Routine</text>
</a>
</g>
</g>
<!-- Documentable::DocPage::Index::Routine&#45;&gt;Documentable::DocPage -->
<g id="edge6" class="edge">
<title>Documentable::DocPage::Index::Routine&#45;&gt;Documentable::DocPage</title>
<path fill="none" stroke="#000000" d="M2214.8911,-35.4292C2185.456,-45.8692 2147.9308,-59.1787 2117.3086,-70.0397"/>
<polygon fill="#000000" stroke="#000000" points="2115.8827,-66.8318 2107.6279,-73.4733 2118.2226,-73.4291 2115.8827,-66.8318"/>
</g>
<!-- Documentable::DocPage::Index::Type -->
<g id="node8" class="node">
<title>Documentable::DocPage::Index::Type</title>
<g id="a_node8"><a xlink:href="/type/Documentable::DocPage::Index::Type" xlink:title="Documentable::DocPage::Index::Type">
<ellipse fill="none" stroke="#000000" cx="2650.0317" cy="-18" rx="176.5689" ry="18"/>
<text text-anchor="middle" x="2650.0317" y="-14.3" font-family="FreeSans" font-size="14.00" fill="#000000">Documentable::DocPage::Index::Type</text>
</a>
</g>
</g>
<!-- Documentable::DocPage::Index::Type&#45;&gt;Documentable::DocPage -->
<g id="edge7" class="edge">
<title>Documentable::DocPage::Index::Type&#45;&gt;Documentable::DocPage</title>
<path fill="none" stroke="#000000" d="M2536.8152,-31.8397C2427.993,-45.1423 2265.1221,-65.0518 2160.9821,-77.782"/>
<polygon fill="#000000" stroke="#000000" points="2160.2795,-74.3417 2150.7781,-79.0293 2161.129,-81.29 2160.2795,-74.3417"/>
</g>
<!-- Documentable::DocPage::Primary::Programs -->
<g id="node9" class="node">
<title>Documentable::DocPage::Primary::Programs</title>
<g id="a_node9"><a xlink:href="/type/Documentable::DocPage::Primary::Programs" xlink:title="Documentable::DocPage::Primary::Programs">
<ellipse fill="none" stroke="#000000" cx="3051.0317" cy="-18" rx="206.0634" ry="18"/>
<text text-anchor="middle" x="3051.0317" y="-14.3" font-family="FreeSans" font-size="14.00" fill="#000000">Documentable::DocPage::Primary::Programs</text>
</a>
</g>
</g>
<!-- Documentable::DocPage::Primary::Programs&#45;&gt;Documentable::DocPage -->
<g id="edge8" class="edge">
<title>Documentable::DocPage::Primary::Programs&#45;&gt;Documentable::DocPage</title>
<path fill="none" stroke="#000000" d="M2901.9999,-30.4771C2865.1738,-33.5602 2836.0317,-36 2836.0317,-36 2836.0317,-36 2390.1939,-67.0648 2174.8262,-82.0711"/>
<polygon fill="#000000" stroke="#000000" points="2174.48,-78.5866 2164.7475,-82.7734 2174.9666,-85.5697 2174.48,-78.5866"/>
</g>
<!-- Documentable::DocPage::Secondary -->
<g id="node10" class="node">
<title>Documentable::DocPage::Secondary</title>
<g id="a_node10"><a xlink:href="/type/Documentable::DocPage::Secondary" xlink:title="Documentable::DocPage::Secondary">
<ellipse fill="none" stroke="#000000" cx="3442.0317" cy="-18" rx="167.0704" ry="18"/>
<text text-anchor="middle" x="3442.0317" y="-14.3" font-family="FreeSans" font-size="14.00" fill="#000000">Documentable::DocPage::Secondary</text>
</a>
</g>
</g>
<!-- Documentable::DocPage::Secondary&#45;&gt;Documentable::DocPage -->
<g id="edge9" class="edge">
<title>Documentable::DocPage::Secondary&#45;&gt;Documentable::DocPage</title>
<path fill="none" stroke="#000000" d="M3320.7545,-30.4034C3290.2688,-33.5212 3266.0317,-36 3266.0317,-36 3266.0317,-36 2484.567,-71.02 2180.2747,-84.6563"/>
<polygon fill="#000000" stroke="#000000" points="2179.926,-81.1684 2170.0927,-85.1126 2180.2394,-88.1613 2179.926,-81.1684"/>
</g>
<!-- Documentable::DocPage::SubIndex::Type -->
<g id="node11" class="node">
<title>Documentable::DocPage::SubIndex::Type</title>
<g id="a_node11"><a xlink:href="/type/Documentable::DocPage::SubIndex::Type" xlink:title="Documentable::DocPage::SubIndex::Type">
<ellipse fill="none" stroke="#000000" cx="3818.0317" cy="-18" rx="191.1661" ry="18"/>
<text text-anchor="middle" x="3818.0317" y="-14.3" font-family="FreeSans" font-size="14.00" fill="#000000">Documentable::DocPage::SubIndex::Type</text>
</a>
</g>
</g>
<!-- Documentable::DocPage::SubIndex::Type&#45;&gt;Documentable::DocPage -->
<g id="edge10" class="edge">
<title>Documentable::DocPage::SubIndex::Type&#45;&gt;Documentable::DocPage</title>
<path fill="none" stroke="#000000" d="M3679.6702,-30.4525C3645.2847,-33.5472 3618.0317,-36 3618.0317,-36 3618.0317,-36 2547.6109,-73.1244 2181.8476,-85.8099"/>
<polygon fill="#000000" stroke="#000000" points="2181.6318,-82.3151 2171.7591,-86.1597 2181.8745,-89.3109 2181.6318,-82.3151"/>
</g>
</g>
</svg>
